<?xml version="1.0" encoding="UTF-8" standalone="no"?>
<!-- Created with Inkscape (http://www.inkscape.org/) -->

<svg
   xmlns:dc="http://purl.org/dc/elements/1.1/"
   xmlns:cc="http://creativecommons.org/ns#"
   xmlns:rdf="http://www.w3.org/1999/02/22-rdf-syntax-ns#"
   xmlns:svg="http://www.w3.org/2000/svg"
   xmlns="http://www.w3.org/2000/svg"
   xmlns:sodipodi="http://sodipodi.sourceforge.net/DTD/sodipodi-0.dtd"
   xmlns:inkscape="http://www.inkscape.org/namespaces/inkscape"
   version="1.1"
   id="svg4485"
   width="1966"
   height="1814"
   viewBox="0 0 1966 1814"
   sodipodi:docname="licorne.svg"
   inkscape:version="0.92.1 r15371">
  <metadata
     id="metadata4491">
    <rdf:RDF>
      <cc:Work
         rdf:about="">
        <dc:format>image/svg+xml</dc:format>
        <dc:type
           rdf:resource="http://purl.org/dc/dcmitype/StillImage" />
        <dc:title></dc:title>
      </cc:Work>
    </rdf:RDF>
  </metadata>
  <defs
     id="defs4489" />
  <sodipodi:namedview
     pagecolor="#ffffff"
     bordercolor="#666666"
     borderopacity="1"
     objecttolerance="10"
     gridtolerance="10"
     guidetolerance="10"
     inkscape:pageopacity="0"
     inkscape:pageshadow="2"
     inkscape:window-width="1304"
     inkscape:window-height="745"
     id="namedview4487"
     showgrid="false"
     inkscape:zoom="0.31863286"
     inkscape:cx="983"
     inkscape:cy="1017.601"
     inkscape:window-x="54"
     inkscape:window-y="-8"
     inkscape:window-maximized="1"
     inkscape:current-layer="svg4485" />
  <path
     style="fill:#000000;stroke-width:0.13230291"
     d="m 874.59579,978.10986 c -2.02114,-0.67493 -2.91537,-1.28908 -5.82488,-4.00064 -2.48487,-2.3158 -3.14253,-3.02411 -4.68108,-5.04149 -1.76922,-2.31986 -3.09066,-5.14644 -3.43808,-7.3541 -0.17319,-1.10051 -0.38611,-1.47326 -1.25954,-2.20497 -1.06075,-0.88866 -1.99341,-1.9371 -2.99435,-3.36615 -1.21271,-1.73139 -1.81334,-2.93461 -2.39251,-4.79291 -0.42239,-1.35524 -0.47658,-1.69789 -0.39795,-2.51628 0.10659,-1.10943 0.42632,-1.74807 1.37346,-2.74343 0.82657,-0.86865 3.96983,-2.99742 6.28989,-4.25979 1.05238,-0.57263 4.50775,-2.46057 7.67862,-4.1954 3.17086,-1.73485 6.56457,-3.57743 7.54157,-4.09462 2.31821,-1.22717 5.91777,-2.94605 6.10371,-2.91466 0.0803,0.0135 0.33473,-0.14427 0.56536,-0.35071 0.23062,-0.20644 1.65262,-0.94026 3.15999,-1.63071 2.68223,-1.22858 7.21172,-3.49913 7.23311,-3.62585 0.0239,-0.14166 -0.44498,-1.49443 -1.08295,-3.12436 -1.19204,-3.04549 -2.84326,-8.94765 -3.09551,-11.0646 -0.14323,-1.20206 -0.31048,-1.65307 -0.63323,-1.70754 -0.13008,-0.022 -0.79358,0.30379 -1.47443,0.7239 -1.8762,1.15763 -5.31076,2.9564 -7.66302,4.01331 -8.07067,3.62629 -21.9637,6.63254 -29.38385,6.35825 -1.72954,-0.0639 -9.01273,-1.29918 -10.36999,-1.75879 -1.25776,-0.42592 -4.56137,-2.05146 -6.26163,-3.08107 -2.41184,-1.46048 -5.33547,-3.97486 -8.07828,-6.94742 -1.45392,-1.57573 -4.02253,-5.08233 -4.9989,-6.8244 -1.71344,-3.05716 -3.01326,-6.69384 -3.42188,-9.57381 -1.08264,-7.63048 1.21783,-17.05496 5.93767,-24.32527 2.6072,-4.01605 4.84044,-6.74624 10.27051,-12.55601 5.91655,-6.33026 9.67029,-10.75159 11.48283,-13.525 0.68964,-1.05525 0.80642,-1.43706 0.49683,-1.6245 -0.11716,-0.071 -1.23146,-0.35524 -2.47622,-0.63177 -2.84233,-0.63144 -3.82561,-0.95163 -5.53249,-1.80158 -2.3391,-1.16477 -2.89328,-1.55833 -4.94796,-3.51383 -0.78399,-0.74614 -1.83377,-2.1713 -2.18315,-2.96379 -0.32571,-0.73878 -0.48425,-0.91202 -1.61009,-1.75945 -1.05056,-0.79075 -1.40391,-1.15925 -2.22585,-2.32122 -1.11877,-1.58161 -1.64634,-2.99895 -1.94436,-5.22362 -0.19314,-1.44177 -0.35779,-1.69367 -1.80407,-2.76012 -2.56127,-1.88861 -4.66406,-5.04362 -5.67565,-8.51568 -0.72117,-2.47528 -0.81489,-5.57213 -0.22002,-7.27073 0.38507,-1.09954 1.78482,-3.05763 3.01547,-4.21829 2.21657,-2.09052 4.80129,-3.1911 8.18258,-3.48419 0.89644,-0.0777 1.77274,-0.20385 1.94732,-0.28032 0.17459,-0.0765 0.42695,-0.3491 0.56081,-0.60585 0.77136,-1.47954 2.11825,-2.78011 3.88051,-3.74709 1.43048,-0.78492 2.73869,-1.1228 4.38188,-1.13173 2.92745,-0.0159 5.32415,0.88383 6.61555,2.48353 l 0.4905,0.6076 1.64101,-0.91456 c 1.74841,-0.97442 3.11443,-1.45702 4.42888,-1.56466 1.67367,-0.13707 4.63902,0.66527 6.03589,1.63312 0.34217,0.23709 1.00085,0.95679 1.5307,1.67253 l 0.93008,1.25636 0.69533,-0.35349 c 1.00461,-0.51071 4.28528,-1.5733 6.04007,-1.95633 0.80746,-0.17625 1.14715,-0.31036 1.12049,-0.44238 -0.021,-0.1042 -0.35439,-0.80338 -0.7408,-1.55373 -1.16608,-2.2644 -1.71222,-4.45677 -1.60239,-6.43251 0.0627,-1.12738 0.006,-1.35716 -0.60138,-2.42663 -0.98668,-1.73809 -1.54409,-3.73185 -1.64711,-5.89144 -0.0742,-1.55546 -0.20948,-2.08637 -0.92131,-3.61602 -0.93714,-2.01381 -1.54681,-4.71879 -1.33988,-5.94475 0.1071,-0.6345 -0.13154,-1.61901 -0.688,-2.83841 -0.9851,-2.15872 -1.24734,-3.4825 -1.06845,-5.39367 0.12013,-1.28338 0.0389,-1.60395 -0.71007,-2.80272 -1.11156,-1.77909 -1.51908,-3.4139 -1.46943,-5.89487 0.0375,-1.87542 -0.15954,-3.18484 -0.86102,-5.72102 -1.19434,-4.31812 -1.28274,-5.55687 -0.61378,-8.60055 0.59339,-2.69983 0.97012,-3.14877 2.43091,-2.89695 0.71173,0.1227 0.98305,0.23999 1.49758,0.6474 1.51637,1.2007 4.04791,6.06839 5.52222,10.61823 0.47553,1.46752 0.61633,1.72683 1.92487,3.54509 1.66579,2.31465 1.9049,2.76003 2.64127,4.91984 0.67498,1.97976 1.36734,3.33184 2.46177,4.80748 1.34471,1.8131 2.4803,4.27871 2.60383,5.65349 0.0327,0.36414 0.29648,0.96086 0.76014,1.71967 2.1478,3.51504 2.14077,3.50096 3.18247,6.37999 0.42896,1.18556 0.75313,1.83394 1.90493,3.81006 0.52688,0.90397 0.79319,1.52915 1.77052,4.15636 0.21236,0.57086 0.46936,1.05199 0.57111,1.06916 0.10175,0.0172 0.47496,-0.27155 0.82935,-0.64161 0.79712,-0.83238 2.10552,-1.69008 2.9566,-1.93816 0.95694,-0.27893 2.30516,-0.22476 3.34937,0.13457 3.02755,1.04184 4.58722,4.15468 4.80723,9.59444 0.0368,0.9095 0.13237,1.87601 0.21241,2.14781 0.17438,0.59216 0.29746,0.64771 2.83095,1.27761 2.07672,0.51634 3.04257,0.69023 3.26663,0.58813 0.0868,-0.0396 0.43825,-0.3833 0.78096,-0.76385 1.5058,-1.6721 4.13636,-3.70593 5.60641,-4.33462 2.4204,-1.03513 4.85535,-0.76843 6.59621,0.72248 0.72002,0.61664 1.8727,2.26992 2.21529,3.17738 0.49297,1.3058 0.76387,4.68925 0.58608,7.31999 -0.0924,1.36767 -0.0867,1.40281 0.31831,1.93728 0.22686,0.29939 1.03166,1.08949 1.78846,1.75578 2.62396,2.31014 4.51974,4.49865 7.04744,8.13565 2.43481,3.50334 3.55335,5.49733 5.03766,8.98042 1.50326,3.5276 1.96264,4.83601 2.87087,8.17699 1.53425,5.64378 1.64878,6.34763 2.42449,14.90054 0.51521,5.68074 0.89692,9.07149 1.16346,10.33524 0.5249,2.48863 2.01302,6.09089 2.5539,6.18218 0.12527,0.0211 0.77654,-0.19166 1.44727,-0.4729 1.5208,-0.63771 2.48892,-0.82716 3.91009,-0.76518 2.35474,0.10269 5.128,1.32672 6.923,3.05559 0.72853,0.7017 1.7513,2.0696 2.16867,2.90052 0.51192,1.01913 1.10592,3.10588 1.41509,4.97132 0.26407,1.59364 0.26594,1.77151 0.0326,3.12401 -0.21908,1.27012 -0.31937,1.56611 -0.87654,2.58775 -1.00567,1.84401 -2.21303,3.35291 -3.59356,4.49103 l -1.22552,1.01034 0.52554,1.51828 c 0.64623,1.86697 0.6617,2.43038 0.14967,5.45584 -0.46461,2.74467 -0.75231,3.63419 -1.57037,4.85331 -1.01435,1.5116 -1.00463,1.51977 3.06871,2.57163 2.70999,0.6998 4.35744,1.30543 6.08373,2.23655 0.6869,0.3705 1.33566,0.68827 1.44173,0.70618 0.2326,0.0392 1.08918,-0.62037 1.64352,-1.26561 1.43144,-1.66614 4.6789,-4.06442 7.02453,-5.1876 4.79057,-2.29397 8.17242,-2.63798 14.22877,-1.44742 3.57241,0.70225 6.27933,1.60305 8.89271,2.95926 1.27185,0.66001 5.03704,3.15875 9.71299,6.44599 5.5848,3.92603 8.675,5.88643 10.8347,6.87329 1.2703,0.58043 3.8552,1.1396 8.4795,1.83429 5.216,0.78355 6.0516,0.82178 10.0078,0.45777 5.2293,-0.48115 8.5582,-0.74267 9.6944,-0.76163 2.0096,-0.0335 8.7258,1.26656 10.8889,2.10778 2.3238,0.90375 4.742,2.47064 6.756,4.37755 2.0392,1.9309 2.7945,3.22002 2.724,4.6492 -0.028,0.57193 -0.078,0.67353 -0.4962,1.00755 -0.5721,0.45737 -0.9165,0.41038 -2.3941,-0.32681 -1.4656,-0.73121 -2.7882,-1.13578 -4.911,-1.5022 -1.7083,-0.29491 -1.8769,-0.30097 -2.6301,-0.0949 -0.4426,0.12108 -1.2824,0.26773 -1.8663,0.32586 -2.9285,0.29161 -7.3227,2.0924 -10.3374,4.23639 -2.6486,1.88359 -3.9835,3.32261 -8.0048,8.62899 -4.8027,6.3374 -5.6064,7.2125 -8.7307,9.50577 -4.8182,3.53654 -7.6149,4.97536 -12.6835,6.52517 -7.3052,2.23372 -13.75357,3.09107 -19.01557,2.5282 -2.72862,-0.29184 -9.49025,-1.52984 -10.77451,-1.9727 -1.10017,-0.37938 -4.97427,-2.07892 -6.74422,-2.95866 -1.66826,-0.8292 -5.50575,-3.29875 -6.80607,-4.37996 -0.49972,-0.41551 -1.01369,-0.75305 -1.14217,-0.75009 -0.38672,0.009 -1.18393,0.90683 -1.15301,1.29873 0.016,0.20358 3.38714,5.02671 8.52493,12.19687 11.4063,15.91831 12.35522,17.34271 12.5904,18.89901 0.16381,1.08403 -0.0539,2.58211 -0.53373,3.67202 -0.44347,1.00736 -1.71368,2.73228 -2.68579,3.6473 -4.06256,3.82382 -11.05611,5.95267 -16.06285,4.88953 -1.13068,-0.24009 -1.59783,-0.40499 -2.26276,-0.79873 -0.46084,-0.27291 -0.96819,-0.51818 -1.12746,-0.54505 -0.15925,-0.0269 -0.95131,0.1474 -1.76012,0.3873 -2.91661,0.8651 -3.41283,0.9364 -4.86936,0.69953 -1.0468,-0.17025 -1.47668,-0.30457 -2.16669,-0.67704 -3.01049,-1.62509 -3.81716,-2.80831 -4.68527,-6.87246 -0.16833,-0.78801 -0.40958,-1.72193 -0.53612,-2.07537 -0.12654,-0.35345 -0.26005,-0.96937 -0.29674,-1.36872 -0.0367,-0.39937 -0.25679,-1.52334 -0.48916,-2.49773 -0.23237,-0.97435 -0.44087,-1.92564 -0.46336,-2.11392 -0.0719,-0.60183 -1.41103,-5.47903 -2.00883,-7.31614 -1.26867,-3.89872 -3.25019,-8.92806 -3.73727,-9.48561 -0.34084,-0.39015 -1.1298,-0.38807 -4.2999,0.0114 -4.79113,0.60375 -7.1948,0.73723 -11.17413,0.62056 -0.89627,-0.0263 -2.87536,-0.31144 -6.7459,-0.97203 -5.54236,-0.94596 -7.13859,-1.31236 -9.19801,-2.11166 l -1.06384,-0.41289 -0.42858,0.37519 c -0.23572,0.20635 -0.95338,1.02056 -1.5948,1.80937 -0.64143,0.78882 -1.62324,1.93064 -2.1818,2.53743 -1.57398,1.70984 -4.31143,5.29025 -12.90202,16.87503 -4.96681,6.69794 -6.85071,9.1332 -7.73315,9.99637 -1.06217,1.03899 -2.72241,1.23954 -6.15693,0.74377 -1.15265,-0.16637 -2.43868,-0.41698 -2.85782,-0.55699 z m 6.78908,-1.03712 c 0.25804,-0.0886 0.60793,-0.32131 0.77753,-0.51717 0.38955,-0.44995 0.35938,-0.88824 -0.17627,-2.56038 -0.50486,-1.57602 -1.22121,-2.9596 -2.36313,-4.56423 -1.07251,-1.5071 -1.99049,-2.49294 -4.71195,-5.0604 -3.28263,-3.09684 -5.57542,-4.53764 -8.13557,-5.11247 -1.42117,-0.31908 -2.12587,-0.30844 -2.90543,0.0438 -0.43381,0.19605 -0.51214,0.30038 -0.64281,0.85637 -0.25674,1.09247 0.31096,3.56821 1.28112,5.58694 1.2802,2.66384 5.07686,6.87843 7.99327,8.87315 1.92503,1.31664 3.276,1.80498 6.32294,2.28556 1.73276,0.2733 2.17152,0.30223 2.5603,0.16879 z m 5.2264,-6.07645 c 1.51265,-2.03056 2.97585,-3.92881 3.25155,-4.21837 0.40277,-0.42301 0.49746,-0.60944 0.48189,-0.94881 -0.0527,-1.14793 -1.09351,-3.48772 -2.41455,-5.42779 -1.30526,-1.91695 -4.43198,-5.58873 -4.82706,-5.66855 -0.0716,-0.0145 -0.38797,-0.28637 -0.70306,-0.6042 -0.78175,-0.78856 -2.22146,-1.83475 -3.37068,-2.44932 -0.80975,-0.43304 -1.25942,-0.57261 -2.96738,-0.92102 l -2.01301,-0.41061 -3.04879,2.48822 c -3.08849,2.52063 -5.69438,4.77374 -5.61968,4.85888 0.0225,0.0256 0.63176,0.21942 1.35392,0.43063 1.51654,0.44354 2.26603,0.78126 3.4884,1.57184 l 0.87646,0.56685 0.3939,-0.25938 c 0.21664,-0.14268 1.024,-0.79844 1.79414,-1.45729 1.28545,-1.09968 2.13194,-1.62734 2.50861,-1.56377 0.32062,0.0541 0.0377,0.42669 -1.09004,1.4355 -1.35382,1.21105 -2.08705,2.087 -2.03561,2.43191 0.0371,0.24847 1.41516,1.64143 2.91046,2.94184 2.94813,2.56392 5.91903,6.6698 7.10738,9.82263 0.21426,0.56845 0.45879,1.15094 0.54339,1.29438 0.14552,0.2468 0.16665,0.24783 0.39165,0.0196 0.13081,-0.13269 1.47546,-1.90261 2.98811,-3.93316 z m 71.41244,8.16351 c 1.24456,-0.27949 2.23177,-0.69022 2.5911,-1.07804 0.5437,-0.58686 0.35411,-1.40758 -1.51722,-6.5681 -1.36141,-3.75433 -1.37526,-3.78774 -1.58417,-3.823 -0.10227,-0.0173 -0.50642,0.11766 -0.89811,0.29983 -0.98584,0.45852 -2.92214,0.88943 -4.53933,1.01021 -2.35523,0.17594 -2.37845,0.18014 -2.42195,0.4379 -0.0626,0.371 0.42837,2.5028 1.09597,4.75839 0.54472,1.84041 0.68784,2.16105 1.41318,3.16536 0.5914,0.81892 0.88578,1.11957 1.10164,1.1252 0.40091,0.0103 0.38766,-0.26432 -0.0848,-1.75851 -0.21412,-0.67708 -0.37907,-1.2917 -0.36657,-1.36585 0.0532,-0.31488 0.45753,0.18091 1.24198,1.52275 1.50754,2.57878 1.81813,2.75674 3.96832,2.27386 z m 9.61137,0.52636 c 0.89925,-0.0833 1.00881,-0.29666 0.62403,-1.21538 -0.61252,-1.46259 -0.83504,-2.19888 -0.77549,-2.56609 0.10425,-0.64315 0.45682,-0.29071 1.16892,1.16871 0.80852,1.65698 1.1793,2.22286 1.491,2.27547 0.51319,0.0866 2.96766,-0.36307 3.76018,-0.68893 2.5456,-1.04665 3.15776,-1.35374 4.20495,-2.10945 1.43199,-1.03338 2.59308,-2.26103 3.22245,-3.4072 0.85195,-1.55152 0.81066,-3.26575 -0.12504,-5.19011 -0.45845,-0.9429 -3.47272,-5.578 -3.63532,-5.59012 -0.0483,-0.004 -0.45041,0.35354 -0.89369,0.79368 -0.88549,0.87918 -4.87019,3.72632 -5.14924,3.67922 -0.0961,-0.0163 -0.45114,0.15028 -0.78891,0.37 -0.65733,0.42759 -4.09562,1.61634 -5.63216,1.9473 -1.15855,0.24954 -3.21654,0.43293 -4.23952,0.3778 -0.62637,-0.0337 -0.80151,0.008 -0.92463,0.22271 -0.20789,0.36181 -0.12642,0.90043 0.23719,1.56768 0.16801,0.30836 0.62694,1.42999 1.01986,2.49255 1.06702,2.88553 1.39707,3.51535 2.2699,4.33173 0.41935,0.39218 1.01115,0.84926 1.31513,1.0157 0.64825,0.35492 1.99902,0.60358 2.85039,0.52473 z m -73.65357,-19.06279 c 1.45881,-1.94919 3.31396,-4.42856 4.12255,-5.50971 2.08861,-2.79262 2.92378,-3.8594 3.80418,-4.85904 0.42436,-0.48184 1.83263,-2.11588 3.12949,-3.63118 1.4209,-1.66024 2.81199,-3.14144 3.50053,-3.72728 0.62844,-0.53469 1.15971,-0.94811 1.1806,-0.91874 0.0209,0.0294 0.025,0.55287 0.009,1.1633 l -0.0289,1.10985 1.26498,0.44297 c 2.28181,0.79904 5.12595,1.42012 9.3799,2.0483 2.19604,0.32427 4.70777,0.64631 5.58162,0.71562 2.1829,0.17317 7.16169,-0.0438 10.47557,-0.45652 2.06192,-0.2568 8.45069,-1.44713 10.02759,-1.8683 1.06108,-0.2834 1.62084,-0.36846 1.82782,-0.27772 0.17918,0.0785 0.48603,0.5196 0.76822,1.1042 0.25844,0.5354 0.73338,1.47443 1.05541,2.08677 0.32204,0.61237 0.88317,1.73719 1.24695,2.49967 0.36382,0.76246 1.45236,3.02999 2.41899,5.03895 2.6009,5.40534 5.18461,11.35871 5.1132,11.78176 -0.0757,0.44859 1.70204,0.89835 3.47433,0.87898 2.74531,-0.03 6.84406,-1.3032 9.94598,-3.08952 1.58088,-0.91041 3.9809,-3.10833 4.0882,-3.74394 0.0973,-0.57684 -0.95288,-2.22753 -5.83238,-9.16707 -5.57883,-7.93407 -10.06031,-14.48215 -10.66057,-15.57656 -0.22318,-0.40691 -0.36428,-0.78708 -0.31355,-0.84486 0.0511,-0.0582 0.28517,0.0167 0.52498,0.16806 0.64669,0.40815 1.0785,0.43352 1.53965,0.0905 0.86275,-0.64182 2.6508,-3.71552 3.47094,-5.96664 0.67297,-1.84716 1.97583,-9.54866 1.99527,-11.79397 0.0455,-5.2791 -1.07657,-9.55485 -3.85017,-14.67107 -2.34398,-4.32376 -3.79701,-5.87378 -6.71755,-7.16585 -0.68182,-0.30164 -2.5054,-0.97137 -4.05245,-1.48827 -1.54702,-0.51689 -3.58444,-1.25117 -4.5276,-1.63169 -1.95805,-0.78997 -2.01662,-0.79178 -3.19235,-0.0996 -1.6041,0.9441 -3.68997,1.66731 -5.79166,2.00804 -1.04731,0.16982 -1.33964,0.16088 -2.73647,-0.0835 -1.31406,-0.22998 -1.88789,-0.40761 -3.59204,-1.11198 -2.7346,-1.13029 -4.3062,-1.99001 -5.21009,-2.85012 -2.87141,-2.73241 -4.97795,-5.61984 -6.42673,-8.80915 -0.90815,-1.99916 -2.53121,-7.81812 -2.54892,-9.13831 -0.004,-0.29585 -0.10182,-0.97775 -0.21744,-1.51532 -0.503,-2.33844 -1.02886,-8.34234 -1.2821,-14.63744 -0.25921,-6.44359 -0.55244,-8.80334 -1.60069,-12.88138 -0.67977,-2.64453 -2.14414,-7.28247 -2.7243,-8.62843 -0.65926,-1.52945 -2.09731,-4.20667 -3.05046,-5.67904 -1.48135,-2.28829 -5.12051,-6.84605 -5.5261,-6.921 -0.0444,-0.008 -0.49308,0.4438 -0.99712,1.00444 -0.50404,0.56064 -1.08858,1.13377 -1.29898,1.27363 -0.39995,0.26588 -0.78606,0.17935 -0.72824,-0.1632 0.0462,-0.27344 1.11899,-1.86673 3.46021,-5.13885 3.02004,-4.22083 5.26214,-8.4029 7.18447,-13.40081 1.0983,-2.8555 1.98791,-5.71771 2.51653,-8.09658 1.09049,-4.9075 0.29064,-9.54933 -1.89413,-10.99224 -0.76305,-0.50395 -1.41776,-0.52013 -2.63428,-0.0651 -1.40838,0.52679 -4.19255,2.55664 -5.63018,4.10478 -2.86426,3.08442 -5.89078,7.92469 -8.227,13.15732 -0.70269,1.57387 -0.80366,1.9122 -1.3581,4.55101 -0.32943,1.5679 -0.96275,4.99062 -1.40736,7.60604 l -0.80838,4.75531 -0.46672,-0.64341 c -0.26228,-0.36158 -0.59221,-0.66459 -0.75319,-0.69176 -0.15756,-0.0266 -1.02327,0.28678 -1.92382,0.69639 -2.69863,1.22746 -5.1933,2.70318 -9.87747,5.84302 -11.19172,7.50191 -14.78882,9.40768 -21.2186,11.2418 -2.48958,0.71016 -4.23214,1.01139 -6.63393,1.14677 -1.04307,0.0588 -2.04557,0.17114 -2.22778,0.24965 -0.35185,0.15161 -0.51893,0.37853 -1.35169,1.83582 -0.99574,1.74251 -4.57629,6.47061 -7.20744,9.5174 -0.63964,0.74069 -3.06084,3.38113 -5.38044,5.86764 -4.54865,4.87596 -6.38359,7.02441 -8.13065,9.51982 -4.33721,6.19507 -6.35061,11.13184 -7.34811,18.01729 -0.50635,3.49518 -0.53038,5.26465 -0.10812,7.96224 0.63261,4.0414 2.10167,7.60399 4.57377,11.09176 1.42385,2.00883 4.89804,5.86721 6.35494,7.0577 1.35745,1.1092 3.57264,2.62875 5.25293,3.60329 4.45566,2.58429 10.92889,3.98539 17.08969,3.69897 5.72361,-0.26608 15.48558,-2.22555 19.23885,-3.86171 2.92297,-1.2742 3.88598,-2.62746 4.35057,-6.11357 0.17333,-1.30059 0.19204,-1.90014 0.0788,-2.52348 -0.15582,-0.85744 -0.1261,-1.44265 0.0716,-1.40929 0.17835,0.0301 0.74942,1.01115 0.93349,1.60368 0.0901,0.28986 0.24528,0.98215 0.34494,1.53839 0.21005,1.1723 0.0427,2.52982 -0.43365,3.51717 -0.39455,0.81783 -0.55953,1.47278 -0.3933,1.56136 0.208,0.11084 2.89002,-1.12148 5.47076,-2.51369 2.95122,-1.59203 5.68821,-3.38711 8.7418,-5.73331 5.4196,-4.16411 8.93424,-7.32138 11.36102,-10.20584 1.39941,-1.66333 5.74457,-7.59457 6.20156,-8.46527 0.33868,-0.64531 0.75598,-0.96015 1.17816,-0.88888 0.34287,0.0579 0.23968,0.3847 -0.67544,2.13913 -2.19446,4.20715 -4.95657,8.03037 -8.39863,11.62512 -1.41623,1.47907 -4.85004,4.46376 -7.38672,6.42064 -0.91401,0.70508 -1.78264,1.44272 -1.93027,1.63918 -0.69711,0.92761 -0.71986,1.93479 -0.10184,4.50808 1.38183,5.7537 3.34445,12.1815 4.33297,14.19099 0.32985,0.67049 0.82714,1.80375 1.1051,2.51832 0.27796,0.71455 0.61577,1.37388 0.75069,1.46514 0.13492,0.0913 0.35397,0.49783 0.48679,0.90347 0.13281,0.40565 0.50497,1.15635 0.82701,1.66821 l 0.58554,0.93067 1.16412,-0.53471 c 1.26565,-0.58137 1.8402,-0.65087 1.48163,-0.17925 -0.34284,0.45095 -4.37168,3.23613 -6.81887,4.71396 -4.39109,2.65174 -7.76091,4.85185 -13.35441,8.71889 -3.08598,2.13346 -5.73499,3.97898 -5.8867,4.10114 -0.27217,0.21912 -0.26116,0.22765 0.8308,0.64236 2.52125,0.95753 4.49639,2.25935 7.0364,4.63768 2.1634,2.02569 4.81974,5.62133 6.46413,8.74989 0.32988,0.62758 0.64627,1.14893 0.70309,1.15852 0.0568,0.01 1.2969,-1.57735 2.75571,-3.52656 z M 883.09992,855.48766 c -2.12446,-1.06625 -3.11695,-3.57083 -2.8787,-7.26454 0.21122,-3.27475 1.6483,-6.43063 3.54131,-7.77689 1.2178,-0.86606 3.03877,-0.98758 3.97994,-0.26558 0.78151,0.59952 1.61505,1.9607 1.97927,3.23218 0.49182,1.71688 0.53223,2.98841 0.16275,5.12078 -0.35191,2.03099 -0.8964,3.42259 -1.90511,4.86911 -0.67351,0.96584 -1.96381,2.05247 -2.48606,2.09365 -0.18876,0.0149 -0.47869,0.12342 -0.64428,0.24118 -0.35763,0.25434 -0.89837,0.17709 -1.74912,-0.24989 z m 1.69777,-11.12431 c 0.56107,-0.17826 0.95941,-0.20502 1.65005,-0.11084 0.70069,0.0956 0.95882,0.077 1.12052,-0.0805 0.33026,-0.32167 0.30335,-0.53403 -0.14808,-1.1688 -0.54229,-0.76252 -0.96253,-0.84643 -1.86307,-0.37196 -0.81604,0.42994 -1.64963,1.21655 -1.71791,1.6211 -0.0648,0.3839 0.0556,0.39783 0.95849,0.11096 z M 897.36476,820.074 c -0.15026,-0.21128 -0.35062,-0.68284 -0.44526,-1.04792 -0.31371,-1.21022 -0.26985,-2.28069 0.23331,-5.69398 0.69106,-4.68795 1.42806,-7.23829 3.01263,-10.42492 1.99571,-4.01343 4.18237,-7.05918 5.96417,-8.30737 1.27177,-0.89089 2.25703,-0.73297 3.00987,0.48242 0.82741,1.3358 0.89351,3.31392 0.22136,6.62468 -1.05611,5.20197 -3.37103,10.26076 -6.89658,15.07102 -0.98693,1.34657 -1.89205,2.3125 -2.80389,2.99225 -1.18769,0.88539 -1.82229,0.96938 -2.29561,0.30382 z m 1.89991,-1.5113 c 0.86686,-0.64436 1.63938,-1.53124 3.07544,-3.53071 1.76607,-2.45894 3.46411,-5.90598 4.95528,-10.05926 1.37587,-3.83213 1.76068,-8.1289 0.82652,-9.22884 -0.39003,-0.45925 -0.5991,-0.45661 -1.3152,0.0166 -1.46762,0.96988 -4.04268,4.52971 -5.71786,7.90452 -1.62193,3.26752 -2.29002,5.59922 -3.00703,10.49474 -0.49088,3.3516 -0.51026,3.98269 -0.14299,4.65609 0.25162,0.46135 0.40366,0.43232 1.32584,-0.25317 z m -37.01076,140.07489 c 0.72586,-0.46271 2.02544,-1.61717 2.42586,-2.15499 0.25915,-0.34808 0.27507,-0.42903 0.1569,-0.79791 -0.4917,-1.53478 -5.4027,-5.93871 -7.66791,-6.87618 -0.4652,-0.19252 -1.00616,-0.33741 -1.20214,-0.32194 -0.32739,0.0258 -0.3588,0.073 -0.38676,0.58091 -0.0463,0.8421 0.60028,2.86116 1.42662,4.45469 1.24093,2.39299 3.57152,5.32057 4.33872,5.45005 0.16687,0.0282 0.57579,-0.12241 0.90871,-0.33463 z m 4.6363,-3.90745 c 0.82535,-0.4945 3.4372,-2.54298 4.44832,-3.48884 0.31343,-0.2932 0.58689,-0.63393 0.6077,-0.75716 0.0573,-0.33954 -0.6693,-1.60974 -1.79053,-3.1301 -1.50728,-2.04385 -2.43033,-2.83561 -4.35973,-3.73967 -1.24082,-0.58139 -1.68988,-0.62667 -2.45654,-0.24763 -0.88733,0.43871 -5.27501,3.17112 -5.67461,3.53383 -0.60356,0.54788 -0.47744,0.90195 0.44278,1.24305 0.23727,0.088 0.5985,0.33857 0.80272,0.55691 0.20422,0.21835 0.48821,0.41674 0.63109,0.44084 0.1597,0.0269 0.71709,-0.3148 1.44671,-0.88705 1.69363,-1.32833 2.00401,-1.29309 0.83506,0.0948 -0.26777,0.31793 -0.60509,0.7654 -0.7496,0.99436 -0.24592,0.38966 -0.24732,0.43697 -0.0219,0.73903 0.13251,0.17747 0.83925,0.89163 1.57052,1.58701 0.73128,0.69541 1.71987,1.76142 2.19688,2.36891 0.477,0.60752 0.95761,1.11983 1.06803,1.13846 0.11041,0.0186 0.56178,-0.18242 1.00302,-0.44679 z m 86.33327,13.03661 c 1.09858,-0.15056 2.16015,-0.45187 2.85375,-0.80994 0.99172,-0.51202 0.78611,-1.53597 -1.30027,-6.47533 -1.33424,-3.15865 -4.95926,-10.62645 -5.50789,-11.34655 -0.15641,-0.20529 -0.26794,-0.47072 -0.24784,-0.58982 0.0365,-0.216 -0.58785,-1.65304 -0.98276,-2.2621 l -0.20823,-0.32114 -1.49838,0.38185 c -1.92402,0.49036 -2.82654,0.77413 -3.28601,1.03322 l -0.36847,0.20777 0.19999,0.68356 c 0.11,0.37596 0.66969,1.76207 1.24374,3.08026 1.86237,4.27663 3.09013,7.90891 4.06183,12.01665 0.52749,2.22993 0.78567,3.01931 1.20213,3.67568 l 0.37017,0.5834 1.25339,0.13713 c 0.72279,0.0791 1.6604,0.0814 2.21485,0.005 z m -72.13295,-23.67589 c 5.50245,-3.86189 9.50894,-6.56094 12.39877,-8.35272 2.34819,-1.45596 4.40003,-2.7525 4.55965,-2.88123 0.39327,-0.31714 0.34123,-0.65839 -0.277,-1.81651 -0.93104,-1.74408 -1.98025,-3.76532 -2.13328,-4.10965 -0.18287,-0.41149 -0.36132,-0.37171 -1.54637,0.3448 -0.44037,0.26625 -0.93176,0.51171 -1.09198,0.54542 -0.16022,0.0337 -0.72072,0.31388 -1.24556,0.62253 -1.53276,0.9014 -3.28783,1.81261 -5.94217,3.08508 -5.99944,2.87608 -8.87199,4.31789 -11.6542,5.84953 -4.29743,2.36581 -7.93867,4.50465 -7.96835,4.68052 -0.0214,0.12698 0.52738,0.6096 1.49268,1.3126 0.83962,0.61148 1.69268,1.34533 1.89569,1.6308 0.20301,0.28543 0.50891,0.58026 0.67978,0.65517 0.29333,0.12859 1.36137,1.53722 1.82594,2.40825 0.1169,0.21916 0.28557,0.68538 0.37483,1.03603 0.0893,0.35066 0.23878,0.65046 0.33226,0.66624 0.0935,0.0158 3.82818,-2.5388 8.29931,-5.67686 z m 107.39234,0.71878 c 7.63025,0.83982 17.51323,-0.80589 25.06903,-4.17446 2.6479,-1.18051 4.5173,-2.27508 6.4912,-3.8007 3.5103,-2.71307 4.42,-3.69846 8.7733,-9.50368 2.1161,-2.82178 3.7572,-4.91555 4.1496,-5.2942 0.3791,-0.36578 0.3627,-0.80141 -0.025,-0.66821 -0.3235,0.11111 -2.3967,1.35835 -4.9646,2.9868 -3.0519,1.93532 -4.1255,2.57087 -7.6802,4.54634 -5.0681,2.81664 -5.3105,2.91962 -11.4911,4.88326 -4.4129,1.40203 -6.6208,1.98122 -8.93135,2.34293 -2.55988,0.40073 -5.74211,0.67035 -7.13026,0.60412 -1.39411,-0.0665 -10.01067,-1.42623 -12.4812,-1.96956 -3.05746,-0.67241 -6.14706,-2.24629 -10.58206,-5.39065 -0.83372,-0.59109 -1.62947,-1.09388 -1.76831,-1.11733 -0.21338,-0.036 -0.32877,0.14709 -0.74518,1.18242 -1.4484,3.60102 -1.65171,4.57271 -1.12167,5.36121 0.4457,0.66299 4.19556,3.34873 6.03497,4.32233 0.84679,0.44823 2.23689,1.1207 3.08908,1.4944 0.85221,0.37368 1.68866,0.78377 1.85879,0.91131 0.32345,0.24244 2.68829,1.17168 4.85665,1.90837 1.3504,0.4588 4.06104,1.12815 4.83019,1.19277 0.25469,0.0214 1.05038,0.10352 1.76822,0.18253 z m 0.022,-9.59631 c 3.55115,0.29348 7.37729,0.0752 12.87043,-0.73415 7.099,-1.04596 13.5102,-3.44511 20.1225,-7.53012 0.8651,-0.53443 2.5054,-1.48836 3.6451,-2.11985 1.1398,-0.63148 3.2896,-1.96346 4.7775,-2.95995 4.8068,-3.21923 6.0027,-3.92306 7.7211,-4.54394 0.9269,-0.33493 3.6359,-1.54248 5.4975,-2.45057 0.37,-0.18051 1.5805,-0.5557 2.69,-0.83372 1.1095,-0.27804 2.4286,-0.61758 2.9314,-0.75451 l 0.9141,-0.24899 -0.5009,-0.21217 c -1.2794,-0.54191 -7.8238,-0.79761 -9.4367,-0.36868 -0.3248,0.0864 -0.9807,0.19071 -1.4574,0.23186 -1.2488,0.10781 -2.1127,0.28969 -4.9753,1.04745 -1.4004,0.3707 -2.8519,0.72132 -3.2255,0.77912 -0.3737,0.0578 -1.8983,0.56245 -3.3881,1.12145 -1.4899,0.55904 -2.764,1.00709 -2.8314,0.99571 -0.067,-0.0112 -0.5032,0.2341 -0.9683,0.54552 -0.4651,0.31141 -1.8016,1.04297 -2.97,1.62565 -1.1684,0.58269 -3.5427,1.77153 -5.2762,2.64184 -2.9176,1.46482 -3.3828,1.65109 -6.2596,2.50643 -5.3469,1.58976 -7.0635,1.84965 -11.49739,1.74059 -3.58208,-0.0881 -6.4474,-0.34514 -9.38429,-0.84179 -4.98534,-0.84308 -11.21267,-2.6671 -14.57525,-4.26928 -1.98854,-0.94748 -3.84175,-1.61893 -4.05324,-1.46855 -0.10655,0.0758 -0.1455,0.31091 -0.12264,0.74022 0.0184,0.34605 -0.0561,1.88146 -0.16554,3.41204 -0.10945,1.53056 -0.16396,3.01652 -0.1211,3.30211 0.0691,0.46048 0.14382,0.54782 0.66002,0.7718 0.32015,0.13889 0.91964,0.52106 1.33222,0.84928 0.41256,0.32819 1.38063,0.97488 2.15127,1.4371 5.68608,3.41033 10.6471,5.15436 15.89567,5.5881 z m -0.7159,-11.65713 c 5.4798,0.67039 8.41698,0.78425 12.46373,0.48311 3.8943,-0.28981 6.7881,-0.85217 8.8091,-1.7119 0.477,-0.20294 1.1094,-0.40307 1.4052,-0.44475 0.6818,-0.096 2.4001,-0.88764 6.9232,-3.1894 4.4631,-2.27123 6.1139,-3.04355 7.2518,-3.3926 0.4887,-0.14991 1.1395,-0.42864 1.4462,-0.61939 1.1513,-0.71588 7.6425,-2.4663 11.0796,-2.98774 3.6441,-0.55283 6.3042,-0.70982 8.4839,-0.5007 3.5748,0.34296 7.6853,1.17662 9.4563,1.91794 0.4434,0.18554 0.8577,0.29329 0.9301,0.24182 0.072,-0.0514 -0.092,-0.30842 -0.3701,-0.57676 -2.166,-2.09373 -6.1761,-3.78954 -10.8128,-4.57257 -3.5641,-0.60158 -4.2798,-0.55975 -12.5356,0.73748 -7.0024,1.10028 -9.5905,1.36425 -13.3112,1.35769 -2.3088,-0.004 -4.3463,-0.18374 -6.8086,-0.60043 -4.2775,-0.72388 -7.1398,-1.58922 -15.51067,-4.68951 -3.71424,-1.37565 -10.25555,-2.48923 -13.70019,-2.33232 -2.46755,0.11242 -5.24771,0.39543 -6.06947,0.61787 -0.42532,0.11511 -1.20941,0.28901 -1.74242,0.38644 -2.99141,0.54676 -8.03905,2.69496 -8.16622,3.47537 -0.0182,0.11597 0.14413,0.90494 0.36223,1.75351 0.21814,0.84857 0.5984,2.33211 0.84506,3.29679 0.24664,0.96466 0.50296,2.33034 0.56956,3.03484 0.17199,1.81893 0.35941,2.04867 2.73625,3.35388 1.49792,0.82257 4.21856,1.88595 6.66665,2.60576 1.70505,0.50129 4.05859,1.2251 5.29345,1.62796 0.93734,0.30575 1.14852,0.34145 4.30489,0.72794 z m -19.73533,-18.80559 c 0.46636,-0.25153 1.61302,-0.72875 2.54811,-1.06054 0.93509,-0.33179 1.89556,-0.71833 2.13436,-0.85899 0.23879,-0.14066 0.51157,-0.24268 0.60614,-0.22671 0.0946,0.0159 1.00124,-0.1607 2.01484,-0.39256 1.98261,-0.45357 5.3097,-0.94011 6.82233,-0.99769 2.31609,-0.0882 4.28397,0.0673 7.4035,0.58486 3.64133,0.60416 4.58032,0.88534 12.87888,3.8562 6.4509,2.30943 8.555,2.83253 13.1958,3.28066 3.0785,0.29726 5.8875,0.2148 5.3996,-0.15855 -0.089,-0.0678 -1.329,-0.35833 -2.7565,-0.64558 -6.4764,-1.3034 -9.3338,-2.75349 -18.6358,-9.45744 -1.39545,-1.00571 -2.89645,-2.02533 -3.33553,-2.26582 -0.43908,-0.24047 -0.88056,-0.55494 -0.98105,-0.69882 -0.1005,-0.14387 -0.44768,-0.4121 -0.77154,-0.59605 -0.32383,-0.18397 -0.91662,-0.53857 -1.31728,-0.78799 -1.59383,-0.99216 -2.76767,-1.61518 -4.55629,-2.41828 -1.55945,-0.70021 -2.23576,-0.92691 -4.06363,-1.36228 -6.44407,-1.53481 -11.41498,-1.21588 -15.17345,0.97351 -0.66595,0.38794 -1.50483,0.83736 -1.86414,0.9987 -1.37277,0.61641 -4.84785,4.16442 -5.42411,5.53793 -0.10212,0.24339 0.0663,0.58933 0.9511,1.95317 0.59135,0.91158 1.31416,2.15465 1.60625,2.76243 0.29207,0.60778 0.76212,1.40345 1.04453,1.76821 0.44962,0.58067 0.57024,0.66351 0.96973,0.66604 0.25091,0.002 0.83779,-0.20289 1.30415,-0.45441 z m -28.05438,-11.26124 c 2.27755,-0.0702 5.21198,-1.82526 7.00026,-4.18688 1.45336,-1.91932 2.35231,-4.60778 2.22151,-6.64387 -0.19737,-3.07304 -1.9729,-5.61562 -4.81983,-6.90211 -0.88142,-0.39831 -3.69727,-0.95306 -4.82389,-0.95037 -1.26992,0.003 -2.73396,1.02411 -3.65317,2.54786 -0.55279,0.91635 -0.91276,2.88933 -0.67573,3.70358 0.31123,1.06905 2.11515,2.61131 3.41685,2.92121 0.86515,0.206 1.35414,0.11687 1.97961,-0.36079 0.7602,-0.58058 0.81506,-2.05813 0.10954,-2.95047 -0.32102,-0.40604 -0.58398,-0.96376 -0.63576,-1.34845 -0.0591,-0.43879 0.31406,-0.34598 0.96452,0.23992 1.49147,1.34343 1.91954,3.33901 0.93634,4.36507 -0.45886,0.47887 -2.36083,1.38152 -3.06267,1.45348 -0.63625,0.0652 -1.22763,-0.19862 -2.42176,-1.08037 -1.40654,-1.03863 -2.23428,-2.18043 -2.36726,-3.26549 -0.11137,-0.90871 0.0993,-2.45001 0.54828,-4.01147 l 0.27917,-0.9709 -0.33231,-0.32294 c -0.18277,-0.17762 -0.70591,-0.61358 -1.16253,-0.96879 -1.18515,-0.92195 -2.37059,-2.20679 -3.66612,-3.97351 -2.5183,-3.43423 -2.87073,-4.61252 -4.99062,-16.68515 -0.94568,-5.38561 -2.28343,-11.70283 -3.27386,-15.46013 -0.45728,-1.73475 -1.32918,-4.15149 -1.92194,-5.32725 -0.50682,-1.00531 -1.47382,-3.28633 -1.45085,-3.42238 0.007,-0.0427 -0.3461,-0.7521 -0.78515,-1.57637 -0.43904,-0.82426 -1.02086,-1.98908 -1.29294,-2.58847 -0.71733,-1.58029 -2.05516,-3.80583 -2.98455,-4.96495 -1.75112,-2.18397 -3.7159,-4.08446 -4.32532,-4.18383 -0.17728,-0.0289 -0.64777,0.58842 -1.9707,2.58566 l -1.73784,2.62362 0.28905,0.30855 c 0.75128,0.80196 2.66933,3.08996 3.69499,4.40766 0.62601,0.80428 1.27003,1.53965 1.43114,1.63417 0.17114,0.10039 0.30527,0.3293 0.3226,0.55057 0.0163,0.2083 0.30242,0.75894 0.6358,1.22363 1.78107,2.48264 4.48559,9.73374 5.72083,15.33814 0.73097,3.31643 0.98902,5.74055 1.17588,11.0461 0.37449,10.63308 1.19659,16.98373 2.90954,22.47598 1.19321,3.82582 2.54268,6.5626 4.06375,8.24141 2.62903,2.90175 4.7369,4.41309 7.45342,5.34407 1.16583,0.39956 6.055,1.1696 7.20172,1.13426 z m -3.12887,-19.03644 c 0.33192,-0.10088 0.8557,-0.34104 1.16396,-0.53369 l 0.56048,-0.35028 -1.23525,-1.87301 c -3.76168,-5.70387 -4.82772,-9.34878 -7.32334,-25.03938 -1.17354,-7.37834 -2.26557,-12.37824 -3.6806,-16.85176 -1.12466,-3.55555 -3.90729,-8.8578 -6.76829,-12.89685 -1.18144,-1.66791 -2.63649,-3.37034 -3.29158,-3.85119 -0.20715,-0.15206 -0.54977,-0.5028 -0.76136,-0.77941 -0.2116,-0.27662 -0.53331,-0.56519 -0.71491,-0.64127 -0.1816,-0.0761 -0.60927,-0.40406 -0.95037,-0.72887 -0.74308,-0.70758 -1.09409,-0.92853 -1.38256,-0.8703 -0.34734,0.0701 -0.88251,0.89256 -1.99414,3.06455 -0.87063,1.7011 -1.02453,2.08529 -0.93134,2.32502 0.0614,0.15796 0.82607,1.03818 1.69928,1.95605 3.92985,4.13089 7.30691,10.08371 9.96669,17.56856 1.22913,3.45889 2.0575,6.54503 2.9107,10.84404 0.25762,1.29801 0.73698,3.52236 1.06527,4.94299 0.32828,1.42064 0.87078,4.28962 1.20555,6.37551 0.63901,3.9816 1.50396,7.51894 2.27706,9.31235 1.68597,3.91107 5.30453,8.09123 7.08478,8.18437 0.27307,0.0143 0.76806,-0.0566 1.09997,-0.15743 z m 12.16992,0.95127 c 1.61744,-0.54046 3.03174,-1.97738 3.7956,-3.85632 0.52206,-1.28419 0.85277,-3.8357 0.68613,-5.29366 -0.34119,-2.98508 -2.0545,-5.54156 -4.70584,-7.02176 -0.94341,-0.52669 -1.21072,-0.61511 -2.49302,-0.82462 -1.86832,-0.30526 -2.75441,-0.15139 -3.89541,0.67644 -1.01802,0.73864 -1.53727,1.70013 -1.81877,3.36786 -0.28896,1.71195 -0.009,3.32139 0.79783,4.58717 0.5168,0.81073 1.11131,1.22818 2.28885,1.60717 1.40299,0.45155 1.87246,0.41171 2.47516,-0.21003 0.61655,-0.63601 0.69949,-1.10555 0.32785,-1.8562 -0.28581,-0.57732 -0.86132,-1.25654 -1.09861,-1.29659 -0.22846,-0.0386 -0.60464,-0.74986 -0.51895,-0.98131 0.11672,-0.31525 0.8197,-0.25479 1.3085,0.11253 0.55063,0.4138 1.30228,1.56265 1.55636,2.37876 0.18187,0.58421 0.18702,0.80797 0.0297,1.28919 -0.51932,1.58798 -2.09472,2.52142 -3.80108,2.25219 -1.59902,-0.2523 -3.74624,-2.40226 -4.40388,-4.40949 -0.43999,-1.34296 -0.49473,-2.34115 -0.22967,-4.18917 0.2588,-1.80441 0.2838,-1.70768 -0.97332,-3.76341 -0.89141,-1.45771 -1.61838,-3.21944 -2.31259,-5.60436 -0.75514,-2.59423 -0.81475,-3.09304 -1.54645,-12.9405 -0.30575,-4.11481 -0.40585,-4.91685 -1.02341,-8.19956 -0.49919,-2.65348 -2.31033,-8.57261 -3.66433,-11.97568 -1.17943,-2.96432 -3.43828,-6.96066 -5.72072,-10.12107 -2.91601,-4.03769 -7.12203,-8.23209 -8.27769,-8.25483 -0.4078,-0.008 -0.63728,0.48915 -1.73924,3.76809 -1.08607,3.2317 -1.22252,3.83734 -0.96298,4.27435 0.27662,0.46576 0.93566,1.10813 1.37979,1.34489 1.011,0.53894 4.42754,4.28594 6.18062,6.77842 1.92441,2.73606 4.93225,8.1567 5.86456,10.5689 0.83185,2.1523 2.22606,6.91423 2.77899,9.49166 0.30068,1.40159 0.89005,4.71954 1.30971,7.37323 1.38253,8.74217 2.24757,12.95177 3.57033,17.37442 1.27562,4.26503 2.32131,6.49509 4.31226,9.19641 1.34756,1.82838 1.73483,2.09185 3.80459,2.58854 2.51308,0.60307 3.81841,1.15414 4.42463,1.86794 0.30753,0.36212 0.34751,0.37487 0.88364,0.28175 0.30884,-0.0536 0.94376,-0.22525 1.41091,-0.38135 z m -102.0823,-38.00793 c 2.51367,0.19193 4.47132,0.20153 6.16691,0.0303 2.06356,-0.20846 3.92181,-0.54626 4.53325,-0.82407 0.25979,-0.11803 1.26717,-0.45212 2.23861,-0.74242 2.06742,-0.6178 5.53052,-2.12987 7.52249,-3.28448 3.01678,-1.74864 6.61859,-3.96 9.14087,-5.61212 6.29021,-4.12015 10.54389,-6.63395 12.40856,-7.33308 0.49191,-0.18444 1.24161,-0.47634 1.66599,-0.64867 l 0.7716,-0.31334 0.0577,-0.7953 c 0.0317,-0.43742 0.19927,-1.8797 0.37232,-3.20507 l 0.31462,-2.40977 -1.13654,-0.10244 c -4.42079,-0.3985 -7.7483,-0.14289 -11.21167,0.86122 -5.25581,1.52379 -9.9557,4.20324 -16.80083,9.57833 -5.79353,4.54933 -9.84568,6.94479 -14.11426,8.34374 -2.0149,0.66036 -3.4711,0.87919 -6.32451,0.95045 -3.28121,0.0819 -5.16324,5.2e-4 -7.07548,-0.30624 -0.87648,-0.14059 -1.74533,-0.23969 -1.93076,-0.22022 -0.32794,0.0344 -0.32229,0.0513 0.20682,0.61758 1.59737,1.70964 5.25007,3.84492 7.7732,4.54402 0.99485,0.27565 4.05087,0.76701 5.42111,0.87163 z m -7.28414,-6.52737 c 2.13817,0.15361 3.43154,0.15789 3.69086,0.0122 0.0834,-0.0469 0.62373,-0.13002 1.20068,-0.18477 3.29504,-0.31269 6.97228,-1.60698 10.09391,-3.55277 2.07447,-1.29307 6.84352,-4.68239 9.59502,-6.81908 2.75473,-2.1392 4.69316,-3.41137 8.08024,-5.30294 3.27078,-1.82662 4.17723,-2.23118 6.52359,-2.9116 3.71866,-1.07837 7.77022,-1.49307 12.12254,-1.24081 l 1.42574,0.0826 0.13585,-0.39505 c 0.36185,-1.05227 1.13944,-3.95075 1.2748,-4.75187 l 0.15216,-0.90069 -1.74323,-0.21381 c -2.44011,-0.29929 -5.14786,-0.40209 -6.36335,-0.2416 -0.56675,0.0748 -1.51708,0.15741 -2.11186,0.18349 -3.92466,0.17215 -12.04581,2.13384 -16.78528,4.05455 -3.24573,1.31535 -6.10258,2.75278 -11.21696,5.64383 -3.439,1.94399 -5.32885,2.92819 -5.98307,3.11587 -0.50195,0.14399 -0.63657,0.36308 -0.80098,1.30353 -0.17169,0.98213 -0.65248,2.01035 -1.28312,2.74412 -0.73473,0.85488 -3.851,3.00014 -4.74235,3.26465 -1.04342,0.30965 -1.97959,0.35174 -3.21694,0.14464 -2.00582,-0.33573 -3.61069,-1.42889 -4.28307,-2.91741 -0.80295,-1.77755 -0.28978,-3.40906 1.43814,-4.57224 0.89256,-0.60084 2.58531,-1.14561 3.39708,-1.09326 0.75157,0.0485 1.53286,0.64718 1.93972,1.48644 0.24383,0.50295 0.27604,0.74202 0.17568,1.30384 -0.0746,0.41778 -0.23222,0.80597 -0.40128,0.98845 -0.31374,0.33863 -1.23014,0.48641 -1.71052,0.27584 -0.44823,-0.19648 -0.24977,-0.65874 0.36297,-0.84542 0.63211,-0.19258 0.74191,-0.34922 0.65421,-0.93321 -0.0565,-0.37643 -0.1717,-0.53353 -0.52841,-0.72089 -0.82682,-0.43427 -2.87833,-0.0457 -3.54229,0.67098 -0.39391,0.42516 -0.62066,1.83361 -0.40989,2.54593 0.086,0.29073 0.34735,0.79709 0.58073,1.12524 0.56439,0.79361 1.26866,1.09009 3.1187,1.31288 1.64224,0.19778 2.20925,0.0633 3.88867,-0.9221 1.91874,-1.12585 2.68904,-2.28586 3.08107,-4.63978 0.27595,-1.65699 0.16216,-2.12787 -0.81838,-3.38653 -0.79332,-1.01835 -1.99497,-1.96681 -3.21083,-2.53431 -0.98751,-0.46092 -4.85174,-1.24795 -5.92898,-1.20756 -0.90695,0.034 -2.9034,0.59736 -4.30082,1.21359 -2.21395,0.9763 -4.84497,3.43886 -5.72098,5.3547 -0.43533,0.95205 -0.74838,3.05934 -0.64343,4.33123 0.10865,1.31666 0.5594,2.96255 1.04311,3.80882 0.89152,1.55974 3.92306,3.78588 6.07852,4.46361 0.90984,0.28607 3.79575,0.72039 5.692,0.85662 z m -14.16372,-12.89109 c 0.13105,-0.10702 0.47959,-0.66171 0.77453,-1.23264 1.01125,-1.9575 2.12139,-3.18076 4.08818,-4.50476 2.06389,-1.38937 5.27796,-2.6133 6.90977,-2.63126 1.01787,-0.0112 5.12461,0.68045 6.20577,1.04517 1.58696,0.53534 3.1326,1.84288 4.78452,4.04746 0.55716,0.74356 1.07817,1.36292 1.15781,1.37636 0.24658,0.0416 1.85912,-0.77617 7.52948,-3.81856 7.02654,-3.77003 8.24435,-4.38066 9.97847,-5.00332 2.93466,-1.05374 9.86177,-2.92766 10.45329,-2.82782 0.083,0.014 1.27329,-0.14796 2.64515,-0.35993 4.00358,-0.6186 7.43635,-0.80475 11.42724,-0.61967 1.24479,0.0577 2.49294,0.0832 2.77367,0.0566 0.60546,-0.0573 0.87718,-0.36941 1.38784,-1.5939 0.1948,-0.46713 0.643,-1.33579 0.996,-1.93037 0.35299,-0.59457 0.6599,-1.1883 0.68203,-1.3194 0.11513,-0.68205 -1.27698,-1.28566 -4.03714,-1.75048 -3.45483,-0.58179 -8.62111,-0.33594 -13.75726,0.65468 -2.36595,0.45633 -5.35507,1.20457 -6.04426,1.51299 -1.21462,0.54357 -6.48279,3.37727 -7.80734,4.1995 -1.7875,1.1096 -3.05618,1.72947 -4.72475,2.3085 -2.38347,0.82711 -3.12927,1.01441 -4.78362,1.2014 -2.2032,0.24901 -3.61561,0.20235 -5.41219,-0.17879 -2.52606,-0.53591 -3.99459,-1.50877 -5.88329,-3.89754 l -1.02978,-1.30244 -1.29506,0.36987 c -1.1959,0.34155 -1.37496,0.35638 -2.33871,0.19371 -0.88898,-0.15005 -1.14933,-0.25208 -1.75658,-0.6884 -1.48337,-1.06583 -2.0588,-2.28361 -1.71514,-3.62975 0.34786,-1.36258 1.33701,-1.87386 3.05859,-1.58095 0.56973,0.097 1.05123,0.24701 1.15307,0.35939 0.52288,0.57705 0.60892,1.59873 0.15673,1.86096 -0.36845,0.21366 -0.7955,-0.0208 -0.86634,-0.47554 -0.10036,-0.64425 -0.19172,-0.77031 -0.60931,-0.8408 -0.55939,-0.0944 -1.47068,0.23105 -1.83943,0.65695 -0.29185,0.3371 -0.30793,0.40631 -0.20124,0.8663 0.1651,0.71182 0.68244,1.40346 1.3931,1.86246 0.51245,0.33099 0.79189,0.41678 1.69732,0.52117 0.91379,0.10534 1.19226,0.0808 1.7745,-0.15613 0.97345,-0.39618 1.4016,-0.88611 1.55174,-1.77565 0.0665,-0.39383 0.27618,-1.21891 0.46601,-1.83351 0.34003,-1.10088 0.34169,-1.12915 0.11147,-1.90688 -0.55609,-1.87856 -2.55503,-3.19897 -5.02367,-3.3184 -3.73659,-0.18078 -7.61305,2.30653 -7.37963,4.7351 0.0441,0.45864 0.24031,0.78026 1.11447,1.82658 0.58353,0.69846 1.16715,1.51078 1.29694,1.80517 0.33669,0.76367 0.40605,1.98229 0.18678,3.28136 -0.48269,2.85975 -2.38232,4.81958 -5.1585,5.32198 -1.21303,0.21952 -2.81062,-0.0705 -3.68883,-0.66962 -0.72963,-0.49777 -1.37183,-1.30299 -1.61968,-2.03084 -0.21633,-0.6353 0.06,-2.27175 0.47294,-2.80098 0.88256,-1.13103 2.16891,-1.67829 3.44425,-1.46531 0.55572,0.0929 0.80819,0.20548 1.04503,0.46639 0.78553,0.86539 0.85136,3.20675 0.0865,3.07765 -0.23028,-0.0389 -0.46221,-0.61869 -0.518,-1.295 -0.0587,-0.711 -0.27122,-0.91823 -1.07672,-1.04966 -1.45849,-0.23798 -2.29037,0.42069 -2.47026,1.95593 -0.0894,0.76283 -0.0611,0.94622 0.20697,1.34075 0.48489,0.7137 1.2348,1.08744 2.66699,1.32918 1.54084,0.26007 1.98175,0.14961 3.40263,-0.85246 0.8295,-0.585 1.18858,-0.95325 1.81734,-1.86376 1.14824,-1.66276 1.12836,-1.55895 0.61069,-3.19013 -0.54071,-1.70379 -0.96842,-2.29353 -2.38702,-3.29131 -0.95866,-0.67427 -1.10849,-0.73803 -2.14001,-0.91051 -1.01009,-0.16889 -1.23192,-0.15588 -2.48319,0.14567 -1.89829,0.45749 -2.97516,1.01337 -5.5009,2.83956 l -2.17776,1.57458 -0.40867,2.42722 c -0.4778,2.83777 -0.51384,3.84302 -0.18124,5.05567 0.76751,2.7984 3.02744,6.08402 5.46119,7.93981 0.75592,0.57641 1.01637,0.64999 1.3465,0.38038 z m 29.87598,-12.23107 c 1.3849,-0.11488 3.73735,-0.65185 5.27204,-1.2034 1.18894,-0.42729 9.66488,-5.22992 10.0273,-5.68166 0.22623,-0.282 0.21937,-0.34454 -0.10548,-0.96133 -0.19109,-0.36284 -0.51952,-1.20003 -0.72984,-1.86043 -0.5606,-1.76027 -0.54141,-1.73904 -1.40693,-1.55631 -1.66291,0.3511 -5.03855,1.42706 -6.17945,1.96967 -2.04485,0.97252 -2.35497,1.21405 -2.70387,2.1058 -0.56582,1.44618 -1.61442,2.33832 -3.27074,2.78269 -2.57932,0.69202 -5.50154,-0.46013 -5.86556,-2.31263 -0.20497,-1.04309 0.48754,-2.54233 1.43102,-3.09804 1.24154,-0.73127 2.93487,-0.28706 3.30456,0.86689 0.16629,0.51904 0.0171,1.3857 -0.26684,1.55037 -0.32317,0.18741 -0.55638,-0.0103 -0.75413,-0.63949 -0.2647,-0.84219 -0.87053,-1.07701 -1.62785,-0.63095 -0.88963,0.524 -1.00561,1.9095 -0.21807,2.60513 0.36557,0.32292 0.60738,0.41009 1.60456,0.5784 0.99217,0.16747 1.29511,0.16451 1.95486,-0.019 0.90371,-0.25143 1.79714,-0.76755 2.15654,-1.24578 0.58918,-0.78401 0.50236,-2.48547 -0.18333,-3.59246 -1.39501,-2.25214 -4.49145,-3.24242 -7.42252,-2.37381 -0.92891,0.27527 -1.36751,0.50674 -2.28308,1.20489 -0.6233,0.47528 -1.39682,1.17353 -1.71893,1.55166 l -0.58566,0.68751 -0.2722,1.70218 c -0.22957,1.43562 -0.24605,1.83159 -0.10526,2.52862 0.63553,3.14621 5.15965,5.43879 9.94886,5.04152 z m 17.84597,-7.58376 c 1.02518,-0.77836 8.60219,-2.31168 11.0695,-2.24008 1.05408,0.0306 4.23464,-0.2753 4.44923,-0.4279 0.12888,-0.0917 -0.26966,-1.84807 -0.61127,-2.69392 -0.11767,-0.29135 -0.35134,-0.66287 -0.51927,-0.8256 -0.16794,-0.16274 -0.51538,-0.58794 -0.7721,-0.94491 -0.68596,-0.9538 -1.05917,-0.9781 -2.58793,-0.16846 -1.95224,1.03391 -2.51082,1.28419 -3.55245,1.59178 -0.54367,0.16054 -1.27836,0.38998 -1.63265,0.50986 -1.04641,0.35407 -3.20528,0.37384 -5.23731,0.048 -0.96999,-0.15555 -2.06304,-0.38685 -2.42901,-0.51399 l -0.6654,-0.23115 -0.0707,0.41893 c -0.10149,0.60129 0.2634,2.78966 0.65849,3.94916 0.33201,0.97439 0.86619,1.6842 1.32585,1.76178 0.12039,0.0203 0.37915,-0.0847 0.57503,-0.23346 z m 24.74379,-1.4302 c 0.41458,-0.34892 2.04913,-2.58746 2.47762,-3.3931 0.18556,-0.3489 0.1792,-0.40152 -0.0623,-0.51602 -0.14794,-0.0701 -1.79575,-0.45604 -3.6618,-0.85758 -2.69709,-0.58037 -3.87468,-0.77598 -5.74266,-0.95391 -1.29241,-0.12311 -2.39982,-0.19073 -2.46091,-0.15026 -0.0611,0.0405 0.0456,0.41931 0.2371,0.8419 0.19149,0.42259 0.53951,1.42064 0.77337,2.2179 l 0.4252,1.44956 3.29611,0.64631 c 1.81285,0.35547 3.42211,0.72336 3.57612,0.81752 0.4787,0.29269 0.69601,0.27322 1.14219,-0.10232 z m -21.52857,-3.92775 c 1.33872,-0.0124 5.13045,-1.09377 5.99534,-1.70983 0.72867,-0.51903 1.53562,-1.37965 1.94382,-2.07312 0.29419,-0.49978 0.31179,-0.6012 0.25195,-1.45217 -0.0797,-1.13411 -0.72631,-3.34325 -1.13689,-3.88439 -0.1685,-0.22207 -0.52806,-0.70964 -0.79903,-1.08348 -0.76181,-1.05101 -1.16546,-1.09051 -2.35858,-0.23078 -1.11826,0.80578 -2.4864,1.21806 -4.60758,1.38847 -2.13866,0.17182 -4.1285,0.025 -5.68411,-0.41939 -0.67167,-0.19188 -1.40847,-0.38048 -1.63734,-0.41911 l -0.41613,-0.0702 -0.14858,1.41729 c -0.0817,0.77951 -0.13455,1.64874 -0.11741,1.93162 0.0793,1.30879 1.66323,4.0113 2.77549,4.7357 0.32758,0.21336 0.70411,0.52658 0.83672,0.69605 0.13262,0.16947 0.42797,0.38705 0.65635,0.4835 0.68194,0.28802 3.33787,0.70013 4.44598,0.68987 z m 15.08928,-3.0685 c 0.46797,-0.0232 0.92879,-0.0976 1.02403,-0.16529 0.20883,-0.14852 0.1171,-3.78271 -0.13667,-5.41519 -0.33163,-2.1333 -1.23391,-3.79534 -2.61054,-4.80873 l -0.79053,-0.58194 -1.09564,0.48104 c -1.28093,0.56239 -2.12683,1.22706 -2.97522,2.3378 -0.68817,0.90097 -0.68852,0.75289 0.006,2.36947 0.55491,1.29244 0.99668,2.7761 1.10198,3.70094 0.0478,0.41993 0.21196,0.95426 0.36477,1.18739 l 0.27783,0.42388 1.99178,0.25639 c 1.09548,0.14101 2.37467,0.23742 2.84264,0.21424 z m -16.57075,-6.58735 c 2.83149,-0.386 5.6665,-1.77458 5.85066,-2.86565 0.0783,-0.46396 -0.33903,-2.02554 -1.01155,-3.78498 -0.59945,-1.56825 -1.63288,-3.06687 -2.17836,-3.15895 -0.19073,-0.0322 -1.1885,0.21852 -2.21725,0.55714 -2.94104,0.96805 -4.52006,1.14228 -7.63764,0.84273 -0.90998,-0.0874 -1.63929,-0.0934 -1.77537,-0.0145 -0.63866,0.37036 -0.43375,2.91597 0.35632,4.42669 0.62957,1.20382 1.83642,2.13752 4.43303,3.42971 1.28713,0.64053 2.46892,0.80105 4.18016,0.56777 z m -5.21116,-9.12862 c 1.84323,0.0688 2.90515,-0.0512 4.42114,-0.49949 1.86337,-0.551 2.21963,-0.71319 2.55926,-1.16512 0.23193,-0.30862 0.26424,-0.45833 0.21435,-0.99309 -0.12327,-1.32119 -0.78891,-3.01696 -1.7743,-4.52014 -0.75224,-1.14753 -0.9582,-1.25515 -2.00464,-1.04742 -0.48014,0.0953 -1.72859,0.41325 -2.77434,0.70653 l -1.90136,0.53323 -2.44294,-0.43146 -2.44294,-0.43146 -0.0682,0.41014 c -0.28085,1.68864 0.11175,3.35894 1.12409,4.78242 0.74938,1.05372 1.52378,1.68552 2.54719,2.07811 1.51731,0.58207 1.29318,0.53114 2.54271,0.57776 z m -1.19891,-8.14168 c 1.42573,-0.0658 4.15074,-0.89047 4.41377,-1.33569 0.44709,-0.75676 -0.86713,-4.88509 -2.04929,-6.43736 -0.98136,-1.28861 -1.42383,-1.41877 -3.22294,-0.94812 -1.78927,0.46808 -2.54482,0.523 -4.33071,0.31479 l -1.61192,-0.18793 -0.13741,0.8141 c -0.39733,2.35396 0.81966,5.41276 2.65912,6.6835 1.23554,0.85355 2.50422,1.17868 4.27938,1.09671 z m -3.35309,-9.40532 c 1.10597,0.0341 2.46708,-0.24112 2.90636,-0.58773 0.56716,-0.44751 0.39543,-1.3719 -0.76622,-4.12445 -0.70688,-1.67496 -1.23952,-2.75333 -1.55425,-3.14674 -0.24713,-0.3089 -0.17195,-0.29755 -2.31038,-0.34872 -0.51449,-0.0123 -1.60286,-0.13306 -2.4186,-0.26833 l -1.48317,-0.24596 -0.17014,1.34657 c -0.14537,1.15056 -0.13295,1.50307 0.0853,2.42165 0.31456,1.32384 1.06045,2.9186 1.69339,3.62057 0.80381,0.89148 1.94179,1.26908 4.01769,1.33314 z m -1.26581,-9.13649 c 0.1805,-0.006 0.31994,-0.10695 0.3437,-0.24772 0.0844,-0.4998 -2.72436,-7.61894 -3.81604,-9.67235 -0.6638,-1.24858 -1.44927,-2.42232 -1.80551,-2.69801 -0.27565,-0.21332 -0.33678,-0.22322 -0.46895,-0.0759 -0.23804,0.26532 -0.55824,2.42722 -0.55121,3.72155 0.0144,2.64608 1.32574,7.36404 2.23862,8.05408 0.59386,0.44888 2.85871,0.96126 4.05939,0.91834 z"
     id="path4495"
     inkscape:connector-curvature="0" />
</svg>
