G04 #@! TF.GenerationSoftware,KiCad,Pcbnew,(5.0.0)*
G04 #@! TF.CreationDate,2019-01-07T22:48:05+01:00*
G04 #@! TF.ProjectId,panel,70616E656C2E6B696361645F70636200,rev?*
G04 #@! TF.SameCoordinates,Original*
G04 #@! TF.FileFunction,Profile,NP*
%FSLAX46Y46*%
G04 Gerber Fmt 4.6, Leading zero omitted, Abs format (unit mm)*
G04 Created by KiCad (PCBNEW (5.0.0)) date 01/07/19 22:48:05*
%MOMM*%
%LPD*%
G01*
G04 APERTURE LIST*
%ADD10C,0.150000*%
%ADD11C,0.300000*%
G04 APERTURE END LIST*
D10*
X85000000Y-69600000D02*
X195000000Y-69600000D01*
X85000000Y-140100000D02*
X195000000Y-140100000D01*
X187950000Y-60000000D02*
X187950000Y-150000000D01*
X139900000Y-60000000D02*
X139900000Y-150000000D01*
X91850000Y-60000000D02*
X91850000Y-150000000D01*
X188150000Y-81900000D02*
X175450000Y-69200000D01*
X188150000Y-107200000D02*
X188150000Y-81900000D01*
X188150000Y-110200000D02*
X188150000Y-113900000D01*
X184050000Y-118000000D02*
X188150000Y-113900000D01*
X184050000Y-130000000D02*
X184050000Y-118000000D01*
X173550000Y-140500000D02*
X184050000Y-130000000D01*
X91650000Y-81800000D02*
X104250396Y-69199604D01*
X91650000Y-107200000D02*
X91650000Y-81800000D01*
X190000000Y-145000000D02*
X190000000Y-65000000D01*
X90000000Y-145000000D02*
X90000000Y-65000000D01*
X96050000Y-120000000D02*
X96050000Y-132000000D01*
X91650000Y-115600000D02*
X96050000Y-120000000D01*
X96050000Y-132000000D02*
X104550000Y-140500000D01*
X91650000Y-110200000D02*
X91650000Y-115600000D01*
X92050000Y-107200000D02*
G75*
G02X91650000Y-107200000I-200000J0D01*
G01*
X91650000Y-110200000D02*
G75*
G02X92050000Y-110200000I200000J0D01*
G01*
X188150000Y-107200000D02*
G75*
G02X187750000Y-107200000I-200000J0D01*
G01*
X187750000Y-110200000D02*
G75*
G02X188150000Y-110200000I200000J0D01*
G01*
X166350000Y-140500000D02*
X173550000Y-140500000D01*
X113850000Y-140500000D02*
X104550000Y-140500000D01*
X125050000Y-140500000D02*
X118350000Y-140500000D01*
X155050000Y-140500000D02*
X161850000Y-140500000D01*
X148050000Y-136000000D02*
X155050000Y-140500000D01*
X132050000Y-136000000D02*
X125050000Y-140500000D01*
X136050000Y-131000000D02*
X132050000Y-136000000D01*
X144050000Y-131000000D02*
X148050000Y-136000000D01*
X136050000Y-131000000D02*
X144050000Y-131000000D01*
X166350000Y-140500000D02*
G75*
G02X166350000Y-139700000I0J400000D01*
G01*
X161850000Y-139700000D02*
G75*
G02X161850000Y-140500000I0J-400000D01*
G01*
X113850000Y-139700000D02*
G75*
G02X113850000Y-140500000I0J-400000D01*
G01*
X118350000Y-140500000D02*
G75*
G02X118350000Y-139700000I0J400000D01*
G01*
X140150000Y-107000000D02*
G75*
G02X139650000Y-107000000I-250000J0D01*
G01*
X139650000Y-110400000D02*
G75*
G02X140150000Y-110400000I250000J0D01*
G01*
X166750000Y-70000000D02*
G75*
G02X166750000Y-69200000I0J400000D01*
G01*
X161450000Y-69200000D02*
G75*
G02X161450000Y-70000000I0J-400000D01*
G01*
X90000000Y-145000000D02*
X190000000Y-145000000D01*
X118650000Y-70000000D02*
G75*
G02X118650000Y-69200000I0J400000D01*
G01*
X113450000Y-69200000D02*
G75*
G02X113450000Y-70000000I0J-400000D01*
G01*
X150050000Y-71000000D02*
X154550000Y-69200000D01*
X130050000Y-71000000D02*
X123050000Y-69200000D01*
X143050000Y-79000000D02*
X150050000Y-71000000D01*
X137050000Y-79000000D02*
X143050000Y-79000000D01*
X130050000Y-71000000D02*
X137050000Y-79000000D01*
X113450000Y-69200000D02*
X104250000Y-69200000D01*
X166750000Y-69200000D02*
X175450000Y-69200000D01*
X90000000Y-65000000D02*
X190000000Y-65000000D01*
X161450000Y-69200000D02*
X154550000Y-69200000D01*
X118650000Y-69200000D02*
X123050000Y-69200000D01*
X154150000Y-101700000D02*
G75*
G03X154150000Y-101700000I-900000J0D01*
G01*
X175650000Y-101700000D02*
G75*
G03X175650000Y-101700000I-900000J0D01*
G01*
D11*
X187750000Y-110200000D02*
X187288336Y-111835686D01*
X175323274Y-72640315D02*
X177975479Y-74147250D01*
X169898311Y-70651161D02*
X172731347Y-71495044D01*
X185495085Y-114337200D02*
X184771757Y-114894765D01*
X181381153Y-118059327D02*
X181215389Y-119053906D01*
X181620424Y-77755861D02*
X183453195Y-80142723D01*
X184771757Y-114894765D02*
X183942942Y-115316706D01*
X181019489Y-125247408D02*
X180974280Y-125970736D01*
X185712189Y-84575469D02*
X186479396Y-87047577D01*
X186479396Y-87047577D02*
X186862997Y-88965592D01*
X180687963Y-128020167D02*
X180507131Y-128999676D01*
X179723525Y-130913481D02*
X179271445Y-131727225D01*
X181908579Y-116205799D02*
X181607192Y-117155166D01*
X166750000Y-70000000D02*
X169898311Y-70651161D01*
X185413832Y-100686793D02*
X185328586Y-102221204D01*
X185328586Y-102221204D02*
X186095793Y-103329390D01*
X180130396Y-129949043D02*
X179723525Y-130913481D01*
X187033489Y-91522945D02*
X186735132Y-94506523D01*
X186700633Y-112996027D02*
X186097859Y-113719356D01*
X186735132Y-94506523D02*
X186181039Y-97149121D01*
X177975479Y-74147250D02*
X180024912Y-76076126D01*
X186777754Y-104778558D02*
X187750000Y-107200000D01*
X186181039Y-97149121D02*
X185584321Y-99280249D01*
X181607192Y-117155166D02*
X181381153Y-118059327D01*
X181215389Y-119053906D02*
X181079766Y-121284169D01*
X185584321Y-99280249D02*
X185413832Y-100686793D01*
X181079766Y-121284169D02*
X181049628Y-123589780D01*
X181049628Y-123589780D02*
X181019489Y-125247408D01*
X177342566Y-134319155D02*
X176543893Y-135087690D01*
X180974280Y-125970736D02*
X180898934Y-126889965D01*
X180898934Y-126889965D02*
X180687963Y-128020167D01*
X180507131Y-128999676D02*
X180130396Y-129949043D01*
X172731347Y-71495044D02*
X175323274Y-72640315D01*
X183453195Y-80142723D02*
X184689249Y-82273851D01*
X178804294Y-132525902D02*
X178156311Y-133399924D01*
X181998995Y-116070173D02*
X181908579Y-116205799D01*
X183942942Y-115316706D02*
X183083988Y-115708509D01*
X174645155Y-136579557D02*
X173801272Y-137106983D01*
X186095793Y-103329390D02*
X186777754Y-104778558D01*
X176543893Y-135087690D02*
X175684939Y-135841158D01*
X180024912Y-76076126D02*
X181620424Y-77755861D01*
X179271445Y-131727225D02*
X178804294Y-132525902D01*
X175684939Y-135841158D02*
X174645155Y-136579557D01*
X183083988Y-115708509D02*
X181998995Y-116070173D01*
X187288336Y-111835686D02*
X186700633Y-112996027D01*
X178156311Y-133399924D02*
X177342566Y-134319155D01*
X140618557Y-112106935D02*
X140407586Y-111534300D01*
X146420245Y-77477576D02*
X147294267Y-76528207D01*
X140950072Y-89246736D02*
X141115836Y-88116535D01*
X140250000Y-106600000D02*
X140543211Y-105717533D01*
X143120057Y-82375113D02*
X143737902Y-81259982D01*
X145817482Y-116024967D02*
X144627002Y-115693441D01*
X142622770Y-83354621D02*
X143120057Y-82375113D01*
X144943449Y-79361244D02*
X145621571Y-78442014D01*
X142441949Y-102070749D02*
X142411810Y-101392630D01*
X147294267Y-76528207D02*
X148032666Y-75819947D01*
X150172513Y-74102041D02*
X151317783Y-73363643D01*
X146420255Y-118255230D02*
X146164078Y-117215443D01*
X142110423Y-114201575D02*
X141628204Y-113719356D01*
X142306313Y-100066528D02*
X142155619Y-99207574D01*
X140211686Y-110931526D02*
X140150000Y-110400000D01*
X149012172Y-74991133D02*
X150172513Y-74102041D01*
X186097859Y-113719356D02*
X185495085Y-114337200D01*
X186862997Y-88965592D02*
X187033489Y-91522945D01*
X184689249Y-82273851D02*
X185712189Y-84575469D01*
X140407586Y-111534300D02*
X140211686Y-110931526D01*
X142411810Y-101392630D02*
X142396729Y-100744647D01*
X141688471Y-97218420D02*
X141402152Y-96133428D01*
X141402152Y-96133428D02*
X141236391Y-95244336D01*
X141236391Y-95244336D02*
X141055558Y-94355245D01*
X144627002Y-115693441D02*
X143722842Y-115316706D01*
X143195416Y-115015319D02*
X142592642Y-114608448D01*
X143737902Y-81259982D02*
X144385882Y-80144850D01*
X140965153Y-104647608D02*
X141402163Y-103818796D01*
X140919933Y-93375737D02*
X140844588Y-92411299D01*
X146555881Y-119068974D02*
X146420255Y-118255230D01*
X140150000Y-107000000D02*
X140250000Y-106600000D01*
X140844588Y-92411299D02*
X140799378Y-91476999D01*
X141055558Y-94355245D02*
X140919933Y-93375737D01*
X140859656Y-90437214D02*
X140950072Y-89246736D01*
X141552845Y-86247936D02*
X141839164Y-85313636D01*
X142155619Y-99207574D02*
X141944648Y-98258206D01*
X141839164Y-85313636D02*
X142185758Y-84379337D01*
X141944648Y-98258206D02*
X141688471Y-97218420D01*
X140799378Y-91476999D02*
X140859656Y-90437214D01*
X140543211Y-105717533D02*
X140965153Y-104647608D01*
X142396729Y-100744647D02*
X142306313Y-100066528D01*
X140859666Y-112604224D02*
X140618557Y-112106935D01*
X153517907Y-72188234D02*
X154557693Y-71766293D01*
X141296668Y-87182235D02*
X141552845Y-86247936D01*
X141402163Y-103818796D02*
X141944659Y-102839287D01*
X142592642Y-114608448D02*
X142110423Y-114201575D01*
X146691504Y-122549994D02*
X146661365Y-121118405D01*
X146706585Y-123830889D02*
X146691504Y-122549994D01*
X161850000Y-139700000D02*
X160856700Y-139623564D01*
X154557693Y-71766293D02*
X156064627Y-71223796D01*
X145938036Y-116507186D02*
X145817482Y-116024967D01*
X146661365Y-121118405D02*
X146631226Y-120048483D01*
X147671023Y-130039459D02*
X147249081Y-128743495D01*
X152598678Y-72625245D02*
X153517907Y-72188234D01*
X159741569Y-139412593D02*
X158430537Y-139065997D01*
X142185758Y-84379337D02*
X142622770Y-83354621D01*
X141628204Y-113719356D02*
X141251469Y-113206998D01*
X144385882Y-80144850D02*
X144943449Y-79361244D01*
X141944659Y-102839287D02*
X142441949Y-102070749D01*
X141251469Y-113206998D02*
X140859666Y-112604224D01*
X146164078Y-117215443D02*
X145938036Y-116507186D01*
X148032666Y-75819947D02*
X149012172Y-74991133D01*
X151317783Y-73363643D02*
X152598678Y-72625245D01*
X146631226Y-120048483D02*
X146555881Y-119068974D01*
X145621571Y-78442014D02*
X146420245Y-77477576D01*
X141115836Y-88116535D02*
X141296668Y-87182235D01*
X143722842Y-115316706D02*
X143195416Y-115015319D01*
X168120125Y-139442732D02*
X167110481Y-139593426D01*
X155100211Y-137739895D02*
X154316605Y-137348092D01*
X148740945Y-132224515D02*
X148092964Y-131049106D01*
X160856700Y-139623564D02*
X159741569Y-139412593D01*
X157270196Y-138689265D02*
X156155065Y-138237185D01*
X150112257Y-134017766D02*
X149343719Y-133068398D01*
X158430537Y-139065997D02*
X157270196Y-138689265D01*
X150971210Y-134876720D02*
X150112257Y-134017766D01*
X152116481Y-135856228D02*
X150971210Y-134876720D01*
X146751792Y-125232337D02*
X146706585Y-123830889D01*
X169401021Y-139081068D02*
X168120125Y-139442732D01*
X148092964Y-131049106D02*
X147671023Y-130039459D01*
X167110481Y-139593426D02*
X166350000Y-139700000D01*
X172716277Y-137724827D02*
X171540868Y-138282391D01*
X149343719Y-133068398D02*
X148740945Y-132224515D01*
X153337096Y-136730250D02*
X152116481Y-135856228D01*
X173801272Y-137106983D02*
X172716277Y-137724827D01*
X170199698Y-138809820D02*
X169401021Y-139081068D01*
X147249081Y-128743495D02*
X146977833Y-127462600D01*
X154316605Y-137348092D02*
X153337096Y-136730250D01*
X171540868Y-138282391D02*
X170199698Y-138809820D01*
X146977833Y-127462600D02*
X146781930Y-126226914D01*
X146781930Y-126226914D02*
X146751792Y-125232337D01*
X156155065Y-138237185D02*
X155100211Y-137739895D01*
X156064627Y-71223796D02*
X157315384Y-70862132D01*
X159711409Y-70334705D02*
X160690917Y-70184011D01*
X158551071Y-70560745D02*
X159711409Y-70334705D01*
X160690917Y-70184011D02*
X161450000Y-70000000D01*
X157315384Y-70862132D02*
X158551071Y-70560745D01*
D10*
X127650000Y-101700000D02*
G75*
G03X127650000Y-101700000I-900000J0D01*
G01*
X106150000Y-101700000D02*
G75*
G03X106150000Y-101700000I-900000J0D01*
G01*
D11*
X109315384Y-70862132D02*
X110551071Y-70560745D01*
X112690917Y-70184011D02*
X113450000Y-70000000D01*
X110551071Y-70560745D02*
X111711409Y-70334705D01*
X111711409Y-70334705D02*
X112690917Y-70184011D01*
X108064627Y-71223796D02*
X109315384Y-70862132D01*
X108155065Y-138237185D02*
X107100211Y-137739895D01*
X107100211Y-137739895D02*
X106316605Y-137348092D01*
X104116481Y-135856228D02*
X102971210Y-134876720D01*
X119110481Y-139593426D02*
X118350000Y-139700000D01*
X121401021Y-139081068D02*
X120120125Y-139442732D01*
X122199698Y-138809820D02*
X121401021Y-139081068D01*
X106316605Y-137348092D02*
X105337096Y-136730250D01*
X123540868Y-138282391D02*
X122199698Y-138809820D01*
X98751792Y-125232337D02*
X98706585Y-123830889D01*
X100092964Y-131049106D02*
X99671023Y-130039459D01*
X98781930Y-126226914D02*
X98751792Y-125232337D01*
X100740945Y-132224515D02*
X100092964Y-131049106D01*
X102971210Y-134876720D02*
X102112257Y-134017766D01*
X110430537Y-139065997D02*
X109270196Y-138689265D01*
X125801272Y-137106983D02*
X124716277Y-137724827D01*
X101343719Y-133068398D02*
X100740945Y-132224515D01*
X102112257Y-134017766D02*
X101343719Y-133068398D01*
X105337096Y-136730250D02*
X104116481Y-135856228D01*
X109270196Y-138689265D02*
X108155065Y-138237185D01*
X124716277Y-137724827D02*
X123540868Y-138282391D01*
X112856700Y-139623564D02*
X111741569Y-139412593D01*
X98977833Y-127462600D02*
X98781930Y-126226914D01*
X99249081Y-128743495D02*
X98977833Y-127462600D01*
X111741569Y-139412593D02*
X110430537Y-139065997D01*
X113850000Y-139700000D02*
X112856700Y-139623564D01*
X120120125Y-139442732D02*
X119110481Y-139593426D01*
X99671023Y-130039459D02*
X99249081Y-128743495D01*
X95722842Y-115316706D02*
X95195416Y-115015319D01*
X93628204Y-113719356D02*
X93251469Y-113206998D01*
X98631226Y-120048483D02*
X98555881Y-119068974D01*
X98164078Y-117215443D02*
X97938036Y-116507186D01*
X98706585Y-123830889D02*
X98691504Y-122549994D01*
X98661365Y-121118405D02*
X98631226Y-120048483D01*
X98691504Y-122549994D02*
X98661365Y-121118405D01*
X93251469Y-113206998D02*
X92859666Y-112604224D01*
X106557693Y-71766293D02*
X108064627Y-71223796D01*
X94592642Y-114608448D02*
X94110423Y-114201575D01*
X93115836Y-88116535D02*
X93296668Y-87182235D01*
X104598678Y-72625245D02*
X105517907Y-72188234D01*
X103317783Y-73363643D02*
X104598678Y-72625245D01*
X93944659Y-102839287D02*
X94441949Y-102070749D01*
X97938036Y-116507186D02*
X97817482Y-116024967D01*
X100032666Y-75819947D02*
X101012172Y-74991133D01*
X97621571Y-78442014D02*
X98420245Y-77477576D01*
X96385882Y-80144850D02*
X96943449Y-79361244D01*
X94185758Y-84379337D02*
X94622770Y-83354621D01*
X92844588Y-92411299D02*
X92799378Y-91476999D01*
X93944648Y-98258206D02*
X93688471Y-97218420D01*
X98555881Y-119068974D02*
X98420255Y-118255230D01*
X92050000Y-107200000D02*
X92250000Y-106600000D01*
X92543211Y-105717533D02*
X92965153Y-104647608D01*
X95737902Y-81259982D02*
X96385882Y-80144850D01*
X93055558Y-94355245D02*
X92919933Y-93375737D01*
X93839164Y-85313636D02*
X94185758Y-84379337D01*
X92859656Y-90437214D02*
X92950072Y-89246736D01*
X92799378Y-91476999D02*
X92859656Y-90437214D01*
X96627002Y-115693441D02*
X95722842Y-115316706D01*
X93296668Y-87182235D02*
X93552845Y-86247936D01*
X94396729Y-100744647D02*
X94306313Y-100066528D01*
X92919933Y-93375737D02*
X92844588Y-92411299D01*
X94155619Y-99207574D02*
X93944648Y-98258206D01*
X92965153Y-104647608D02*
X93402163Y-103818796D01*
X95195416Y-115015319D02*
X94592642Y-114608448D01*
X93552845Y-86247936D02*
X93839164Y-85313636D01*
X93236391Y-95244336D02*
X93055558Y-94355245D01*
X93402163Y-103818796D02*
X93944659Y-102839287D01*
X105517907Y-72188234D02*
X106557693Y-71766293D01*
X92859666Y-112604224D02*
X92618557Y-112106935D01*
X92250000Y-106600000D02*
X92543211Y-105717533D01*
X94306313Y-100066528D02*
X94155619Y-99207574D01*
X94110423Y-114201575D02*
X93628204Y-113719356D01*
X101012172Y-74991133D02*
X102172513Y-74102041D01*
X94441949Y-102070749D02*
X94411810Y-101392630D01*
X92407586Y-111534300D02*
X92211686Y-110931526D01*
X98420245Y-77477576D02*
X99294267Y-76528207D01*
X98420255Y-118255230D02*
X98164078Y-117215443D01*
X102172513Y-74102041D02*
X103317783Y-73363643D01*
X99294267Y-76528207D02*
X100032666Y-75819947D01*
X96943449Y-79361244D02*
X97621571Y-78442014D01*
X94622770Y-83354621D02*
X95120057Y-82375113D01*
X97817482Y-116024967D02*
X96627002Y-115693441D01*
X92211686Y-110931526D02*
X92050000Y-110200000D01*
X95120057Y-82375113D02*
X95737902Y-81259982D01*
X92950072Y-89246736D02*
X93115836Y-88116535D01*
X93402152Y-96133428D02*
X93236391Y-95244336D01*
X92618557Y-112106935D02*
X92407586Y-111534300D01*
X93688471Y-97218420D02*
X93402152Y-96133428D01*
X94411810Y-101392630D02*
X94396729Y-100744647D01*
X138862997Y-88965592D02*
X139033489Y-91522945D01*
X136689249Y-82273851D02*
X137712189Y-84575469D01*
X138097859Y-113719356D02*
X137495085Y-114337200D01*
X132024912Y-76076126D02*
X133620424Y-77755861D01*
X126645155Y-136579557D02*
X125801272Y-137106983D01*
X127684939Y-135841158D02*
X126645155Y-136579557D01*
X128543893Y-135087690D02*
X127684939Y-135841158D01*
X135453195Y-80142723D02*
X136689249Y-82273851D01*
X129342566Y-134319155D02*
X128543893Y-135087690D01*
X130156311Y-133399924D02*
X129342566Y-134319155D01*
X130804294Y-132525902D02*
X130156311Y-133399924D01*
X124731347Y-71495044D02*
X127323274Y-72640315D01*
X131271445Y-131727225D02*
X130804294Y-132525902D01*
X132507131Y-128999676D02*
X132130396Y-129949043D01*
X132898934Y-126889965D02*
X132687963Y-128020167D01*
X132974280Y-125970736D02*
X132898934Y-126889965D01*
X133049628Y-123589780D02*
X133019489Y-125247408D01*
X133079766Y-121284169D02*
X133049628Y-123589780D01*
X137584321Y-99280249D02*
X137413832Y-100686793D01*
X133215389Y-119053906D02*
X133079766Y-121284169D01*
X133607192Y-117155166D02*
X133381153Y-118059327D01*
X139288336Y-111835686D02*
X138700633Y-112996027D01*
X138095793Y-103329390D02*
X138777754Y-104778558D01*
X135942942Y-115316706D02*
X135083988Y-115708509D01*
X133998995Y-116070173D02*
X133908579Y-116205799D01*
X135083988Y-115708509D02*
X133998995Y-116070173D01*
X136771757Y-114894765D02*
X135942942Y-115316706D01*
X137413832Y-100686793D02*
X137328586Y-102221204D01*
X129975479Y-74147250D02*
X132024912Y-76076126D01*
X118650000Y-70000000D02*
X121898311Y-70651161D01*
X138181039Y-97149121D02*
X137584321Y-99280249D01*
X138479396Y-87047577D02*
X138862997Y-88965592D01*
X133019489Y-125247408D02*
X132974280Y-125970736D01*
X138777754Y-104778558D02*
X139650000Y-107000000D01*
X133908579Y-116205799D02*
X133607192Y-117155166D01*
X132687963Y-128020167D02*
X132507131Y-128999676D01*
X133381153Y-118059327D02*
X133215389Y-119053906D01*
X138735132Y-94506523D02*
X138181039Y-97149121D01*
X139033489Y-91522945D02*
X138735132Y-94506523D01*
X133620424Y-77755861D02*
X135453195Y-80142723D01*
X131723525Y-130913481D02*
X131271445Y-131727225D01*
X132130396Y-129949043D02*
X131723525Y-130913481D01*
X137712189Y-84575469D02*
X138479396Y-87047577D01*
X137495085Y-114337200D02*
X136771757Y-114894765D01*
X137328586Y-102221204D02*
X138095793Y-103329390D01*
X138700633Y-112996027D02*
X138097859Y-113719356D01*
X121898311Y-70651161D02*
X124731347Y-71495044D01*
X127323274Y-72640315D02*
X129975479Y-74147250D01*
X139650000Y-110400000D02*
X139288336Y-111835686D01*
M02*
