G04 #@! TF.GenerationSoftware,KiCad,Pcbnew,(5.0.0)*
G04 #@! TF.CreationDate,2019-01-07T22:48:05+01:00*
G04 #@! TF.ProjectId,panel,70616E656C2E6B696361645F70636200,rev?*
G04 #@! TF.SameCoordinates,Original*
G04 #@! TF.FileFunction,Soldermask,Top*
G04 #@! TF.FilePolarity,Negative*
%FSLAX46Y46*%
G04 Gerber Fmt 4.6, Leading zero omitted, Abs format (unit mm)*
G04 Created by KiCad (PCBNEW (5.0.0)) date 01/07/19 22:48:05*
%MOMM*%
%LPD*%
G01*
G04 APERTURE LIST*
%ADD10C,0.150000*%
%ADD11R,2.600000X1.900000*%
%ADD12R,1.900000X1.650000*%
%ADD13C,6.400000*%
%ADD14R,5.480000X5.480000*%
%ADD15R,1.950000X1.000000*%
%ADD16R,1.600000X2.900000*%
%ADD17R,1.900000X1.700000*%
G04 APERTURE END LIST*
D10*
G36*
X155250000Y-90200000D02*
X173250000Y-90200000D01*
X173250000Y-85200000D01*
X155250000Y-85200000D01*
X155250000Y-90200000D01*
G37*
X155250000Y-90200000D02*
X173250000Y-90200000D01*
X173250000Y-85200000D01*
X155250000Y-85200000D01*
X155250000Y-90200000D01*
G36*
X107250000Y-90200000D02*
X125250000Y-90200000D01*
X125250000Y-85200000D01*
X107250000Y-85200000D01*
X107250000Y-90200000D01*
G37*
X107250000Y-90200000D02*
X125250000Y-90200000D01*
X125250000Y-85200000D01*
X107250000Y-85200000D01*
X107250000Y-90200000D01*
D11*
G04 #@! TO.C,D1*
X180750000Y-105200000D03*
X183650000Y-105200000D03*
G04 #@! TD*
D12*
G04 #@! TO.C,C2*
X183500000Y-110200000D03*
X181000000Y-110200000D03*
G04 #@! TD*
D13*
G04 #@! TO.C,BT1*
X163850000Y-123200000D03*
D14*
X178315000Y-123200000D03*
X149385000Y-123200000D03*
G04 #@! TD*
D15*
G04 #@! TO.C,U1*
X161050000Y-104795000D03*
X161050000Y-106065000D03*
X161050000Y-107335000D03*
X161050000Y-108605000D03*
X166450000Y-108605000D03*
X166450000Y-107335000D03*
X166450000Y-106065000D03*
X166450000Y-104795000D03*
G04 #@! TD*
D16*
G04 #@! TO.C,SW1*
X147250000Y-107450000D03*
X149750000Y-107450000D03*
X152250000Y-107450000D03*
X147250000Y-112950000D03*
X149750000Y-112950000D03*
X152250000Y-112950000D03*
G04 #@! TD*
D17*
G04 #@! TO.C,R1*
X171900000Y-105200000D03*
X174600000Y-105200000D03*
G04 #@! TD*
D12*
G04 #@! TO.C,C1*
X174500000Y-110200000D03*
X172000000Y-110200000D03*
G04 #@! TD*
D17*
G04 #@! TO.C,R2*
X171900000Y-107700000D03*
X174600000Y-107700000D03*
G04 #@! TD*
G04 #@! TO.C,D2*
X154600000Y-101700000D03*
X151900000Y-101700000D03*
G04 #@! TD*
G04 #@! TO.C,D3*
X176100000Y-101700000D03*
X173400000Y-101700000D03*
G04 #@! TD*
G04 #@! TO.C,R4*
X178650000Y-101700000D03*
X181350000Y-101700000D03*
G04 #@! TD*
G04 #@! TO.C,R3*
X146400000Y-101700000D03*
X149100000Y-101700000D03*
G04 #@! TD*
D14*
G04 #@! TO.C,BT1*
X101385000Y-123200000D03*
X130315000Y-123200000D03*
D13*
X115850000Y-123200000D03*
G04 #@! TD*
D12*
G04 #@! TO.C,C1*
X124000000Y-110200000D03*
X126500000Y-110200000D03*
G04 #@! TD*
G04 #@! TO.C,C2*
X133000000Y-110200000D03*
X135500000Y-110200000D03*
G04 #@! TD*
D17*
G04 #@! TO.C,D2*
X103900000Y-101700000D03*
X106600000Y-101700000D03*
G04 #@! TD*
G04 #@! TO.C,D3*
X125400000Y-101700000D03*
X128100000Y-101700000D03*
G04 #@! TD*
G04 #@! TO.C,R1*
X126600000Y-105200000D03*
X123900000Y-105200000D03*
G04 #@! TD*
G04 #@! TO.C,R2*
X126600000Y-107700000D03*
X123900000Y-107700000D03*
G04 #@! TD*
G04 #@! TO.C,R3*
X101100000Y-101700000D03*
X98400000Y-101700000D03*
G04 #@! TD*
G04 #@! TO.C,R4*
X133350000Y-101700000D03*
X130650000Y-101700000D03*
G04 #@! TD*
D16*
G04 #@! TO.C,SW1*
X104250000Y-112950000D03*
X101750000Y-112950000D03*
X99250000Y-112950000D03*
X104250000Y-107450000D03*
X101750000Y-107450000D03*
X99250000Y-107450000D03*
G04 #@! TD*
D15*
G04 #@! TO.C,U1*
X118450000Y-104795000D03*
X118450000Y-106065000D03*
X118450000Y-107335000D03*
X118450000Y-108605000D03*
X113050000Y-108605000D03*
X113050000Y-107335000D03*
X113050000Y-106065000D03*
X113050000Y-104795000D03*
G04 #@! TD*
D11*
G04 #@! TO.C,D1*
X135650000Y-105200000D03*
X132750000Y-105200000D03*
G04 #@! TD*
M02*
