<?xml version="1.0" encoding="UTF-8" standalone="no"?>
<!-- Created with Inkscape (http://www.inkscape.org/) -->

<svg
   xmlns:dc="http://purl.org/dc/elements/1.1/"
   xmlns:cc="http://creativecommons.org/ns#"
   xmlns:rdf="http://www.w3.org/1999/02/22-rdf-syntax-ns#"
   xmlns:svg="http://www.w3.org/2000/svg"
   xmlns="http://www.w3.org/2000/svg"
   xmlns:sodipodi="http://sodipodi.sourceforge.net/DTD/sodipodi-0.dtd"
   xmlns:inkscape="http://www.inkscape.org/namespaces/inkscape"
   width="210mm"
   height="297mm"
   viewBox="0 0 210 297"
   version="1.1"
   id="svg8"
   sodipodi:docname="calavera_contour.svg"
   inkscape:version="0.92.1 r15371">
  <defs
     id="defs2" />
  <sodipodi:namedview
     id="base"
     pagecolor="#ffffff"
     bordercolor="#666666"
     borderopacity="1.0"
     inkscape:pageopacity="0.0"
     inkscape:pageshadow="2"
     inkscape:zoom="1.4"
     inkscape:cx="263.94391"
     inkscape:cy="88.322827"
     inkscape:document-units="mm"
     inkscape:current-layer="layer1"
     showgrid="false"
     inkscape:window-width="1304"
     inkscape:window-height="745"
     inkscape:window-x="54"
     inkscape:window-y="-8"
     inkscape:window-maximized="1" />
  <metadata
     id="metadata5">
    <rdf:RDF>
      <cc:Work
         rdf:about="">
        <dc:format>image/svg+xml</dc:format>
        <dc:type
           rdf:resource="http://purl.org/dc/dcmitype/StillImage" />
        <dc:title></dc:title>
      </cc:Work>
    </rdf:RDF>
  </metadata>
  <g
     inkscape:label="Calque 1"
     inkscape:groupmode="layer"
     id="layer1">
    <path
       style="color:#000000;font-style:normal;font-variant:normal;font-weight:normal;font-stretch:normal;font-size:medium;line-height:normal;font-family:sans-serif;font-variant-ligatures:normal;font-variant-position:normal;font-variant-caps:normal;font-variant-numeric:normal;font-variant-alternates:normal;font-feature-settings:normal;text-indent:0;text-align:start;text-decoration:none;text-decoration-line:none;text-decoration-style:solid;text-decoration-color:#000000;letter-spacing:normal;word-spacing:normal;text-transform:none;writing-mode:lr-tb;direction:ltr;text-orientation:mixed;dominant-baseline:auto;baseline-shift:baseline;text-anchor:start;white-space:normal;shape-padding:0;clip-rule:nonzero;display:inline;overflow:visible;visibility:visible;opacity:1;isolation:auto;mix-blend-mode:normal;color-interpolation:sRGB;color-interpolation-filters:linearRGB;solid-color:#000000;solid-opacity:1;vector-effect:none;fill-opacity:1;fill-rule:nonzero;stroke:none;stroke-width:0.04281346;stroke-linecap:butt;stroke-linejoin:miter;stroke-miterlimit:4;stroke-dasharray:none;stroke-dashoffset:0;stroke-opacity:1;color-rendering:auto;image-rendering:auto;shape-rendering:auto;text-rendering:auto;enable-background:accumulate"
       d="m 30.012882,217.63451 c 1.49421,0.10107 1.79365,0.13563 3.1875,0.36719 2.54072,0.42208 4.99814,1.24335 7.05664,2.35938 3.13007,1.69698 5.65506,4.01416 7.67969,7.04687 2.06703,3.09625 3.26248,6.16442 3.67382,9.43164 0.0812,0.6447 0.1388,1.9741 0.11133,2.56445 -0.0896,1.92379 -0.24861,2.89695 -0.85937,5.27149 -0.56064,2.1796 -0.70691,2.98564 -0.73633,4.06836 l -0.0234,0.84765 0.21875,0.36329 c 1.32361,2.20974 1.82204,3.39729 2.11133,5.02343 0.13963,0.78488 0.14135,2.10341 0.002,2.88672 -0.50666,2.84735 -2.13554,4.59823 -5.1289,5.51367 l -0.5879,0.17969 -0.18554,0.60938 c -0.28232,0.92072 -0.38716,1.35946 -0.48242,2.03515 -0.15305,1.08562 -0.17776,1.55245 -0.2168,4.15625 -0.0443,2.95171 -0.11537,3.91516 -0.39063,5.21875 -0.54943,2.60204 -1.67864,4.65206 -3.58984,6.51953 -1.39047,1.35867 -2.62171,2.24368 -4.37109,3.14258 -1.84892,0.95004 -4.00483,1.64995 -5.93946,1.92578 -0.53274,0.076 -0.81476,0.082 -2.97265,0.0781 -1.760328,-0.003 -2.484552,-0.0191 -2.748047,-0.0606 -0.200203,-0.0314 -0.508864,-0.0788 -0.685547,-0.10547 -1.144394,-0.17297 -3.142321,-0.8288 -4.582032,-1.5039 -2.124966,-0.99641 -3.747059,-2.11889 -5.191406,-3.5918 -1.056024,-1.07691 -1.819471,-2.14033 -2.433594,-3.39063 -0.802468,-1.63371 -1.1881,-3.13299 -1.345703,-5.23632 -0.02358,-0.31492 -0.06389,-1.7338 -0.08789,-3.14649 -0.0606,-3.55983 -0.144258,-4.31093 -0.679688,-6.00586 -0.04906,-0.15529 -0.10072,-0.30226 -0.142578,-0.41211 -0.02093,-0.0549 -0.03913,-0.10071 -0.05469,-0.13476 -0.0078,-0.017 -0.01523,-0.03 -0.02148,-0.041 -0.0063,-0.011 -0.0099,-0.02 -0.01953,-0.0273 -0.01058,-0.008 -0.02507,-0.0147 -0.04492,-0.0234 -0.01986,-0.009 -0.04399,-0.0189 -0.07227,-0.0293 -0.05654,-0.0208 -0.128081,-0.0439 -0.199218,-0.0644 -2.3758346,-0.68511 -3.9280986,-1.89503 -4.7734376,-3.71875 -0.512564,-1.10581 -0.710937,-2.02436 -0.710937,-3.28516 0,-1.03568 0.108441,-1.74443 0.410156,-2.67773 0.332522,-1.02857 0.630817,-1.64236 1.744141,-3.58398 l 0.285156,-0.49805 v -0.61719 c 4.31e-4,-1.15192 -0.149493,-2.02797 -0.771484,-4.50976 -0.568264,-2.26747 -0.721983,-3.11979 -0.816407,-4.51953 -0.174392,-2.58535 0.324166,-5.50233 1.404297,-8.20313 0.812318,-2.03117 1.655473,-3.5381 2.957031,-5.2832 1.6306166,-2.1863 3.4005336,-3.88728 5.5019526,-5.29102 2.372627,-1.5849 5.663042,-2.81001 9.046876,-3.36719 1.729957,-0.28485 3.827505,-0.39265 5.474609,-0.28125 z"
       id="path5114"
       inkscape:connector-curvature="0" />
  </g>
</svg>
