999
dxfrw 0.6.3
  0
SECTION
  2
HEADER
  9
$ACADVER
  1
AC1021
  9
$DWGCODEPAGE
  3
ANSI_1252
  9
$INSBASE
 10
0
 20
0
 30
0
  9
$EXTMIN
 10
3.590310954080091
 20
7.268901865932664
 30
0
  9
$EXTMAX
 10
39.40143016226376
 20
59.55446490245377
 30
0
  9
$LIMMIN
 10
0
 20
0
  9
$LIMMAX
 10
420
 20
297
  9
$ORTHOMODE
 70
    0
  9
$REGENMODE
 70
    1
  9
$FILLMODE
 70
    1
  9
$QTEXTMODE
 70
    0
  9
$MIRRTEXT
 70
    0
  9
$LTSCALE
 40
1
  9
$ATTMODE
 70
    0
  9
$TEXTSIZE
 40
2.5
  9
$TRACEWID
 40
15.68
  9
$TEXTSTYLE
  7
STANDARD
  9
$CLAYER
  8
0
  9
$CELTYPE
  6
BYLAYER
  9
$CECOLOR
 62
  256
  9
$CELTSCALE
 40
1
  9
$DISPSILH
 70
    0
  9
$DIMSCALE
 40
2.5
  9
$DIMASZ
 40
2.5
  9
$DIMEXO
 40
0.625
  9
$DIMDLI
 40
3.75
  9
$DIMRND
 40
0
  9
$DIMDLE
 40
0
  9
$DIMEXE
 40
1.25
  9
$DIMTP
 40
0
  9
$DIMTM
 40
0
  9
$DIMTXT
 40
2.5
  9
$DIMCEN
 40
2.5
  9
$DIMTSZ
 40
0
  9
$DIMTOL
 70
    0
  9
$DIMLIM
 70
    0
  9
$DIMTIH
 70
    0
  9
$DIMTOH
 70
    0
  9
$DIMSE1
 70
    0
  9
$DIMSE2
 70
    0
  9
$DIMTAD
 70
    1
  9
$DIMZIN
 70
    8
  9
$DIMBLK
  1

  9
$DIMASO
 70
    1
  9
$DIMSHO
 70
    1
  9
$DIMPOST
  1

  9
$DIMAPOST
  1

  9
$DIMALT
 70
    0
  9
$DIMALTD
 70
    3
  9
$DIMALTF
 40
0.03937
  9
$DIMLFAC
 40
1
  9
$DIMTOFL
 70
    1
  9
$DIMTVP
 40
0
  9
$DIMTIX
 70
    0
  9
$DIMSOXD
 70
    0
  9
$DIMSAH
 70
    0
  9
$DIMBLK1
  1

  9
$DIMBLK2
  1

  9
$DIMSTYLE
  2
Standard
  9
$DIMCLRD
 70
    0
  9
$DIMCLRE
 70
    0
  9
$DIMCLRT
 70
    0
  9
$DIMTFAC
 40
1
  9
$DIMGAP
 40
0.625
  9
$DIMJUST
 70
    0
  9
$DIMSD1
 70
    0
  9
$DIMSD2
 70
    0
  9
$DIMTOLJ
 70
    0
  9
$DIMTZIN
 70
    8
  9
$DIMALTZ
 70
    0
  9
$DIMALTTZ
 70
    0
  9
$DIMUPT
 70
    0
  9
$DIMDEC
 70
    2
  9
$DIMTDEC
 70
    2
  9
$DIMALTU
 70
    2
  9
$DIMALTTD
 70
    3
  9
$DIMTXSTY
  7
STANDARD
  9
$DIMAUNIT
 70
    0
  9
$DIMADEC
 70
    0
  9
$DIMALTRND
 40
0
  9
$DIMAZIN
 70
    0
  9
$DIMDSEP
 70
   44
  9
$DIMATFIT
 70
    3
  9
$DIMFRAC
 70
    0
  9
$DIMLDRBLK
  1
STANDARD
  9
$DIMLUNIT
 70
    2
  9
$DIMLWD
 70
   -2
  9
$DIMLWE
 70
   -2
  9
$DIMTMOVE
 70
    0
  9
$DIMFXL
 40
1
  9
$DIMFXLON
 70
    0
  9
$DIMJOGANG
 40
0.7854
  9
$DIMTFILL
 70
    0
  9
$DIMTFILLCLR
 70
    0
  9
$DIMARCSYM
 70
    0
  9
$DIMLTYPE
  6

  9
$DIMLTEX1
  6

  9
$DIMLTEX2
  6

  9
$LUNITS
 70
    2
  9
$LUPREC
 70
    4
  9
$SKETCHINC
 40
1
  9
$FILLETRAD
 40
0
  9
$AUNITS
 70
    0
  9
$AUPREC
 70
    2
  9
$MENU
  1
.
  9
$ELEVATION
 40
0
  9
$PELEVATION
 40
0
  9
$THICKNESS
 40
0
  9
$LIMCHECK
 70
    0
  9
$CHAMFERA
 40
0
  9
$CHAMFERB
 40
0
  9
$CHAMFERC
 40
0
  9
$CHAMFERD
 40
0
  9
$SKPOLY
 70
    0
  9
$USRTIMER
 70
    1
  9
$ANGBASE
 50
0
  9
$ANGDIR
 70
    0
  9
$PDMODE
 70
   34
  9
$PDSIZE
 40
0
  9
$PLINEWID
 40
0
  9
$SPLFRAME
 70
    0
  9
$SPLINETYPE
 70
    2
  9
$SPLINESEGS
 70
    8
  9
$HANDSEED
  5
20000
  9
$SURFTAB1
 70
    6
  9
$SURFTAB2
 70
    6
  9
$SURFTYPE
 70
    6
  9
$SURFU
 70
    6
  9
$SURFV
 70
    6
  9
$UCSBASE
  2

  9
$UCSNAME
  2

  9
$UCSORG
 10
0
 20
0
 30
0
  9
$UCSXDIR
 10
1
 20
0
 30
0
  9
$UCSYDIR
 10
0
 20
1
 30
0
  9
$UCSORTHOREF
  2

  9
$UCSORTHOVIEW
 70
    0
  9
$UCSORGTOP
 10
0
 20
0
 30
0
  9
$UCSORGBOTTOM
 10
0
 20
0
 30
0
  9
$UCSORGLEFT
 10
0
 20
0
 30
0
  9
$UCSORGRIGHT
 10
0
 20
0
 30
0
  9
$UCSORGFRONT
 10
0
 20
0
 30
0
  9
$UCSORGBACK
 10
0
 20
0
 30
0
  9
$PUCSBASE
  2

  9
$PUCSNAME
  2

  9
$PUCSORG
 10
0
 20
0
 30
0
  9
$PUCSXDIR
 10
1
 20
0
 30
0
  9
$PUCSYDIR
 10
0
 20
1
 30
0
  9
$PUCSORTHOREF
  2

  9
$PUCSORTHOVIEW
 70
    0
  9
$PUCSORGTOP
 10
0
 20
0
 30
0
  9
$PUCSORGBOTTOM
 10
0
 20
0
 30
0
  9
$PUCSORGLEFT
 10
0
 20
0
 30
0
  9
$PUCSORGRIGHT
 10
0
 20
0
 30
0
  9
$PUCSORGFRONT
 10
0
 20
0
 30
0
  9
$PUCSORGBACK
 10
0
 20
0
 30
0
  9
$USERI1
 70
    0
  9
$USERI2
 70
    0
  9
$USERI3
 70
    0
  9
$USERI4
 70
    0
  9
$USERI5
 70
    0
  9
$USERR1
 40
0
  9
$USERR2
 40
0
  9
$USERR3
 40
0
  9
$USERR4
 40
0
  9
$USERR5
 40
0
  9
$WORLDVIEW
 70
    1
  9
$SHADEDGE
 70
    3
  9
$SHADEDIF
 70
   70
  9
$TILEMODE
 70
    1
  9
$MAXACTVP
 70
   64
  9
$PINSBASE
 10
0
 20
0
 30
0
  9
$PLIMCHECK
 70
    0
  9
$PEXTMIN
 10
0
 20
0
 30
0
  9
$PEXTMAX
 10
0
 20
0
 30
0
  9
$GRIDMODE
 70
    0
  9
$SNAPSTYLE
 70
    0
  9
$PLIMMIN
 10
0
 20
0
  9
$PLIMMAX
 10
210
 20
297
  9
$UNITMODE
 70
    0
  9
$VISRETAIN
 70
    1
  9
$PLINEGEN
 70
    0
  9
$PSLTSCALE
 70
    1
  9
$TREEDEPTH
 70
 3020
  9
$CMLSTYLE
  2
Standard
  9
$CMLJUST
 70
    0
  9
$CMLSCALE
 40
20
  9
$PROXYGRAPHICS
 70
    1
  9
$MEASUREMENT
 70
    1
  9
$CELWEIGHT
370
   -1
  9
$ENDCAPS
280
    0
  9
$JOINSTYLE
280
    0
  9
$LWDISPLAY
290
    0
  9
$INSUNITS
 70
    0
  9
$HYPERLINKBASE
  1

  9
$STYLESHEET
  1

  9
$XEDIT
290
    1
  9
$CEPSNTYPE
380
    0
  9
$PSTYLEMODE
290
    1
  9
$EXTNAMES
290
    1
  9
$PSVPSCALE
 40
1
  9
$OLESTARTUP
290
    0
  9
$SORTENTS
280
  127
  9
$INDEXCTL
280
    0
  9
$HIDETEXT
280
    1
  9
$XCLIPFRAME
290
    0
  9
$HALOGAP
280
    0
  9
$OBSCOLOR
 70
  257
  9
$OBSLTYPE
280
    0
  9
$INTERSECTIONDISPLAY
280
    0
  9
$INTERSECTIONCOLOR
 70
  257
  9
$DIMASSOC
280
    1
  9
$PROJECTNAME
  1

  9
$CAMERADISPLAY
290
    0
  9
$LENSLENGTH
 40
50
  9
$CAMERAHEIGHT
 40
0
  9
$STEPSPERSEC
 40
2
  9
$STEPSIZE
 40
50
  9
$3DDWFPREC
 40
2
  9
$PSOLWIDTH
 40
5
  9
$PSOLHEIGHT
 40
80
  9
$LOFTANG1
 40
1.570796326794897
  9
$LOFTANG2
 40
1.570796326794897
  9
$LOFTMAG1
 40
0
  9
$LOFTMAG2
 40
0
  9
$LOFTPARAM
 70
    7
  9
$LOFTNORMALS
280
    1
  9
$LATITUDE
 40
1
  9
$LONGITUDE
 40
1
  9
$NORTHDIRECTION
 40
0
  9
$TIMEZONE
 70
-8000
  9
$LIGHTGLYPHDISPLAY
280
    1
  9
$TILEMODELIGHTSYNCH
280
    1
  9
$SOLIDHIST
280
    1
  9
$SHOWHIST
280
    1
  9
$DWFFRAME
280
    2
  9
$DGNFRAME
280
    0
  9
$REALWORLDSCALE
290
    1
  9
$INTERFERECOLOR
 62
    1
  9
$CSHADOW
280
    0
  9
$SHADOWPLANELOCATION
 40
0
  0
ENDSEC
  0
SECTION
  2
CLASSES
  0
ENDSEC
  0
SECTION
  2
TABLES
  0
TABLE
  2
VPORT
  5
8
330
0
100
AcDbSymbolTable
 70
    1
  0
VPORT
  5
31
330
2
100
AcDbSymbolTableRecord
100
AcDbViewportTableRecord
  2
*ACTIVE
 70
    0
 10
0
 20
0
 11
1
 21
1
 12
44.02217934126764
 22
45.33382714286965
 13
0
 23
0
 14
10
 24
10
 15
10
 25
10
 16
0
 26
0
 36
1
 17
0
 27
0
 37
0
 40
94.4386417153451
 41
1.572916666666667
 42
50
 43
0
 44
0
 50
0
 51
0
 71
    0
 72
  100
 73
    1
 74
    3
 75
    0
 76
    0
 77
    0
 78
    0
281
    0
 65
    1
110
0
120
0
130
0
111
1
121
0
131
0
112
0
122
1
132
0
 79
    0
146
0
348
10020
 60
    7
 61
    5
292
1
282
    1
141
0
142
0
 63
  250
421
3358443
  0
ENDTAB
  0
TABLE
  2
LTYPE
  5
5
330
0
100
AcDbSymbolTable
 70
    4
  0
LTYPE
  5
14
330
5
100
AcDbSymbolTableRecord
100
AcDbLinetypeTableRecord
  2
ByBlock
 70
    0
  3

 72
   65
 73
    0
 40
0
  0
LTYPE
  5
15
330
5
100
AcDbSymbolTableRecord
100
AcDbLinetypeTableRecord
  2
ByLayer
 70
    0
  3

 72
   65
 73
    0
 40
0
  0
LTYPE
  5
16
330
5
100
AcDbSymbolTableRecord
100
AcDbLinetypeTableRecord
  2
Continuous
 70
    0
  3
Solid line
 72
   65
 73
    0
 40
0
  0
LTYPE
  5
32
330
5
100
AcDbSymbolTableRecord
100
AcDbLinetypeTableRecord
  2
DOT
 70
    0
  3
Dot . . . . . . . . . . . . . . . . . . . . . .
 72
   65
 73
    2
 40
6.35
 49
0
 74
    0
 49
-6.35
 74
    0
  0
LTYPE
  5
33
330
5
100
AcDbSymbolTableRecord
100
AcDbLinetypeTableRecord
  2
DOTTINY
 70
    0
  3
Dot (.15x) .....................................
 72
   65
 73
    2
 40
0.9525
 49
0
 74
    0
 49
-0.9525
 74
    0
  0
LTYPE
  5
34
330
5
100
AcDbSymbolTableRecord
100
AcDbLinetypeTableRecord
  2
DOT2
 70
    0
  3
Dot (.5x) .....................................
 72
   65
 73
    2
 40
3.175
 49
0
 74
    0
 49
-3.175
 74
    0
  0
LTYPE
  5
35
330
5
100
AcDbSymbolTableRecord
100
AcDbLinetypeTableRecord
  2
DOTX2
 70
    0
  3
Dot (2x) .  .  .  .  .  .  .  .  .  .  .  .  .
 72
   65
 73
    2
 40
12.7
 49
0
 74
    0
 49
-12.7
 74
    0
  0
LTYPE
  5
36
330
5
100
AcDbSymbolTableRecord
100
AcDbLinetypeTableRecord
  2
DASHED
 70
    0
  3
Dashed _ _ _ _ _ _ _ _ _ _ _ _ _ _ _ _ _
 72
   65
 73
    2
 40
19.05
 49
12.7
 74
    0
 49
-6.35
 74
    0
  0
LTYPE
  5
37
330
5
100
AcDbSymbolTableRecord
100
AcDbLinetypeTableRecord
  2
DASHEDTINY
 70
    0
  3
Dashed (.15x) _ _ _ _ _ _ _ _ _ _ _ _ _ _ _ _ _
 72
   65
 73
    2
 40
2.8575
 49
1.905
 74
    0
 49
-0.9525
 74
    0
  0
LTYPE
  5
38
330
5
100
AcDbSymbolTableRecord
100
AcDbLinetypeTableRecord
  2
DASHED2
 70
    0
  3
Dashed (.5x) _ _ _ _ _ _ _ _ _ _ _ _ _ _ _ _ _
 72
   65
 73
    2
 40
9.524999999999999
 49
6.35
 74
    0
 49
-3.175
 74
    0
  0
LTYPE
  5
39
330
5
100
AcDbSymbolTableRecord
100
AcDbLinetypeTableRecord
  2
DASHEDX2
 70
    0
  3
Dashed (2x) ____  ____  ____  ____  ____  ___
 72
   65
 73
    2
 40
38.09999999999999
 49
25.4
 74
    0
 49
-12.7
 74
    0
  0
LTYPE
  5
3A
330
5
100
AcDbSymbolTableRecord
100
AcDbLinetypeTableRecord
  2
DASHDOT
 70
    0
  3
Dash dot __ . __ . __ . __ . __ . __ . __ . __
 72
   65
 73
    4
 40
25.4
 49
12.7
 74
    0
 49
-6.35
 74
    0
 49
0
 74
    0
 49
-6.35
 74
    0
  0
LTYPE
  5
3B
330
5
100
AcDbSymbolTableRecord
100
AcDbLinetypeTableRecord
  2
DASHDOTTINY
 70
    0
  3
Dash dot (.15x) _._._._._._._._._._._._._._._.
 72
   65
 73
    4
 40
3.81
 49
1.905
 74
    0
 49
-0.9525
 74
    0
 49
0
 74
    0
 49
-0.9525
 74
    0
  0
LTYPE
  5
3C
330
5
100
AcDbSymbolTableRecord
100
AcDbLinetypeTableRecord
  2
DASHDOT2
 70
    0
  3
Dash dot (.5x) _._._._._._._._._._._._._._._.
 72
   65
 73
    4
 40
12.7
 49
6.35
 74
    0
 49
-3.175
 74
    0
 49
0
 74
    0
 49
-3.175
 74
    0
  0
LTYPE
  5
3D
330
5
100
AcDbSymbolTableRecord
100
AcDbLinetypeTableRecord
  2
DASHDOTX2
 70
    0
  3
Dash dot (2x) ____  .  ____  .  ____  .  ___
 72
   65
 73
    4
 40
50.8
 49
25.4
 74
    0
 49
-12.7
 74
    0
 49
0
 74
    0
 49
-12.7
 74
    0
  0
LTYPE
  5
3E
330
5
100
AcDbSymbolTableRecord
100
AcDbLinetypeTableRecord
  2
DIVIDE
 70
    0
  3
Divide ____ . . ____ . . ____ . . ____ . . ____
 72
   65
 73
    6
 40
31.75
 49
12.7
 74
    0
 49
-6.35
 74
    0
 49
0
 74
    0
 49
-6.35
 74
    0
 49
0
 74
    0
 49
-6.35
 74
    0
  0
LTYPE
  5
3F
330
5
100
AcDbSymbolTableRecord
100
AcDbLinetypeTableRecord
  2
DIVIDETINY
 70
    0
  3
Divide (.15x) __..__..__..__..__..__..__..__.._
 72
   65
 73
    6
 40
4.7625
 49
1.905
 74
    0
 49
-0.9525
 74
    0
 49
0
 74
    0
 49
-0.9525
 74
    0
 49
0
 74
    0
 49
-0.9525
 74
    0
  0
LTYPE
  5
40
330
5
100
AcDbSymbolTableRecord
100
AcDbLinetypeTableRecord
  2
DIVIDE2
 70
    0
  3
Divide (.5x) __..__..__..__..__..__..__..__.._
 72
   65
 73
    6
 40
15.875
 49
6.35
 74
    0
 49
-3.175
 74
    0
 49
0
 74
    0
 49
-3.175
 74
    0
 49
0
 74
    0
 49
-3.175
 74
    0
  0
LTYPE
  5
41
330
5
100
AcDbSymbolTableRecord
100
AcDbLinetypeTableRecord
  2
DIVIDEX2
 70
    0
  3
Divide (2x) ________  .  .  ________  .  .  _
 72
   65
 73
    6
 40
63.5
 49
25.4
 74
    0
 49
-12.7
 74
    0
 49
0
 74
    0
 49
-12.7
 74
    0
 49
0
 74
    0
 49
-12.7
 74
    0
  0
LTYPE
  5
42
330
5
100
AcDbSymbolTableRecord
100
AcDbLinetypeTableRecord
  2
BORDER
 70
    0
  3
Border __ __ . __ __ . __ __ . __ __ . __ __ .
 72
   65
 73
    6
 40
44.45
 49
12.7
 74
    0
 49
-6.35
 74
    0
 49
12.7
 74
    0
 49
-6.35
 74
    0
 49
0
 74
    0
 49
-6.35
 74
    0
  0
LTYPE
  5
43
330
5
100
AcDbSymbolTableRecord
100
AcDbLinetypeTableRecord
  2
BORDERTINY
 70
    0
  3
Border (.15x) __.__.__.__.__.__.__.__.__.__.__.
 72
   65
 73
    6
 40
6.6675
 49
1.905
 74
    0
 49
-0.9525
 74
    0
 49
1.905
 74
    0
 49
-0.9525
 74
    0
 49
0
 74
    0
 49
-0.9525
 74
    0
  0
LTYPE
  5
44
330
5
100
AcDbSymbolTableRecord
100
AcDbLinetypeTableRecord
  2
BORDER2
 70
    0
  3
Border (.5x) __.__.__.__.__.__.__.__.__.__.__.
 72
   65
 73
    6
 40
22.225
 49
6.35
 74
    0
 49
-3.175
 74
    0
 49
6.35
 74
    0
 49
-3.175
 74
    0
 49
0
 74
    0
 49
-3.175
 74
    0
  0
LTYPE
  5
45
330
5
100
AcDbSymbolTableRecord
100
AcDbLinetypeTableRecord
  2
BORDERX2
 70
    0
  3
Border (2x) ____  ____  .  ____  ____  .  ___
 72
   65
 73
    6
 40
88.89999999999999
 49
25.4
 74
    0
 49
-12.7
 74
    0
 49
25.4
 74
    0
 49
-12.7
 74
    0
 49
0
 74
    0
 49
-12.7
 74
    0
  0
LTYPE
  5
46
330
5
100
AcDbSymbolTableRecord
100
AcDbLinetypeTableRecord
  2
CENTER
 70
    0
  3
Center ____ _ ____ _ ____ _ ____ _ ____ _ ____
 72
   65
 73
    4
 40
50.8
 49
31.75
 74
    0
 49
-6.35
 74
    0
 49
6.35
 74
    0
 49
-6.35
 74
    0
  0
LTYPE
  5
47
330
5
100
AcDbSymbolTableRecord
100
AcDbLinetypeTableRecord
  2
CENTERTINY
 70
    0
  3
Center (.15x) ___ _ ___ _ ___ _ ___ _ ___ _ ___
 72
   65
 73
    4
 40
7.62
 49
4.7625
 74
    0
 49
-0.9525
 74
    0
 49
0.9525
 74
    0
 49
-0.9525
 74
    0
  0
LTYPE
  5
48
330
5
100
AcDbSymbolTableRecord
100
AcDbLinetypeTableRecord
  2
CENTER2
 70
    0
  3
Center (.5x) ___ _ ___ _ ___ _ ___ _ ___ _ ___
 72
   65
 73
    4
 40
28.575
 49
19.05
 74
    0
 49
-3.175
 74
    0
 49
3.175
 74
    0
 49
-3.175
 74
    0
  0
LTYPE
  5
49
330
5
100
AcDbSymbolTableRecord
100
AcDbLinetypeTableRecord
  2
CENTERX2
 70
    0
  3
Center (2x) ________  __  ________  __  _____
 72
   65
 73
    4
 40
101.6
 49
63.5
 74
    0
 49
-12.7
 74
    0
 49
12.7
 74
    0
 49
-12.7
 74
    0
  0
ENDTAB
  0
TABLE
  2
LAYER
  5
2
330
0
100
AcDbSymbolTable
 70
    1
  0
LAYER
  5
10
330
2
100
AcDbSymbolTableRecord
100
AcDbLayerTableRecord
  2
0
 70
    0
 62
    7
  6
CONTINUOUS
370
   -3
390
F
  0
LAYER
  5
4A
330
2
100
AcDbSymbolTableRecord
100
AcDbLayerTableRecord
  2
Calque_1
 70
    0
 62
    7
  6
CONTINUOUS
370
   -3
390
F
  0
ENDTAB
  0
TABLE
  2
STYLE
  5
3
330
0
100
AcDbSymbolTable
 70
    3
  0
STYLE
  5
4B
330
2
100
AcDbSymbolTableRecord
100
AcDbTextStyleTableRecord
  2
Standard
 70
    0
 40
0
 41
1
 50
0
 71
    0
 42
1
  3
txt
  4

  0
ENDTAB
  0
TABLE
  2
VIEW
  5
6
330
0
100
AcDbSymbolTable
 70
    0
  0
ENDTAB
  0
TABLE
  2
UCS
  5
7
330
0
100
AcDbSymbolTable
 70
    0
  0
ENDTAB
  0
TABLE
  2
APPID
  5
9
330
0
100
AcDbSymbolTable
 70
    1
  0
APPID
  5
12
330
9
100
AcDbSymbolTableRecord
100
AcDbRegAppTableRecord
  2
ACAD
 70
    0
  0
APPID
  5
4C
330
9
100
AcDbSymbolTableRecord
100
AcDbRegAppTableRecord
  2
LibreCad
 70
    0
  0
ENDTAB
  0
TABLE
  2
DIMSTYLE
  5
A
330
0
100
AcDbSymbolTable
 70
    1
100
AcDbDimStyleTable
 71
    1
  0
DIMSTYLE
105
4D
330
A
100
AcDbSymbolTableRecord
100
AcDbDimStyleTableRecord
  2
Standard
 70
    0
 40
1
 41
2.5
 42
0.625
 43
0.38
 44
1.25
 45
0
 46
0
 47
0
 48
0
 49
1
140
2.5
141
0.09
142
2.5
143
25.4
144
1
145
0
146
1
147
0.625
148
0
 71
    0
 72
    0
 73
    0
 74
    1
 75
    0
 76
    0
 77
    0
 78
    1
 79
    0
170
    0
171
    2
172
    0
173
    0
174
    0
175
    0
176
    0
177
    0
178
    0
179
    0
271
    2
272
    4
273
    2
274
    2
275
    0
276
    0
277
    2
278
    0
279
    0
280
    0
281
    0
282
    0
283
    1
284
    0
285
    0
286
    0
288
    0
289
    3
340
standard
341

371
   -2
372
   -2
  0
ENDTAB
  0
TABLE
  2
BLOCK_RECORD
  5
1
330
0
100
AcDbSymbolTable
 70
    2
  0
BLOCK_RECORD
  5
1F
330
1
100
AcDbSymbolTableRecord
100
AcDbBlockTableRecord
  2
*Model_Space
 70
    0
280
    1
281
    0
  0
BLOCK_RECORD
  5
1E
330
1
100
AcDbSymbolTableRecord
100
AcDbBlockTableRecord
  2
*Paper_Space
 70
    0
280
    1
281
    0
  0
ENDTAB
  0
ENDSEC
  0
SECTION
  2
BLOCKS
  0
BLOCK
  5
20
330
1F
100
AcDbEntity
  8
0
100
AcDbBlockBegin
  2
*Model_Space
 70
    0
 10
0
 20
0
 30
0
  3
*Model_Space
  1

  0
ENDBLK
  5
21
330
1F
100
AcDbEntity
  8
0
100
AcDbBlockEnd
  0
BLOCK
  5
1C
330
1B
100
AcDbEntity
  8
0
100
AcDbBlockBegin
  2
*Paper_Space
 70
    0
 10
0
 20
0
 30
0
  3
*Paper_Space
  1

  0
ENDBLK
  5
1D
330
1F
100
AcDbEntity
  8
0
100
AcDbBlockEnd
  0
ENDSEC
  0
SECTION
  2
ENTITIES
  0
LINE
  5
4E
100
AcDbEntity
  8
Calque_1
  6
ByLayer
 62
    7
370
   -1
100
AcDbLine
 10
22.509659
 20
59.524118
 11
22.509661
 21
59.524117
  0
LINE
  5
4F
100
AcDbEntity
  8
Calque_1
  6
ByLayer
 62
    7
370
   -1
100
AcDbLine
 10
22.509661
 20
59.524117
 11
23.04783633600752
 21
59.49774142140243
  0
LINE
  5
50
100
AcDbEntity
  8
Calque_1
  6
ByLayer
 62
    7
370
   -1
100
AcDbLine
 10
23.04783633600752
 20
59.49774142140243
 11
23.58501708244101
 21
59.45454502678663
  0
LINE
  5
51
100
AcDbEntity
  8
Calque_1
  6
ByLayer
 62
    7
370
   -1
100
AcDbLine
 10
23.58501708244101
 20
59.45454502678663
 11
24.12067837917492
 21
59.39467387630492
  0
LINE
  5
52
100
AcDbEntity
  8
Calque_1
  6
ByLayer
 62
    7
370
   -1
100
AcDbLine
 10
24.12067837917492
 20
59.39467387630492
 11
24.65429536608372
 21
59.31827403010977
  0
LINE
  5
53
100
AcDbEntity
  8
Calque_1
  6
ByLayer
 62
    7
370
   -1
100
AcDbLine
 10
24.65429536608372
 20
59.31827403010977
 11
25.18534318304186
 21
59.22549154835352
  0
LINE
  5
54
100
AcDbEntity
  8
Calque_1
  6
ByLayer
 62
    7
370
   -1
100
AcDbLine
 10
25.18534318304186
 20
59.22549154835352
 11
25.71329696992381
 21
59.11647249118862
  0
LINE
  5
55
100
AcDbEntity
  8
Calque_1
  6
ByLayer
 62
    7
370
   -1
100
AcDbLine
 10
25.71329696992381
 20
59.11647249118862
 11
26.23763186660401
 21
58.99136291876741
  0
LINE
  5
56
100
AcDbEntity
  8
Calque_1
  6
ByLayer
 62
    7
370
   -1
100
AcDbLine
 10
26.23763186660401
 20
58.99136291876741
 11
26.75782301295694
 21
58.85030889124231
  0
LINE
  5
57
100
AcDbEntity
  8
Calque_1
  6
ByLayer
 62
    7
370
   -1
100
AcDbLine
 10
26.75782301295694
 20
58.85030889124231
 11
27.27334554885703
 21
58.69345646876572
  0
LINE
  5
58
100
AcDbEntity
  8
Calque_1
  6
ByLayer
 62
    7
370
   -1
100
AcDbLine
 10
27.27334554885703
 20
58.69345646876572
 11
27.78367461417878
 21
58.52095171149005
  0
LINE
  5
59
100
AcDbEntity
  8
Calque_1
  6
ByLayer
 62
    7
370
   -1
100
AcDbLine
 10
27.78367461417878
 20
58.52095171149005
 11
28.28828534879661
 21
58.33294067956766
  0
LINE
  5
5A
100
AcDbEntity
  8
Calque_1
  6
ByLayer
 62
    7
370
   -1
100
AcDbLine
 10
28.28828534879661
 20
58.33294067956766
 11
28.78665289258501
 21
58.12956943315095
  0
LINE
  5
5B
100
AcDbEntity
  8
Calque_1
  6
ByLayer
 62
    7
370
   -1
100
AcDbLine
 10
28.78665289258501
 20
58.12956943315095
 11
29.27825238541841
 21
57.91098403239234
  0
LINE
  5
5C
100
AcDbEntity
  8
Calque_1
  6
ByLayer
 62
    7
370
   -1
100
AcDbLine
 10
29.27825238541841
 20
57.91098403239234
 11
29.76255896717129
 21
57.6773305374442
  0
LINE
  5
5D
100
AcDbEntity
  8
Calque_1
  6
ByLayer
 62
    7
370
   -1
100
AcDbLine
 10
29.76255896717129
 20
57.6773305374442
 11
30.23904777771811
 21
57.42875500845893
  0
LINE
  5
5E
100
AcDbEntity
  8
Calque_1
  6
ByLayer
 62
    7
370
   -1
100
AcDbLine
 10
30.23904777771811
 20
57.42875500845893
 11
30.7071939569333
 21
57.16540350558894
  0
LINE
  5
5F
100
AcDbEntity
  8
Calque_1
  6
ByLayer
 62
    7
370
   -1
100
AcDbLine
 10
30.7071939569333
 20
57.16540350558894
 11
31.16647264469135
 21
56.8874220889866
  0
LINE
  5
60
100
AcDbEntity
  8
Calque_1
  6
ByLayer
 62
    7
370
   -1
100
AcDbLine
 10
31.16647264469135
 20
56.8874220889866
 11
31.6163589808667
 21
56.59495681880435
  0
LINE
  5
61
100
AcDbEntity
  8
Calque_1
  6
ByLayer
 62
    7
370
   -1
100
AcDbLine
 10
31.6163589808667
 20
56.59495681880435
 11
32.05632810533382
 21
56.28815375519453
  0
LINE
  5
62
100
AcDbEntity
  8
Calque_1
  6
ByLayer
 62
    7
370
   -1
100
AcDbLine
 10
32.05632810533382
 20
56.28815375519453
 11
32.48585515796717
 21
55.96715895830955
  0
LINE
  5
63
100
AcDbEntity
  8
Calque_1
  6
ByLayer
 62
    7
370
   -1
100
AcDbLine
 10
32.48585515796717
 20
55.96715895830955
 11
32.9044152786412
 21
55.63211848830183
  0
LINE
  5
64
100
AcDbEntity
  8
Calque_1
  6
ByLayer
 62
    7
370
   -1
100
AcDbLine
 10
32.9044152786412
 20
55.63211848830183
 11
33.31148360723037
 21
55.28317840532375
  0
LINE
  5
65
100
AcDbEntity
  8
Calque_1
  6
ByLayer
 62
    7
370
   -1
100
AcDbLine
 10
33.31148360723037
 20
55.28317840532375
 11
33.70653528360914
 21
54.92048476952772
  0
LINE
  5
66
100
AcDbEntity
  8
Calque_1
  6
ByLayer
 62
    7
370
   -1
100
AcDbLine
 10
33.70653528360914
 20
54.92048476952772
 11
34.08904544765197
 21
54.5441836410661
  0
LINE
  5
67
100
AcDbEntity
  8
Calque_1
  6
ByLayer
 62
    7
370
   -1
100
AcDbLine
 10
34.08904544765197
 20
54.5441836410661
 11
34.45848923923332
 21
54.1544210800913
  0
LINE
  5
68
100
AcDbEntity
  8
Calque_1
  6
ByLayer
 62
    7
370
   -1
100
AcDbLine
 10
34.45848923923332
 20
54.1544210800913
 11
34.81434179822764
 21
53.75134314675573
  0
LINE
  5
69
100
AcDbEntity
  8
Calque_1
  6
ByLayer
 62
    7
370
   -1
100
AcDbLine
 10
34.81434179822764
 20
53.75134314675573
 11
35.15607826450942
 21
53.33509590121178
  0
LINE
  5
6A
100
AcDbEntity
  8
Calque_1
  6
ByLayer
 62
    7
370
   -1
100
AcDbLine
 10
35.15607826450942
 20
53.33509590121178
 11
35.48317377795307
 21
52.90582540361184
  0
LINE
  5
6B
100
AcDbEntity
  8
Calque_1
  6
ByLayer
 62
    7
370
   -1
100
AcDbLine
 10
35.48317377795307
 20
52.90582540361184
 11
35.79510347843308
 21
52.46367771410829
  0
LINE
  5
6C
100
AcDbEntity
  8
Calque_1
  6
ByLayer
 62
    7
370
   -1
100
AcDbLine
 10
35.79510347843308
 20
52.46367771410829
 11
36.0913425058239
 21
52.00879889285355
  0
LINE
  5
6D
100
AcDbEntity
  8
Calque_1
  6
ByLayer
 62
    7
370
   -1
100
AcDbLine
 10
36.0913425058239
 20
52.00879889285355
 11
36.371366
 21
51.541335
  0
LINE
  5
6E
100
AcDbEntity
  8
Calque_1
  6
ByLayer
 62
    7
370
   -1
100
AcDbLine
 10
36.371366
 20
51.541335
 11
36.59922773978718
 21
51.18136040978818
  0
LINE
  5
6F
100
AcDbEntity
  8
Calque_1
  6
ByLayer
 62
    7
370
   -1
100
AcDbLine
 10
36.59922773978718
 20
51.18136040978818
 11
36.81618077989997
 21
50.81529203480918
  0
LINE
  5
70
100
AcDbEntity
  8
Calque_1
  6
ByLayer
 62
    7
370
   -1
100
AcDbLine
 10
36.81618077989997
 20
50.81529203480918
 11
37.02216039985231
 21
50.44344135564432
  0
LINE
  5
71
100
AcDbEntity
  8
Calque_1
  6
ByLayer
 62
    7
370
   -1
100
AcDbLine
 10
37.02216039985231
 20
50.44344135564432
 11
37.21710187915814
 21
50.06611985287503
  0
LINE
  5
72
100
AcDbEntity
  8
Calque_1
  6
ByLayer
 62
    7
370
   -1
100
AcDbLine
 10
37.21710187915814
 20
50.06611985287503
 11
37.40094049733141
 21
49.68363900708268
  0
LINE
  5
73
100
AcDbEntity
  8
Calque_1
  6
ByLayer
 62
    7
370
   -1
100
AcDbLine
 10
37.40094049733141
 20
49.68363900708268
 11
37.57361153388608
 21
49.29631029884865
  0
LINE
  5
74
100
AcDbEntity
  8
Calque_1
  6
ByLayer
 62
    7
370
   -1
100
AcDbLine
 10
37.57361153388608
 20
49.29631029884865
 11
37.73505026833608
 21
48.90444520875432
  0
LINE
  5
75
100
AcDbEntity
  8
Calque_1
  6
ByLayer
 62
    7
370
   -1
100
AcDbLine
 10
37.73505026833608
 20
48.90444520875432
 11
37.88519198019537
 21
48.50835521738109
  0
LINE
  5
76
100
AcDbEntity
  8
Calque_1
  6
ByLayer
 62
    7
370
   -1
100
AcDbLine
 10
37.88519198019537
 20
48.50835521738109
 11
38.02397194897787
 21
48.10835180531032
  0
LINE
  5
77
100
AcDbEntity
  8
Calque_1
  6
ByLayer
 62
    7
370
   -1
100
AcDbLine
 10
38.02397194897787
 20
48.10835180531032
 11
38.15132545419758
 21
47.70474645312343
  0
LINE
  5
78
100
AcDbEntity
  8
Calque_1
  6
ByLayer
 62
    7
370
   -1
100
AcDbLine
 10
38.15132545419758
 20
47.70474645312343
 11
38.2671877753684
 21
47.29785064140177
  0
LINE
  5
79
100
AcDbEntity
  8
Calque_1
  6
ByLayer
 62
    7
370
   -1
100
AcDbLine
 10
38.2671877753684
 20
47.29785064140177
 11
38.37149419200429
 21
46.88797585072673
  0
LINE
  5
7A
100
AcDbEntity
  8
Calque_1
  6
ByLayer
 62
    7
370
   -1
100
AcDbLine
 10
38.37149419200429
 20
46.88797585072673
 11
38.46417998361922
 21
46.47543356167971
  0
LINE
  5
7B
100
AcDbEntity
  8
Calque_1
  6
ByLayer
 62
    7
370
   -1
100
AcDbLine
 10
38.46417998361922
 20
46.47543356167971
 11
38.5451804297271
 21
46.06053525484207
  0
LINE
  5
7C
100
AcDbEntity
  8
Calque_1
  6
ByLayer
 62
    7
370
   -1
100
AcDbLine
 10
38.5451804297271
 20
46.06053525484207
 11
38.61443080984191
 21
45.64359241079521
  0
LINE
  5
7D
100
AcDbEntity
  8
Calque_1
  6
ByLayer
 62
    7
370
   -1
100
AcDbLine
 10
38.61443080984191
 20
45.64359241079521
 11
38.67186640347757
 21
45.22491651012051
  0
LINE
  5
7E
100
AcDbEntity
  8
Calque_1
  6
ByLayer
 62
    7
370
   -1
100
AcDbLine
 10
38.67186640347757
 20
45.22491651012051
 11
38.71742249014803
 21
44.80481903339935
  0
LINE
  5
7F
100
AcDbEntity
  8
Calque_1
  6
ByLayer
 62
    7
370
   -1
100
AcDbLine
 10
38.71742249014803
 20
44.80481903339935
 11
38.75103434936726
 21
44.38361146121312
  0
LINE
  5
80
100
AcDbEntity
  8
Calque_1
  6
ByLayer
 62
    7
370
   -1
100
AcDbLine
 10
38.75103434936726
 20
44.38361146121312
 11
38.77263726064919
 21
43.9616052741432
  0
LINE
  5
81
100
AcDbEntity
  8
Calque_1
  6
ByLayer
 62
    7
370
   -1
100
AcDbLine
 10
38.77263726064919
 20
43.9616052741432
 11
38.78216650350777
 21
43.53911195277097
  0
LINE
  5
82
100
AcDbEntity
  8
Calque_1
  6
ByLayer
 62
    7
370
   -1
100
AcDbLine
 10
38.78216650350777
 20
43.53911195277097
 11
38.77955735745695
 21
43.11644297767783
  0
LINE
  5
83
100
AcDbEntity
  8
Calque_1
  6
ByLayer
 62
    7
370
   -1
100
AcDbLine
 10
38.77955735745695
 20
43.11644297767783
 11
38.76474510201068
 21
42.69390982944515
  0
LINE
  5
84
100
AcDbEntity
  8
Calque_1
  6
ByLayer
 62
    7
370
   -1
100
AcDbLine
 10
38.76474510201068
 20
42.69390982944515
 11
38.7376650166829
 21
42.2718239886543
  0
LINE
  5
85
100
AcDbEntity
  8
Calque_1
  6
ByLayer
 62
    7
370
   -1
100
AcDbLine
 10
38.7376650166829
 20
42.2718239886543
 11
38.69825238098755
 21
41.85049693588668
  0
LINE
  5
86
100
AcDbEntity
  8
Calque_1
  6
ByLayer
 62
    7
370
   -1
100
AcDbLine
 10
38.69825238098755
 20
41.85049693588668
 11
38.64644247443859
 21
41.43024015172368
  0
LINE
  5
87
100
AcDbEntity
  8
Calque_1
  6
ByLayer
 62
    7
370
   -1
100
AcDbLine
 10
38.64644247443859
 20
41.43024015172368
 11
38.58217057654996
 21
41.01136511674667
  0
LINE
  5
88
100
AcDbEntity
  8
Calque_1
  6
ByLayer
 62
    7
370
   -1
100
AcDbLine
 10
38.58217057654996
 20
41.01136511674667
 11
38.50537196683563
 21
40.59418331153705
  0
LINE
  5
89
100
AcDbEntity
  8
Calque_1
  6
ByLayer
 62
    7
370
   -1
100
AcDbLine
 10
38.50537196683563
 20
40.59418331153705
 11
38.41598192480951
 21
40.17900621667619
  0
LINE
  5
8A
100
AcDbEntity
  8
Calque_1
  6
ByLayer
 62
    7
370
   -1
100
AcDbLine
 10
38.41598192480951
 20
40.17900621667619
 11
38.31393572998557
 21
39.76614531274546
  0
LINE
  5
8B
100
AcDbEntity
  8
Calque_1
  6
ByLayer
 62
    7
370
   -1
100
AcDbLine
 10
38.31393572998557
 20
39.76614531274546
 11
38.19916866187775
 21
39.35591208032628
  0
LINE
  5
8C
100
AcDbEntity
  8
Calque_1
  6
ByLayer
 62
    7
370
   -1
100
AcDbLine
 10
38.19916866187775
 20
39.35591208032628
 11
38.071616
 21
38.948618
  0
LINE
  5
8D
100
AcDbEntity
  8
Calque_1
  6
ByLayer
 62
    7
370
   -1
100
AcDbLine
 10
38.071616
 20
38.948618
 11
38.049231397704
 21
38.8160117557316
  0
LINE
  5
8E
100
AcDbEntity
  8
Calque_1
  6
ByLayer
 62
    7
370
   -1
100
AcDbLine
 10
38.049231397704
 20
38.8160117557316
 11
38.02352769776107
 21
38.68150797717431
  0
LINE
  5
8F
100
AcDbEntity
  8
Calque_1
  6
ByLayer
 62
    7
370
   -1
100
AcDbLine
 10
38.02352769776107
 20
38.68150797717431
 11
37.995005673492
 21
38.54527145053875
  0
LINE
  5
90
100
AcDbEntity
  8
Calque_1
  6
ByLayer
 62
    7
370
   -1
100
AcDbLine
 10
37.995005673492
 20
38.54527145053875
 11
37.96416609821759
 21
38.40746696203551
  0
LINE
  5
91
100
AcDbEntity
  8
Calque_1
  6
ByLayer
 62
    7
370
   -1
100
AcDbLine
 10
37.96416609821759
 20
38.40746696203551
 11
37.93150974525863
 21
38.26825929787519
  0
LINE
  5
92
100
AcDbEntity
  8
Calque_1
  6
ByLayer
 62
    7
370
   -1
100
AcDbLine
 10
37.93150974525863
 20
38.26825929787519
 11
37.89753738793596
 21
38.12781324426841
  0
LINE
  5
93
100
AcDbEntity
  8
Calque_1
  6
ByLayer
 62
    7
370
   -1
100
AcDbLine
 10
37.89753738793596
 20
38.12781324426841
 11
37.86274979957034
 21
37.98629358742574
  0
LINE
  5
94
100
AcDbEntity
  8
Calque_1
  6
ByLayer
 62
    7
370
   -1
100
AcDbLine
 10
37.86274979957034
 20
37.98629358742574
 11
37.82764775348259
 21
37.84386511355778
  0
LINE
  5
95
100
AcDbEntity
  8
Calque_1
  6
ByLayer
 62
    7
370
   -1
100
AcDbLine
 10
37.82764775348259
 20
37.84386511355778
 11
37.79273202299352
 21
37.70069260887516
  0
LINE
  5
96
100
AcDbEntity
  8
Calque_1
  6
ByLayer
 62
    7
370
   -1
100
AcDbLine
 10
37.79273202299352
 20
37.70069260887516
 11
37.75850338142391
 21
37.55694085958847
  0
LINE
  5
97
100
AcDbEntity
  8
Calque_1
  6
ByLayer
 62
    7
370
   -1
100
AcDbLine
 10
37.75850338142391
 20
37.55694085958847
 11
37.72546260209459
 21
37.4127746519083
  0
LINE
  5
98
100
AcDbEntity
  8
Calque_1
  6
ByLayer
 62
    7
370
   -1
100
AcDbLine
 10
37.72546260209459
 20
37.4127746519083
 11
37.69411045832634
 21
37.26835877204525
  0
LINE
  5
99
100
AcDbEntity
  8
Calque_1
  6
ByLayer
 62
    7
370
   -1
100
AcDbLine
 10
37.69411045832634
 20
37.26835877204525
 11
37.66494772343997
 21
37.12385800620993
  0
LINE
  5
9A
100
AcDbEntity
  8
Calque_1
  6
ByLayer
 62
    7
370
   -1
100
AcDbLine
 10
37.66494772343997
 20
37.12385800620993
 11
37.63847517075627
 21
36.97943714061294
  0
LINE
  5
9B
100
AcDbEntity
  8
Calque_1
  6
ByLayer
 62
    7
370
   -1
100
AcDbLine
 10
37.63847517075627
 20
36.97943714061294
 11
37.61519357359606
 21
36.83526096146488
  0
LINE
  5
9C
100
AcDbEntity
  8
Calque_1
  6
ByLayer
 62
    7
370
   -1
100
AcDbLine
 10
37.61519357359606
 20
36.83526096146488
 11
37.59560370528011
 21
36.69149425497633
  0
LINE
  5
9D
100
AcDbEntity
  8
Calque_1
  6
ByLayer
 62
    7
370
   -1
100
AcDbLine
 10
37.59560370528011
 20
36.69149425497633
 11
37.58020633912926
 21
36.54830180735792
  0
LINE
  5
9E
100
AcDbEntity
  8
Calque_1
  6
ByLayer
 62
    7
370
   -1
100
AcDbLine
 10
37.58020633912926
 20
36.54830180735792
 11
37.5695022484643
 21
36.40584840482025
  0
LINE
  5
9F
100
AcDbEntity
  8
Calque_1
  6
ByLayer
 62
    7
370
   -1
100
AcDbLine
 10
37.5695022484643
 20
36.40584840482025
 11
37.56399220660602
 21
36.2642988335739
  0
LINE
  5
A0
100
AcDbEntity
  8
Calque_1
  6
ByLayer
 62
    7
370
   -1
100
AcDbLine
 10
37.56399220660602
 20
36.2642988335739
 11
37.56417698687523
 21
36.12381787982948
  0
LINE
  5
A1
100
AcDbEntity
  8
Calque_1
  6
ByLayer
 62
    7
370
   -1
100
AcDbLine
 10
37.56417698687523
 20
36.12381787982948
 11
37.57055736259272
 21
35.98457032979759
  0
LINE
  5
A2
100
AcDbEntity
  8
Calque_1
  6
ByLayer
 62
    7
370
   -1
100
AcDbLine
 10
37.57055736259272
 20
35.98457032979759
 11
37.58363410707932
 21
35.84672096968883
  0
LINE
  5
A3
100
AcDbEntity
  8
Calque_1
  6
ByLayer
 62
    7
370
   -1
100
AcDbLine
 10
37.58363410707932
 20
35.84672096968883
 11
37.6039079936558
 21
35.71043458571381
  0
LINE
  5
A4
100
AcDbEntity
  8
Calque_1
  6
ByLayer
 62
    7
370
   -1
100
AcDbLine
 10
37.6039079936558
 20
35.71043458571381
 11
37.63187979564298
 21
35.57587596408311
  0
LINE
  5
A5
100
AcDbEntity
  8
Calque_1
  6
ByLayer
 62
    7
370
   -1
100
AcDbLine
 10
37.63187979564298
 20
35.57587596408311
 11
37.66805028636165
 21
35.44320989100736
  0
LINE
  5
A6
100
AcDbEntity
  8
Calque_1
  6
ByLayer
 62
    7
370
   -1
100
AcDbLine
 10
37.66805028636165
 20
35.44320989100736
 11
37.71292023913262
 21
35.31260115269713
  0
LINE
  5
A7
100
AcDbEntity
  8
Calque_1
  6
ByLayer
 62
    7
370
   -1
100
AcDbLine
 10
37.71292023913262
 20
35.31260115269713
 11
37.7669904272767
 21
35.18421453536303
  0
LINE
  5
A8
100
AcDbEntity
  8
Calque_1
  6
ByLayer
 62
    7
370
   -1
100
AcDbLine
 10
37.7669904272767
 20
35.18421453536303
 11
37.83076162411466
 21
35.05821482521567
  0
LINE
  5
A9
100
AcDbEntity
  8
Calque_1
  6
ByLayer
 62
    7
370
   -1
100
AcDbLine
 10
37.83076162411466
 20
35.05821482521567
 11
37.90473460296734
 21
34.93476680846565
  0
LINE
  5
AA
100
AcDbEntity
  8
Calque_1
  6
ByLayer
 62
    7
370
   -1
100
AcDbLine
 10
37.90473460296734
 20
34.93476680846565
 11
37.98941013715552
 21
34.81403527132355
  0
LINE
  5
AB
100
AcDbEntity
  8
Calque_1
  6
ByLayer
 62
    7
370
   -1
100
AcDbLine
 10
37.98941013715552
 20
34.81403527132355
 11
38.085289
 21
34.696185
  0
LINE
  5
AC
100
AcDbEntity
  8
Calque_1
  6
ByLayer
 62
    7
370
   -1
100
AcDbLine
 10
38.085289
 20
34.696185
 11
38.24812922634353
 21
34.44351029354503
  0
LINE
  5
AD
100
AcDbEntity
  8
Calque_1
  6
ByLayer
 62
    7
370
   -1
100
AcDbLine
 10
38.24812922634353
 20
34.44351029354503
 11
38.40173488775135
 21
34.18159371464537
  0
LINE
  5
AE
100
AcDbEntity
  8
Calque_1
  6
ByLayer
 62
    7
370
   -1
100
AcDbLine
 10
38.40173488775135
 20
34.18159371464537
 11
38.54576129649895
 21
33.91121021916015
  0
LINE
  5
AF
100
AcDbEntity
  8
Calque_1
  6
ByLayer
 62
    7
370
   -1
100
AcDbLine
 10
38.54576129649895
 20
33.91121021916015
 11
38.67986376486187
 21
33.63313476294855
  0
LINE
  5
B0
100
AcDbEntity
  8
Calque_1
  6
ByLayer
 62
    7
370
   -1
100
AcDbLine
 10
38.67986376486187
 20
33.63313476294855
 11
38.80369760511564
 21
33.34814230186969
  0
LINE
  5
B1
100
AcDbEntity
  8
Calque_1
  6
ByLayer
 62
    7
370
   -1
100
AcDbLine
 10
38.80369760511564
 20
33.34814230186969
 11
38.91691812953577
 21
33.05700779178276
  0
LINE
  5
B2
100
AcDbEntity
  8
Calque_1
  6
ByLayer
 62
    7
370
   -1
100
AcDbLine
 10
38.91691812953577
 20
33.05700779178276
 11
39.01918065039778
 21
32.76050618854688
  0
LINE
  5
B3
100
AcDbEntity
  8
Calque_1
  6
ByLayer
 62
    7
370
   -1
100
AcDbLine
 10
39.01918065039778
 20
32.76050618854688
 11
39.11014047997718
 21
32.45941244802122
  0
LINE
  5
B4
100
AcDbEntity
  8
Calque_1
  6
ByLayer
 62
    7
370
   -1
100
AcDbLine
 10
39.11014047997718
 20
32.45941244802122
 11
39.18945293054949
 21
32.15450152606492
  0
LINE
  5
B5
100
AcDbEntity
  8
Calque_1
  6
ByLayer
 62
    7
370
   -1
100
AcDbLine
 10
39.18945293054949
 20
32.15450152606492
 11
39.25677331439025
 21
31.84654837853715
  0
LINE
  5
B6
100
AcDbEntity
  8
Calque_1
  6
ByLayer
 62
    7
370
   -1
100
AcDbLine
 10
39.25677331439025
 20
31.84654837853715
 11
39.31175694377497
 21
31.53632796129704
  0
LINE
  5
B7
100
AcDbEntity
  8
Calque_1
  6
ByLayer
 62
    7
370
   -1
100
AcDbLine
 10
39.31175694377497
 20
31.53632796129704
 11
39.35405913097915
 21
31.22461523020375
  0
LINE
  5
B8
100
AcDbEntity
  8
Calque_1
  6
ByLayer
 62
    7
370
   -1
100
AcDbLine
 10
39.35405913097915
 20
31.22461523020375
 11
39.38333518827834
 21
30.91218514111645
  0
LINE
  5
B9
100
AcDbEntity
  8
Calque_1
  6
ByLayer
 62
    7
370
   -1
100
AcDbLine
 10
39.38333518827834
 20
30.91218514111645
 11
39.39924042794804
 21
30.59981264989426
  0
LINE
  5
BA
100
AcDbEntity
  8
Calque_1
  6
ByLayer
 62
    7
370
   -1
100
AcDbLine
 10
39.39924042794804
 20
30.59981264989426
 11
39.40143016226376
 21
30.28827271239636
  0
LINE
  5
BB
100
AcDbEntity
  8
Calque_1
  6
ByLayer
 62
    7
370
   -1
100
AcDbLine
 10
39.40143016226376
 20
30.28827271239636
 11
39.38955970350105
 21
29.97834028448189
  0
LINE
  5
BC
100
AcDbEntity
  8
Calque_1
  6
ByLayer
 62
    7
370
   -1
100
AcDbLine
 10
39.38955970350105
 20
29.97834028448189
 11
39.36328436393542
 21
29.67079032201001
  0
LINE
  5
BD
100
AcDbEntity
  8
Calque_1
  6
ByLayer
 62
    7
370
   -1
100
AcDbLine
 10
39.36328436393542
 20
29.67079032201001
 11
39.32225945584237
 21
29.36639778083986
  0
LINE
  5
BE
100
AcDbEntity
  8
Calque_1
  6
ByLayer
 62
    7
370
   -1
100
AcDbLine
 10
39.32225945584237
 20
29.36639778083986
 11
39.26614029149744
 21
29.06593761683059
  0
LINE
  5
BF
100
AcDbEntity
  8
Calque_1
  6
ByLayer
 62
    7
370
   -1
100
AcDbLine
 10
39.26614029149744
 20
29.06593761683059
 11
39.19458218317612
 21
28.77018478584137
  0
LINE
  5
C0
100
AcDbEntity
  8
Calque_1
  6
ByLayer
 62
    7
370
   -1
100
AcDbLine
 10
39.19458218317612
 20
28.77018478584137
 11
39.10724044315397
 21
28.47991424373133
  0
LINE
  5
C1
100
AcDbEntity
  8
Calque_1
  6
ByLayer
 62
    7
370
   -1
100
AcDbLine
 10
39.10724044315397
 20
28.47991424373133
 11
39.0037703837065
 21
28.19590094635964
  0
LINE
  5
C2
100
AcDbEntity
  8
Calque_1
  6
ByLayer
 62
    7
370
   -1
100
AcDbLine
 10
39.0037703837065
 20
28.19590094635964
 11
38.88382731710919
 21
27.91891984958545
  0
LINE
  5
C3
100
AcDbEntity
  8
Calque_1
  6
ByLayer
 62
    7
370
   -1
100
AcDbLine
 10
38.88382731710919
 20
27.91891984958545
 11
38.74706655563761
 21
27.64974590926791
  0
LINE
  5
C4
100
AcDbEntity
  8
Calque_1
  6
ByLayer
 62
    7
370
   -1
100
AcDbLine
 10
38.74706655563761
 20
27.64974590926791
 11
38.59314341156725
 21
27.38915408126616
  0
LINE
  5
C5
100
AcDbEntity
  8
Calque_1
  6
ByLayer
 62
    7
370
   -1
100
AcDbLine
 10
38.59314341156725
 20
27.38915408126616
 11
38.42171319717364
 21
27.13791932143936
  0
LINE
  5
C6
100
AcDbEntity
  8
Calque_1
  6
ByLayer
 62
    7
370
   -1
100
AcDbLine
 10
38.42171319717364
 20
27.13791932143936
 11
38.23243122473231
 21
26.89681658564668
  0
LINE
  5
C7
100
AcDbEntity
  8
Calque_1
  6
ByLayer
 62
    7
370
   -1
100
AcDbLine
 10
38.23243122473231
 20
26.89681658564668
 11
38.02495280651875
 21
26.66662082974725
  0
LINE
  5
C8
100
AcDbEntity
  8
Calque_1
  6
ByLayer
 62
    7
370
   -1
100
AcDbLine
 10
38.02495280651875
 20
26.66662082974725
 11
37.7989332548085
 21
26.44810700960022
  0
LINE
  5
C9
100
AcDbEntity
  8
Calque_1
  6
ByLayer
 62
    7
370
   -1
100
AcDbLine
 10
37.7989332548085
 20
26.44810700960022
 11
37.55402788187708
 21
26.24205008106475
  0
LINE
  5
CA
100
AcDbEntity
  8
Calque_1
  6
ByLayer
 62
    7
370
   -1
100
AcDbLine
 10
37.55402788187708
 20
26.24205008106475
 11
37.289892
 21
26.049225
  0
LINE
  5
CB
100
AcDbEntity
  8
Calque_1
  6
ByLayer
 62
    7
370
   -1
100
AcDbLine
 10
37.289892
 20
26.049225
 11
37.11489051471921
 21
26.0016997972542
  0
LINE
  5
CC
100
AcDbEntity
  8
Calque_1
  6
ByLayer
 62
    7
370
   -1
100
AcDbLine
 10
37.11489051471921
 20
26.0016997972542
 11
36.94408584303985
 21
25.95106225628545
  0
LINE
  5
CD
100
AcDbEntity
  8
Calque_1
  6
ByLayer
 62
    7
370
   -1
100
AcDbLine
 10
36.94408584303985
 20
25.95106225628545
 11
36.77762291927092
 21
25.89718183283542
  0
LINE
  5
CE
100
AcDbEntity
  8
Calque_1
  6
ByLayer
 62
    7
370
   -1
100
AcDbLine
 10
36.77762291927092
 20
25.89718183283542
 11
36.61564667772146
 21
25.83992798264577
  0
LINE
  5
CF
100
AcDbEntity
  8
Calque_1
  6
ByLayer
 62
    7
370
   -1
100
AcDbLine
 10
36.61564667772146
 20
25.83992798264577
 11
36.45830205270048
 21
25.77917016145816
  0
LINE
  5
D0
100
AcDbEntity
  8
Calque_1
  6
ByLayer
 62
    7
370
   -1
100
AcDbLine
 10
36.45830205270048
 20
25.77917016145816
 11
36.30573397851701
 21
25.71477782501427
  0
LINE
  5
D1
100
AcDbEntity
  8
Calque_1
  6
ByLayer
 62
    7
370
   -1
100
AcDbLine
 10
36.30573397851701
 20
25.71477782501427
 11
36.15808738948004
 21
25.64662042905575
  0
LINE
  5
D2
100
AcDbEntity
  8
Calque_1
  6
ByLayer
 62
    7
370
   -1
100
AcDbLine
 10
36.15808738948004
 20
25.64662042905575
 11
36.01550721989862
 21
25.57456742932429
  0
LINE
  5
D3
100
AcDbEntity
  8
Calque_1
  6
ByLayer
 62
    7
370
   -1
100
AcDbLine
 10
36.01550721989862
 20
25.57456742932429
 11
35.87813840408177
 21
25.49848828156154
  0
LINE
  5
D4
100
AcDbEntity
  8
Calque_1
  6
ByLayer
 62
    7
370
   -1
100
AcDbLine
 10
35.87813840408177
 20
25.49848828156154
 11
35.74612587633849
 21
25.41825244150918
  0
LINE
  5
D5
100
AcDbEntity
  8
Calque_1
  6
ByLayer
 62
    7
370
   -1
100
AcDbLine
 10
35.74612587633849
 20
25.41825244150918
 11
35.61961457097781
 21
25.33372936490887
  0
LINE
  5
D6
100
AcDbEntity
  8
Calque_1
  6
ByLayer
 62
    7
370
   -1
100
AcDbLine
 10
35.61961457097781
 20
25.33372936490887
 11
35.49874942230875
 21
25.24478850750227
  0
LINE
  5
D7
100
AcDbEntity
  8
Calque_1
  6
ByLayer
 62
    7
370
   -1
100
AcDbLine
 10
35.49874942230875
 20
25.24478850750227
 11
35.38367536464033
 21
25.15129932503105
  0
LINE
  5
D8
100
AcDbEntity
  8
Calque_1
  6
ByLayer
 62
    7
370
   -1
100
AcDbLine
 10
35.38367536464033
 20
25.15129932503105
 11
35.27453733228156
 21
25.05313127323689
  0
LINE
  5
D9
100
AcDbEntity
  8
Calque_1
  6
ByLayer
 62
    7
370
   -1
100
AcDbLine
 10
35.27453733228156
 20
25.05313127323689
 11
35.17148025954147
 21
24.95015380786144
  0
LINE
  5
DA
100
AcDbEntity
  8
Calque_1
  6
ByLayer
 62
    7
370
   -1
100
AcDbLine
 10
35.17148025954147
 20
24.95015380786144
 11
35.07464908072907
 21
24.84223638464637
  0
LINE
  5
DB
100
AcDbEntity
  8
Calque_1
  6
ByLayer
 62
    7
370
   -1
100
AcDbLine
 10
35.07464908072907
 20
24.84223638464637
 11
34.9841887301534
 21
24.72924845933336
  0
LINE
  5
DC
100
AcDbEntity
  8
Calque_1
  6
ByLayer
 62
    7
370
   -1
100
AcDbLine
 10
34.9841887301534
 20
24.72924845933336
 11
34.90024414212346
 21
24.61105948766406
  0
LINE
  5
DD
100
AcDbEntity
  8
Calque_1
  6
ByLayer
 62
    7
370
   -1
100
AcDbLine
 10
34.90024414212346
 20
24.61105948766406
 11
34.82296025094827
 21
24.48753892538015
  0
LINE
  5
DE
100
AcDbEntity
  8
Calque_1
  6
ByLayer
 62
    7
370
   -1
100
AcDbLine
 10
34.82296025094827
 20
24.48753892538015
 11
34.75248199093686
 21
24.35855622822329
  0
LINE
  5
DF
100
AcDbEntity
  8
Calque_1
  6
ByLayer
 62
    7
370
   -1
100
AcDbLine
 10
34.75248199093686
 20
24.35855622822329
 11
34.68895429639824
 21
24.22398085193515
  0
LINE
  5
E0
100
AcDbEntity
  8
Calque_1
  6
ByLayer
 62
    7
370
   -1
100
AcDbLine
 10
34.68895429639824
 20
24.22398085193515
 11
34.63252210164144
 21
24.0836822522574
  0
LINE
  5
E1
100
AcDbEntity
  8
Calque_1
  6
ByLayer
 62
    7
370
   -1
100
AcDbLine
 10
34.63252210164144
 20
24.0836822522574
 11
34.58333034097546
 21
23.93752988493169
  0
LINE
  5
E2
100
AcDbEntity
  8
Calque_1
  6
ByLayer
 62
    7
370
   -1
100
AcDbLine
 10
34.58333034097546
 20
23.93752988493169
 11
34.54152394870934
 21
23.78539320569971
  0
LINE
  5
E3
100
AcDbEntity
  8
Calque_1
  6
ByLayer
 62
    7
370
   -1
100
AcDbLine
 10
34.54152394870934
 20
23.78539320569971
 11
34.50724785915209
 21
23.62714167030312
  0
LINE
  5
E4
100
AcDbEntity
  8
Calque_1
  6
ByLayer
 62
    7
370
   -1
100
AcDbLine
 10
34.50724785915209
 20
23.62714167030312
 11
34.48064700661273
 21
23.46264473448357
  0
LINE
  5
E5
100
AcDbEntity
  8
Calque_1
  6
ByLayer
 62
    7
370
   -1
100
AcDbLine
 10
34.48064700661273
 20
23.46264473448357
 11
34.46186632540029
 21
23.29177185398275
  0
LINE
  5
E6
100
AcDbEntity
  8
Calque_1
  6
ByLayer
 62
    7
370
   -1
100
AcDbLine
 10
34.46186632540029
 20
23.29177185398275
 11
34.45105074982377
 21
23.11439248454231
  0
LINE
  5
E7
100
AcDbEntity
  8
Calque_1
  6
ByLayer
 62
    7
370
   -1
100
AcDbLine
 10
34.45105074982377
 20
23.11439248454231
 11
34.4483452141922
 21
22.93037608190394
  0
LINE
  5
E8
100
AcDbEntity
  8
Calque_1
  6
ByLayer
 62
    7
370
   -1
100
AcDbLine
 10
34.4483452141922
 20
22.93037608190394
 11
34.45389465281461
 21
22.73959210180928
  0
LINE
  5
E9
100
AcDbEntity
  8
Calque_1
  6
ByLayer
 62
    7
370
   -1
100
AcDbLine
 10
34.45389465281461
 20
22.73959210180928
 11
34.467844
 21
22.54191
  0
LINE
  5
EA
100
AcDbEntity
  8
Calque_1
  6
ByLayer
 62
    7
370
   -1
100
AcDbLine
 10
34.467844
 20
22.54191
 11
34.44975321096975
 21
22.20362124903495
  0
LINE
  5
EB
100
AcDbEntity
  8
Calque_1
  6
ByLayer
 62
    7
370
   -1
100
AcDbLine
 10
34.44975321096975
 20
22.20362124903495
 11
34.43531825591622
 21
21.86295601309121
  0
LINE
  5
EC
100
AcDbEntity
  8
Calque_1
  6
ByLayer
 62
    7
370
   -1
100
AcDbLine
 10
34.43531825591622
 20
21.86295601309121
 11
34.42381612386291
 21
21.52020517243463
  0
LINE
  5
ED
100
AcDbEntity
  8
Calque_1
  6
ByLayer
 62
    7
370
   -1
100
AcDbLine
 10
34.42381612386291
 20
21.52020517243463
 11
34.41452380383338
 21
21.17565960733107
  0
LINE
  5
EE
100
AcDbEntity
  8
Calque_1
  6
ByLayer
 62
    7
370
   -1
100
AcDbLine
 10
34.41452380383338
 20
21.17565960733107
 11
34.40671828485112
 21
20.82961019804639
  0
LINE
  5
EF
100
AcDbEntity
  8
Calque_1
  6
ByLayer
 62
    7
370
   -1
100
AcDbLine
 10
34.40671828485112
 20
20.82961019804639
 11
34.39967655593972
 21
20.48234782484643
  0
LINE
  5
F0
100
AcDbEntity
  8
Calque_1
  6
ByLayer
 62
    7
370
   -1
100
AcDbLine
 10
34.39967655593972
 20
20.48234782484643
 11
34.39267560612266
 21
20.13416336799704
  0
LINE
  5
F1
100
AcDbEntity
  8
Calque_1
  6
ByLayer
 62
    7
370
   -1
100
AcDbLine
 10
34.39267560612266
 20
20.13416336799704
 11
34.38499242442348
 21
19.78534770776409
  0
LINE
  5
F2
100
AcDbEntity
  8
Calque_1
  6
ByLayer
 62
    7
370
   -1
100
AcDbLine
 10
34.38499242442348
 20
19.78534770776409
 11
34.37590399986573
 21
19.43619172441341
  0
LINE
  5
F3
100
AcDbEntity
  8
Calque_1
  6
ByLayer
 62
    7
370
   -1
100
AcDbLine
 10
34.37590399986573
 20
19.43619172441341
 11
34.36468732147292
 21
19.08698629821087
  0
LINE
  5
F4
100
AcDbEntity
  8
Calque_1
  6
ByLayer
 62
    7
370
   -1
100
AcDbLine
 10
34.36468732147292
 20
19.08698629821087
 11
34.3506193782686
 21
18.73802230942231
  0
LINE
  5
F5
100
AcDbEntity
  8
Calque_1
  6
ByLayer
 62
    7
370
   -1
100
AcDbLine
 10
34.3506193782686
 20
18.73802230942231
 11
34.3329771592763
 21
18.38959063831359
  0
LINE
  5
F6
100
AcDbEntity
  8
Calque_1
  6
ByLayer
 62
    7
370
   -1
100
AcDbLine
 10
34.3329771592763
 20
18.38959063831359
 11
34.31103765351952
 21
18.04198216515055
  0
LINE
  5
F7
100
AcDbEntity
  8
Calque_1
  6
ByLayer
 62
    7
370
   -1
100
AcDbLine
 10
34.31103765351952
 20
18.04198216515055
 11
34.28407785002182
 21
17.69548777019905
  0
LINE
  5
F8
100
AcDbEntity
  8
Calque_1
  6
ByLayer
 62
    7
370
   -1
100
AcDbLine
 10
34.28407785002182
 20
17.69548777019905
 11
34.25137473780672
 21
17.35039833372495
  0
LINE
  5
F9
100
AcDbEntity
  8
Calque_1
  6
ByLayer
 62
    7
370
   -1
100
AcDbLine
 10
34.25137473780672
 20
17.35039833372495
 11
34.21220530589775
 21
17.00700473599409
  0
LINE
  5
FA
100
AcDbEntity
  8
Calque_1
  6
ByLayer
 62
    7
370
   -1
100
AcDbLine
 10
34.21220530589775
 20
17.00700473599409
 11
34.16584654331845
 21
16.66559785727233
  0
LINE
  5
FB
100
AcDbEntity
  8
Calque_1
  6
ByLayer
 62
    7
370
   -1
100
AcDbLine
 10
34.16584654331845
 20
16.66559785727233
 11
34.11157543909235
 21
16.32646857782552
  0
LINE
  5
FC
100
AcDbEntity
  8
Calque_1
  6
ByLayer
 62
    7
370
   -1
100
AcDbLine
 10
34.11157543909235
 20
16.32646857782552
 11
34.04866898224296
 21
15.98990777791951
  0
LINE
  5
FD
100
AcDbEntity
  8
Calque_1
  6
ByLayer
 62
    7
370
   -1
100
AcDbLine
 10
34.04866898224296
 20
15.98990777791951
 11
33.97640416179384
 21
15.65620633782015
  0
LINE
  5
FE
100
AcDbEntity
  8
Calque_1
  6
ByLayer
 62
    7
370
   -1
100
AcDbLine
 10
33.97640416179384
 20
15.65620633782015
 11
33.89405796676849
 21
15.32565513779329
  0
LINE
  5
FF
100
AcDbEntity
  8
Calque_1
  6
ByLayer
 62
    7
370
   -1
100
AcDbLine
 10
33.89405796676849
 20
15.32565513779329
 11
33.80090738619046
 21
14.9985450581048
  0
LINE
  5
100
100
AcDbEntity
  8
Calque_1
  6
ByLayer
 62
    7
370
   -1
100
AcDbLine
 10
33.80090738619046
 20
14.9985450581048
 11
33.69622940908329
 21
14.67516697902051
  0
LINE
  5
101
100
AcDbEntity
  8
Calque_1
  6
ByLayer
 62
    7
370
   -1
100
AcDbLine
 10
33.69622940908329
 20
14.67516697902051
 11
33.57930102447048
 21
14.35581178080629
  0
LINE
  5
102
100
AcDbEntity
  8
Calque_1
  6
ByLayer
 62
    7
370
   -1
100
AcDbLine
 10
33.57930102447048
 20
14.35581178080629
 11
33.44939922137559
 21
14.04077034372798
  0
LINE
  5
103
100
AcDbEntity
  8
Calque_1
  6
ByLayer
 62
    7
370
   -1
100
AcDbLine
 10
33.44939922137559
 20
14.04077034372798
 11
33.30580098882213
 21
13.73033354805143
  0
LINE
  5
104
100
AcDbEntity
  8
Calque_1
  6
ByLayer
 62
    7
370
   -1
100
AcDbLine
 10
33.30580098882213
 20
13.73033354805143
 11
33.14778331583365
 21
13.4247922740425
  0
LINE
  5
105
100
AcDbEntity
  8
Calque_1
  6
ByLayer
 62
    7
370
   -1
100
AcDbLine
 10
33.14778331583365
 20
13.4247922740425
 11
32.97462319143366
 21
13.12443740196704
  0
LINE
  5
106
100
AcDbEntity
  8
Calque_1
  6
ByLayer
 62
    7
370
   -1
100
AcDbLine
 10
32.97462319143366
 20
13.12443740196704
 11
32.7855976046457
 21
12.82955981209091
  0
LINE
  5
107
100
AcDbEntity
  8
Calque_1
  6
ByLayer
 62
    7
370
   -1
100
AcDbLine
 10
32.7855976046457
 20
12.82955981209091
 11
32.57998354449331
 21
12.54045038467994
  0
LINE
  5
108
100
AcDbEntity
  8
Calque_1
  6
ByLayer
 62
    7
370
   -1
100
AcDbLine
 10
32.57998354449331
 20
12.54045038467994
 11
32.357058
 21
12.2574
  0
LINE
  5
109
100
AcDbEntity
  8
Calque_1
  6
ByLayer
 62
    7
370
   -1
100
AcDbLine
 10
32.357058
 20
12.2574
 11
32.08294077610688
 21
11.925340885838
  0
LINE
  5
10A
100
AcDbEntity
  8
Calque_1
  6
ByLayer
 62
    7
370
   -1
100
AcDbLine
 10
32.08294077610688
 20
11.925340885838
 11
31.79788568856367
 21
11.60363298472693
  0
LINE
  5
10B
100
AcDbEntity
  8
Calque_1
  6
ByLayer
 62
    7
370
   -1
100
AcDbLine
 10
31.79788568856367
 20
11.60363298472693
 11
31.5022937748649
 21
11.29239729743882
  0
LINE
  5
10C
100
AcDbEntity
  8
Calque_1
  6
ByLayer
 62
    7
370
   -1
100
AcDbLine
 10
31.5022937748649
 20
11.29239729743882
 11
31.19656607250512
 21
10.99175482474573
  0
LINE
  5
10D
100
AcDbEntity
  8
Calque_1
  6
ByLayer
 62
    7
370
   -1
100
AcDbLine
 10
31.19656607250512
 20
10.99175482474573
 11
30.88110361897888
 21
10.70182656741969
  0
LINE
  5
10E
100
AcDbEntity
  8
Calque_1
  6
ByLayer
 62
    7
370
   -1
100
AcDbLine
 10
30.88110361897888
 20
10.70182656741969
 11
30.55630745178074
 21
10.42273352623276
  0
LINE
  5
10F
100
AcDbEntity
  8
Calque_1
  6
ByLayer
 62
    7
370
   -1
100
AcDbLine
 10
30.55630745178074
 20
10.42273352623276
 11
30.22257860840523
 21
10.15459670195697
  0
LINE
  5
110
100
AcDbEntity
  8
Calque_1
  6
ByLayer
 62
    7
370
   -1
100
AcDbLine
 10
30.22257860840523
 20
10.15459670195697
 11
29.88031812634688
 21
9.897537095364372
  0
LINE
  5
111
100
AcDbEntity
  8
Calque_1
  6
ByLayer
 62
    7
370
   -1
100
AcDbLine
 10
29.88031812634688
 20
9.897537095364372
 11
29.52992704310027
 21
9.651675707227016
  0
LINE
  5
112
100
AcDbEntity
  8
Calque_1
  6
ByLayer
 62
    7
370
   -1
100
AcDbLine
 10
29.52992704310027
 20
9.651675707227016
 11
29.17180639615992
 21
9.417133538316943
  0
LINE
  5
113
100
AcDbEntity
  8
Calque_1
  6
ByLayer
 62
    7
370
   -1
100
AcDbLine
 10
29.17180639615992
 20
9.417133538316943
 11
28.80635722302037
 21
9.194031589406197
  0
LINE
  5
114
100
AcDbEntity
  8
Calque_1
  6
ByLayer
 62
    7
370
   -1
100
AcDbLine
 10
28.80635722302037
 20
9.194031589406197
 11
28.4339805611762
 21
8.982490861266827
  0
LINE
  5
115
100
AcDbEntity
  8
Calque_1
  6
ByLayer
 62
    7
370
   -1
100
AcDbLine
 10
28.4339805611762
 20
8.982490861266827
 11
28.05507744812191
 21
8.782632354670875
  0
LINE
  5
116
100
AcDbEntity
  8
Calque_1
  6
ByLayer
 62
    7
370
   -1
100
AcDbLine
 10
28.05507744812191
 20
8.782632354670875
 11
27.67004892135209
 21
8.594577070390388
  0
LINE
  5
117
100
AcDbEntity
  8
Calque_1
  6
ByLayer
 62
    7
370
   -1
100
AcDbLine
 10
27.67004892135209
 20
8.594577070390388
 11
27.27929601836125
 21
8.41844600919741
  0
LINE
  5
118
100
AcDbEntity
  8
Calque_1
  6
ByLayer
 62
    7
370
   -1
100
AcDbLine
 10
27.27929601836125
 20
8.41844600919741
 11
26.88321977664395
 21
8.254360171863986
  0
LINE
  5
119
100
AcDbEntity
  8
Calque_1
  6
ByLayer
 62
    7
370
   -1
100
AcDbLine
 10
26.88321977664395
 20
8.254360171863986
 11
26.48222123369474
 21
8.102440559162165
  0
LINE
  5
11A
100
AcDbEntity
  8
Calque_1
  6
ByLayer
 62
    7
370
   -1
100
AcDbLine
 10
26.48222123369474
 20
8.102440559162165
 11
26.07670142700816
 21
7.962808171863988
  0
LINE
  5
11B
100
AcDbEntity
  8
Calque_1
  6
ByLayer
 62
    7
370
   -1
100
AcDbLine
 10
26.07670142700816
 20
7.962808171863988
 11
25.66706139407875
 21
7.8355840107415
  0
LINE
  5
11C
100
AcDbEntity
  8
Calque_1
  6
ByLayer
 62
    7
370
   -1
100
AcDbLine
 10
25.66706139407875
 20
7.8355840107415
 11
25.25370217240106
 21
7.72088907656675
  0
LINE
  5
11D
100
AcDbEntity
  8
Calque_1
  6
ByLayer
 62
    7
370
   -1
100
AcDbLine
 10
25.25370217240106
 20
7.72088907656675
 11
24.83702479946964
 21
7.61884437011178
  0
LINE
  5
11E
100
AcDbEntity
  8
Calque_1
  6
ByLayer
 62
    7
370
   -1
100
AcDbLine
 10
24.83702479946964
 20
7.61884437011178
 11
24.41743031277904
 21
7.529570892148637
  0
LINE
  5
11F
100
AcDbEntity
  8
Calque_1
  6
ByLayer
 62
    7
370
   -1
100
AcDbLine
 10
24.41743031277904
 20
7.529570892148637
 11
23.99531974982378
 21
7.453189643449365
  0
LINE
  5
120
100
AcDbEntity
  8
Calque_1
  6
ByLayer
 62
    7
370
   -1
100
AcDbLine
 10
23.99531974982378
 20
7.453189643449365
 11
23.57109414809842
 21
7.38982162478601
  0
LINE
  5
121
100
AcDbEntity
  8
Calque_1
  6
ByLayer
 62
    7
370
   -1
100
AcDbLine
 10
23.57109414809842
 20
7.38982162478601
 11
23.14515454509752
 21
7.339587836930617
  0
LINE
  5
122
100
AcDbEntity
  8
Calque_1
  6
ByLayer
 62
    7
370
   -1
100
AcDbLine
 10
23.14515454509752
 20
7.339587836930617
 11
22.7179019783156
 21
7.302609280655232
  0
LINE
  5
123
100
AcDbEntity
  8
Calque_1
  6
ByLayer
 62
    7
370
   -1
100
AcDbLine
 10
22.7179019783156
 20
7.302609280655232
 11
22.28973748524723
 21
7.2790069567319
  0
LINE
  5
124
100
AcDbEntity
  8
Calque_1
  6
ByLayer
 62
    7
370
   -1
100
AcDbLine
 10
22.28973748524723
 20
7.2790069567319
 11
21.86106210338694
 21
7.268901865932664
  0
LINE
  5
125
100
AcDbEntity
  8
Calque_1
  6
ByLayer
 62
    7
370
   -1
100
AcDbLine
 10
21.86106210338694
 20
7.268901865932664
 11
21.43227687022927
 21
7.272415009029572
  0
LINE
  5
126
100
AcDbEntity
  8
Calque_1
  6
ByLayer
 62
    7
370
   -1
100
AcDbLine
 10
21.43227687022927
 20
7.272415009029572
 11
21.00378282326878
 21
7.289667386794669
  0
LINE
  5
127
100
AcDbEntity
  8
Calque_1
  6
ByLayer
 62
    7
370
   -1
100
AcDbLine
 10
21.00378282326878
 20
7.289667386794669
 11
20.575981
 21
7.32078
  0
LINE
  5
128
100
AcDbEntity
  8
Calque_1
  6
ByLayer
 62
    7
370
   -1
100
AcDbLine
 10
20.575981
 20
7.32078
 11
20.18851264361719
 21
7.334745537007821
  0
LINE
  5
129
100
AcDbEntity
  8
Calque_1
  6
ByLayer
 62
    7
370
   -1
100
AcDbLine
 10
20.18851264361719
 20
7.334745537007821
 11
19.80136939555571
 21
7.361210010942903
  0
LINE
  5
12A
100
AcDbEntity
  8
Calque_1
  6
ByLayer
 62
    7
370
   -1
100
AcDbLine
 10
19.80136939555571
 20
7.361210010942903
 11
19.41489656809103
 21
7.400003667785573
  0
LINE
  5
12B
100
AcDbEntity
  8
Calque_1
  6
ByLayer
 62
    7
370
   -1
100
AcDbLine
 10
19.41489656809103
 20
7.400003667785573
 11
19.02943947349871
 21
7.450956753516163
  0
LINE
  5
12C
100
AcDbEntity
  8
Calque_1
  6
ByLayer
 62
    7
370
   -1
100
AcDbLine
 10
19.02943947349871
 20
7.450956753516163
 11
18.64534342405424
 21
7.513899514115001
  0
LINE
  5
12D
100
AcDbEntity
  8
Calque_1
  6
ByLayer
 62
    7
370
   -1
100
AcDbLine
 10
18.64534342405424
 20
7.513899514115001
 11
18.26295373203317
 21
7.58866219556242
  0
LINE
  5
12E
100
AcDbEntity
  8
Calque_1
  6
ByLayer
 62
    7
370
   -1
100
AcDbLine
 10
18.26295373203317
 20
7.58866219556242
 11
17.88261570971099
 21
7.675075043838744
  0
LINE
  5
12F
100
AcDbEntity
  8
Calque_1
  6
ByLayer
 62
    7
370
   -1
100
AcDbLine
 10
17.88261570971099
 20
7.675075043838744
 11
17.50467466936323
 21
7.772968304924306
  0
LINE
  5
130
100
AcDbEntity
  8
Calque_1
  6
ByLayer
 62
    7
370
   -1
100
AcDbLine
 10
17.50467466936323
 20
7.772968304924306
 11
17.12947592326541
 21
7.882172224799435
  0
LINE
  5
131
100
AcDbEntity
  8
Calque_1
  6
ByLayer
 62
    7
370
   -1
100
AcDbLine
 10
17.12947592326541
 20
7.882172224799435
 11
16.75736478369306
 21
8.002517049444464
  0
LINE
  5
132
100
AcDbEntity
  8
Calque_1
  6
ByLayer
 62
    7
370
   -1
100
AcDbLine
 10
16.75736478369306
 20
8.002517049444464
 11
16.38868656292169
 21
8.133833024839715
  0
LINE
  5
133
100
AcDbEntity
  8
Calque_1
  6
ByLayer
 62
    7
370
   -1
100
AcDbLine
 10
16.38868656292169
 20
8.133833024839715
 11
16.02378657322681
 21
8.275950396965525
  0
LINE
  5
134
100
AcDbEntity
  8
Calque_1
  6
ByLayer
 62
    7
370
   -1
100
AcDbLine
 10
16.02378657322681
 20
8.275950396965525
 11
15.66301012688396
 21
8.428699411802221
  0
LINE
  5
135
100
AcDbEntity
  8
Calque_1
  6
ByLayer
 62
    7
370
   -1
100
AcDbLine
 10
15.66301012688396
 20
8.428699411802221
 11
15.30670253616864
 21
8.591910315330132
  0
LINE
  5
136
100
AcDbEntity
  8
Calque_1
  6
ByLayer
 62
    7
370
   -1
100
AcDbLine
 10
15.30670253616864
 20
8.591910315330132
 11
14.95520911335639
 21
8.765413353529588
  0
LINE
  5
137
100
AcDbEntity
  8
Calque_1
  6
ByLayer
 62
    7
370
   -1
100
AcDbLine
 10
14.95520911335639
 20
8.765413353529588
 11
14.6088751707227
 21
8.949038772380918
  0
LINE
  5
138
100
AcDbEntity
  8
Calque_1
  6
ByLayer
 62
    7
370
   -1
100
AcDbLine
 10
14.6088751707227
 20
8.949038772380918
 11
14.26804602054312
 21
9.142616817864454
  0
LINE
  5
139
100
AcDbEntity
  8
Calque_1
  6
ByLayer
 62
    7
370
   -1
100
AcDbLine
 10
14.26804602054312
 20
9.142616817864454
 11
13.93306697509315
 21
9.345977735960524
  0
LINE
  5
13A
100
AcDbEntity
  8
Calque_1
  6
ByLayer
 62
    7
370
   -1
100
AcDbLine
 10
13.93306697509315
 20
9.345977735960524
 11
13.60428334664832
 21
9.558951772649454
  0
LINE
  5
13B
100
AcDbEntity
  8
Calque_1
  6
ByLayer
 62
    7
370
   -1
100
AcDbLine
 10
13.60428334664832
 20
9.558951772649454
 11
13.28204044748414
 21
9.781369173911582
  0
LINE
  5
13C
100
AcDbEntity
  8
Calque_1
  6
ByLayer
 62
    7
370
   -1
100
AcDbLine
 10
13.28204044748414
 20
9.781369173911582
 11
12.96668358987614
 21
10.01306018572723
  0
LINE
  5
13D
100
AcDbEntity
  8
Calque_1
  6
ByLayer
 62
    7
370
   -1
100
AcDbLine
 10
12.96668358987614
 20
10.01306018572723
 11
12.65855808609983
 21
10.25385505407673
  0
LINE
  5
13E
100
AcDbEntity
  8
Calque_1
  6
ByLayer
 62
    7
370
   -1
100
AcDbLine
 10
12.65855808609983
 20
10.25385505407673
 11
12.35800924843074
 21
10.50358402494042
  0
LINE
  5
13F
100
AcDbEntity
  8
Calque_1
  6
ByLayer
 62
    7
370
   -1
100
AcDbLine
 10
12.35800924843074
 20
10.50358402494042
 11
12.06538238914438
 21
10.76207734429861
  0
LINE
  5
140
100
AcDbEntity
  8
Calque_1
  6
ByLayer
 62
    7
370
   -1
100
AcDbLine
 10
12.06538238914438
 20
10.76207734429861
 11
11.78102282051627
 21
11.02916525813165
  0
LINE
  5
141
100
AcDbEntity
  8
Calque_1
  6
ByLayer
 62
    7
370
   -1
100
AcDbLine
 10
11.78102282051627
 20
11.02916525813165
 11
11.50527585482193
 21
11.30467801241985
  0
LINE
  5
142
100
AcDbEntity
  8
Calque_1
  6
ByLayer
 62
    7
370
   -1
100
AcDbLine
 10
11.50527585482193
 20
11.30467801241985
 11
11.23848680433689
 21
11.58844585314356
  0
LINE
  5
143
100
AcDbEntity
  8
Calque_1
  6
ByLayer
 62
    7
370
   -1
100
AcDbLine
 10
11.23848680433689
 20
11.58844585314356
 11
10.98100098133665
 21
11.8802990262831
  0
LINE
  5
144
100
AcDbEntity
  8
Calque_1
  6
ByLayer
 62
    7
370
   -1
100
AcDbLine
 10
10.98100098133665
 20
11.8802990262831
 11
10.73316369809674
 21
12.1800677778188
  0
LINE
  5
145
100
AcDbEntity
  8
Calque_1
  6
ByLayer
 62
    7
370
   -1
100
AcDbLine
 10
10.73316369809674
 20
12.1800677778188
 11
10.49532026689269
 21
12.48758235373099
  0
LINE
  5
146
100
AcDbEntity
  8
Calque_1
  6
ByLayer
 62
    7
370
   -1
100
AcDbLine
 10
10.49532026689269
 20
12.48758235373099
 11
10.267816
 21
12.802673
  0
LINE
  5
147
100
AcDbEntity
  8
Calque_1
  6
ByLayer
 62
    7
370
   -1
100
AcDbLine
 10
10.267816
 20
12.802673
 11
10.05326348121916
 21
13.11710679846262
  0
LINE
  5
148
100
AcDbEntity
  8
Calque_1
  6
ByLayer
 62
    7
370
   -1
100
AcDbLine
 10
10.05326348121916
 20
13.11710679846262
 11
9.858812719680444
 21
13.43657571028163
  0
LINE
  5
149
100
AcDbEntity
  8
Calque_1
  6
ByLayer
 62
    7
370
   -1
100
AcDbLine
 10
9.858812719680444
 20
13.43657571028163
 11
9.683438230170184
 21
13.76082207461985
  0
LINE
  5
14A
100
AcDbEntity
  8
Calque_1
  6
ByLayer
 62
    7
370
   -1
100
AcDbLine
 10
9.683438230170184
 20
13.76082207461985
 11
9.526114527474739
 21
14.08958823064013
  0
LINE
  5
14B
100
AcDbEntity
  8
Calque_1
  6
ByLayer
 62
    7
370
   -1
100
AcDbLine
 10
9.526114527474739
 20
14.08958823064013
 11
9.385816126380451
 21
14.42261651750529
  0
LINE
  5
14C
100
AcDbEntity
  8
Calque_1
  6
ByLayer
 62
    7
370
   -1
100
AcDbLine
 10
9.385816126380451
 20
14.42261651750529
 11
9.261517541673662
 21
14.75964927437817
  0
LINE
  5
14D
100
AcDbEntity
  8
Calque_1
  6
ByLayer
 62
    7
370
   -1
100
AcDbLine
 10
9.261517541673662
 20
14.75964927437817
 11
9.152193288140714
 21
15.10042884042161
  0
LINE
  5
14E
100
AcDbEntity
  8
Calque_1
  6
ByLayer
 62
    7
370
   -1
100
AcDbLine
 10
9.152193288140714
 20
15.10042884042161
 11
9.056817880567957
 21
15.44469755479843
  0
LINE
  5
14F
100
AcDbEntity
  8
Calque_1
  6
ByLayer
 62
    7
370
   -1
100
AcDbLine
 10
9.056817880567957
 20
15.44469755479843
 11
8.974365833741732
 21
15.79219775667148
  0
LINE
  5
150
100
AcDbEntity
  8
Calque_1
  6
ByLayer
 62
    7
370
   -1
100
AcDbLine
 10
8.974365833741732
 20
15.79219775667148
 11
8.903811662448389
 21
16.14267178520359
  0
LINE
  5
151
100
AcDbEntity
  8
Calque_1
  6
ByLayer
 62
    7
370
   -1
100
AcDbLine
 10
8.903811662448389
 20
16.14267178520359
 11
8.84412988147427
 21
16.49586197955758
  0
LINE
  5
152
100
AcDbEntity
  8
Calque_1
  6
ByLayer
 62
    7
370
   -1
100
AcDbLine
 10
8.84412988147427
 20
16.49586197955758
 11
8.79429500560572
 21
16.85151067889631
  0
LINE
  5
153
100
AcDbEntity
  8
Calque_1
  6
ByLayer
 62
    7
370
   -1
100
AcDbLine
 10
8.79429500560572
 20
16.85151067889631
 11
8.753281549629081
 21
17.2093602223826
  0
LINE
  5
154
100
AcDbEntity
  8
Calque_1
  6
ByLayer
 62
    7
370
   -1
100
AcDbLine
 10
8.753281549629081
 20
17.2093602223826
 11
8.720064028330704
 21
17.56915294917928
  0
LINE
  5
155
100
AcDbEntity
  8
Calque_1
  6
ByLayer
 62
    7
370
   -1
100
AcDbLine
 10
8.720064028330704
 20
17.56915294917928
 11
8.693616956496928
 21
17.93063119844919
  0
LINE
  5
156
100
AcDbEntity
  8
Calque_1
  6
ByLayer
 62
    7
370
   -1
100
AcDbLine
 10
8.693616956496928
 20
17.93063119844919
 11
8.6729148489141
 21
18.29353730935517
  0
LINE
  5
157
100
AcDbEntity
  8
Calque_1
  6
ByLayer
 62
    7
370
   -1
100
AcDbLine
 10
8.6729148489141
 20
18.29353730935517
 11
8.656932220368567
 21
18.65761362106005
  0
LINE
  5
158
100
AcDbEntity
  8
Calque_1
  6
ByLayer
 62
    7
370
   -1
100
AcDbLine
 10
8.656932220368567
 20
18.65761362106005
 11
8.644643585646673
 21
19.02260247272666
  0
LINE
  5
159
100
AcDbEntity
  8
Calque_1
  6
ByLayer
 62
    7
370
   -1
100
AcDbLine
 10
8.644643585646673
 20
19.02260247272666
 11
8.635023459534759
 21
19.38824620351784
  0
LINE
  5
15A
100
AcDbEntity
  8
Calque_1
  6
ByLayer
 62
    7
370
   -1
100
AcDbLine
 10
8.635023459534759
 20
19.38824620351784
 11
8.627046356819173
 21
19.75428715259642
  0
LINE
  5
15B
100
AcDbEntity
  8
Calque_1
  6
ByLayer
 62
    7
370
   -1
100
AcDbLine
 10
8.627046356819173
 20
19.75428715259642
 11
8.619686792286259
 21
20.12046765912524
  0
LINE
  5
15C
100
AcDbEntity
  8
Calque_1
  6
ByLayer
 62
    7
370
   -1
100
AcDbLine
 10
8.619686792286259
 20
20.12046765912524
 11
8.611919280722367
 21
20.48653006226712
  0
LINE
  5
15D
100
AcDbEntity
  8
Calque_1
  6
ByLayer
 62
    7
370
   -1
100
AcDbLine
 10
8.611919280722367
 20
20.48653006226712
 11
8.602718336913833
 21
20.85221670118491
  0
LINE
  5
15E
100
AcDbEntity
  8
Calque_1
  6
ByLayer
 62
    7
370
   -1
100
AcDbLine
 10
8.602718336913833
 20
20.85221670118491
 11
8.591058475647008
 21
21.21726991504145
  0
LINE
  5
15F
100
AcDbEntity
  8
Calque_1
  6
ByLayer
 62
    7
370
   -1
100
AcDbLine
 10
8.591058475647008
 20
21.21726991504145
 11
8.575914211708234
 21
21.58143204299956
  0
LINE
  5
160
100
AcDbEntity
  8
Calque_1
  6
ByLayer
 62
    7
370
   -1
100
AcDbLine
 10
8.575914211708234
 20
21.58143204299956
 11
8.556260059883858
 21
21.94444542422207
  0
LINE
  5
161
100
AcDbEntity
  8
Calque_1
  6
ByLayer
 62
    7
370
   -1
100
AcDbLine
 10
8.556260059883858
 20
21.94444542422207
 11
8.531070534960223
 21
22.30605239787184
  0
LINE
  5
162
100
AcDbEntity
  8
Calque_1
  6
ByLayer
 62
    7
370
   -1
100
AcDbLine
 10
8.531070534960223
 20
22.30605239787184
 11
8.499320151723676
 21
22.66599530311167
  0
LINE
  5
163
100
AcDbEntity
  8
Calque_1
  6
ByLayer
 62
    7
370
   -1
100
AcDbLine
 10
8.499320151723676
 20
22.66599530311167
 11
8.459983424960559
 21
23.02401647910442
  0
LINE
  5
164
100
AcDbEntity
  8
Calque_1
  6
ByLayer
 62
    7
370
   -1
100
AcDbLine
 10
8.459983424960559
 20
23.02401647910442
 11
8.412034869457219
 21
23.37985826501291
  0
LINE
  5
165
100
AcDbEntity
  8
Calque_1
  6
ByLayer
 62
    7
370
   -1
100
AcDbLine
 10
8.412034869457219
 20
23.37985826501291
 11
8.354449000000001
 21
23.733263
  0
LINE
  5
166
100
AcDbEntity
  8
Calque_1
  6
ByLayer
 62
    7
370
   -1
100
AcDbLine
 10
8.354449000000001
 20
23.733263
 11
8.360420214057937
 21
23.92667002853211
  0
LINE
  5
167
100
AcDbEntity
  8
Calque_1
  6
ByLayer
 62
    7
370
   -1
100
AcDbLine
 10
8.360420214057937
 20
23.92667002853211
 11
8.350373305595651
 21
24.1042786476117
  0
LINE
  5
168
100
AcDbEntity
  8
Calque_1
  6
ByLayer
 62
    7
370
   -1
100
AcDbLine
 10
8.350373305595651
 20
24.1042786476117
 11
8.325190609949313
 21
24.26702444778625
  0
LINE
  5
169
100
AcDbEntity
  8
Calque_1
  6
ByLayer
 62
    7
370
   -1
100
AcDbLine
 10
8.325190609949313
 20
24.26702444778625
 11
8.285754462455106
 21
24.41584301960324
  0
LINE
  5
16A
100
AcDbEntity
  8
Calque_1
  6
ByLayer
 62
    7
370
   -1
100
AcDbLine
 10
8.285754462455106
 20
24.41584301960324
 11
8.232947198449194
 21
24.55166995361015
  0
LINE
  5
16B
100
AcDbEntity
  8
Calque_1
  6
ByLayer
 62
    7
370
   -1
100
AcDbLine
 10
8.232947198449194
 20
24.55166995361015
 11
8.167651153267768
 21
24.67544084035447
  0
LINE
  5
16C
100
AcDbEntity
  8
Calque_1
  6
ByLayer
 62
    7
370
   -1
100
AcDbLine
 10
8.167651153267768
 20
24.67544084035447
 11
8.090748662246988
 21
24.78809127038367
  0
LINE
  5
16D
100
AcDbEntity
  8
Calque_1
  6
ByLayer
 62
    7
370
   -1
100
AcDbLine
 10
8.090748662246988
 20
24.78809127038367
 11
8.003122060723037
 21
24.89055683424524
  0
LINE
  5
16E
100
AcDbEntity
  8
Calque_1
  6
ByLayer
 62
    7
370
   -1
100
AcDbLine
 10
8.003122060723037
 20
24.89055683424524
 11
7.90565368403209
 21
24.98377312248665
  0
LINE
  5
16F
100
AcDbEntity
  8
Calque_1
  6
ByLayer
 62
    7
370
   -1
100
AcDbLine
 10
7.90565368403209
 20
24.98377312248665
 11
7.799225867510322
 21
25.0686757256554
  0
LINE
  5
170
100
AcDbEntity
  8
Calque_1
  6
ByLayer
 62
    7
370
   -1
100
AcDbLine
 10
7.799225867510322
 20
25.0686757256554
 11
7.684720946493908
 21
25.14620023429895
  0
LINE
  5
171
100
AcDbEntity
  8
Calque_1
  6
ByLayer
 62
    7
370
   -1
100
AcDbLine
 10
7.684720946493908
 20
25.14620023429895
 11
7.563021256319024
 21
25.21728223896479
  0
LINE
  5
172
100
AcDbEntity
  8
Calque_1
  6
ByLayer
 62
    7
370
   -1
100
AcDbLine
 10
7.563021256319024
 20
25.21728223896479
 11
7.435009132321842
 21
25.2828573302004
  0
LINE
  5
173
100
AcDbEntity
  8
Calque_1
  6
ByLayer
 62
    7
370
   -1
100
AcDbLine
 10
7.435009132321842
 20
25.2828573302004
 11
7.301566909838543
 21
25.34386109855325
  0
LINE
  5
174
100
AcDbEntity
  8
Calque_1
  6
ByLayer
 62
    7
370
   -1
100
AcDbLine
 10
7.301566909838543
 20
25.34386109855325
 11
7.163576924205298
 21
25.40122913457084
  0
LINE
  5
175
100
AcDbEntity
  8
Calque_1
  6
ByLayer
 62
    7
370
   -1
100
AcDbLine
 10
7.163576924205298
 20
25.40122913457084
 11
7.021921510758284
 21
25.45589702880064
  0
LINE
  5
176
100
AcDbEntity
  8
Calque_1
  6
ByLayer
 62
    7
370
   -1
100
AcDbLine
 10
7.021921510758284
 20
25.45589702880064
 11
6.877483004833675
 21
25.50880037179014
  0
LINE
  5
177
100
AcDbEntity
  8
Calque_1
  6
ByLayer
 62
    7
370
   -1
100
AcDbLine
 10
6.877483004833675
 20
25.50880037179014
 11
6.731143741767649
 21
25.56087475408681
  0
LINE
  5
178
100
AcDbEntity
  8
Calque_1
  6
ByLayer
 62
    7
370
   -1
100
AcDbLine
 10
6.731143741767649
 20
25.56087475408681
 11
6.58378605689638
 21
25.61305576623813
  0
LINE
  5
179
100
AcDbEntity
  8
Calque_1
  6
ByLayer
 62
    7
370
   -1
100
AcDbLine
 10
6.58378605689638
 20
25.61305576623813
 11
6.436292285556042
 21
25.66627899879158
  0
LINE
  5
17A
100
AcDbEntity
  8
Calque_1
  6
ByLayer
 62
    7
370
   -1
100
AcDbLine
 10
6.436292285556042
 20
25.66627899879158
 11
6.289544763082812
 21
25.72148004229465
  0
LINE
  5
17B
100
AcDbEntity
  8
Calque_1
  6
ByLayer
 62
    7
370
   -1
100
AcDbLine
 10
6.289544763082812
 20
25.72148004229465
 11
6.144425824812864
 21
25.77959448729482
  0
LINE
  5
17C
100
AcDbEntity
  8
Calque_1
  6
ByLayer
 62
    7
370
   -1
100
AcDbLine
 10
6.144425824812864
 20
25.77959448729482
 11
6.001817806082376
 21
25.84155792433957
  0
LINE
  5
17D
100
AcDbEntity
  8
Calque_1
  6
ByLayer
 62
    7
370
   -1
100
AcDbLine
 10
6.001817806082376
 20
25.84155792433957
 11
5.862603042227521
 21
25.90830594397637
  0
LINE
  5
17E
100
AcDbEntity
  8
Calque_1
  6
ByLayer
 62
    7
370
   -1
100
AcDbLine
 10
5.862603042227521
 20
25.90830594397637
 11
5.727663868584473
 21
25.98077413675271
  0
LINE
  5
17F
100
AcDbEntity
  8
Calque_1
  6
ByLayer
 62
    7
370
   -1
100
AcDbLine
 10
5.727663868584473
 20
25.98077413675271
 11
5.597882620489411
 21
26.05989809321607
  0
LINE
  5
180
100
AcDbEntity
  8
Calque_1
  6
ByLayer
 62
    7
370
   -1
100
AcDbLine
 10
5.597882620489411
 20
26.05989809321607
 11
5.474141633278509
 21
26.14661340391394
  0
LINE
  5
181
100
AcDbEntity
  8
Calque_1
  6
ByLayer
 62
    7
370
   -1
100
AcDbLine
 10
5.474141633278509
 20
26.14661340391394
 11
5.357323242287942
 21
26.24185565939378
  0
LINE
  5
182
100
AcDbEntity
  8
Calque_1
  6
ByLayer
 62
    7
370
   -1
100
AcDbLine
 10
5.357323242287942
 20
26.24185565939378
 11
5.248309782853884
 21
26.34656045020308
  0
LINE
  5
183
100
AcDbEntity
  8
Calque_1
  6
ByLayer
 62
    7
370
   -1
100
AcDbLine
 10
5.248309782853884
 20
26.34656045020308
 11
5.147983590312513
 21
26.46166336688933
  0
LINE
  5
184
100
AcDbEntity
  8
Calque_1
  6
ByLayer
 62
    7
370
   -1
100
AcDbLine
 10
5.147983590312513
 20
26.46166336688933
 11
5.057227
 21
26.5881
  0
LINE
  5
185
100
AcDbEntity
  8
Calque_1
  6
ByLayer
 62
    7
370
   -1
100
AcDbLine
 10
5.057227
 20
26.5881
 11
4.85104778120909
 21
26.80784511949918
  0
LINE
  5
186
100
AcDbEntity
  8
Calque_1
  6
ByLayer
 62
    7
370
   -1
100
AcDbLine
 10
4.85104778120909
 20
26.80784511949918
 11
4.661790664865229
 21
27.03584858554597
  0
LINE
  5
187
100
AcDbEntity
  8
Calque_1
  6
ByLayer
 62
    7
370
   -1
100
AcDbLine
 10
4.661790664865229
 20
27.03584858554597
 11
4.489125106173005
 21
27.27157520462556
  0
LINE
  5
188
100
AcDbEntity
  8
Calque_1
  6
ByLayer
 62
    7
370
   -1
100
AcDbLine
 10
4.489125106173005
 20
27.27157520462556
 11
4.332720560337015
 21
27.51448978322313
  0
LINE
  5
189
100
AcDbEntity
  8
Calque_1
  6
ByLayer
 62
    7
370
   -1
100
AcDbLine
 10
4.332720560337015
 20
27.51448978322313
 11
4.192246482561847
 21
27.76405712782384
  0
LINE
  5
18A
100
AcDbEntity
  8
Calque_1
  6
ByLayer
 62
    7
370
   -1
100
AcDbLine
 10
4.192246482561847
 20
27.76405712782384
 11
4.067372328052097
 21
28.0197420449129
  0
LINE
  5
18B
100
AcDbEntity
  8
Calque_1
  6
ByLayer
 62
    7
370
   -1
100
AcDbLine
 10
4.067372328052097
 20
28.0197420449129
 11
3.957767552012353
 21
28.28100934097547
  0
LINE
  5
18C
100
AcDbEntity
  8
Calque_1
  6
ByLayer
 62
    7
370
   -1
100
AcDbLine
 10
3.957767552012353
 20
28.28100934097547
 11
3.863101609647209
 21
28.54732382249673
  0
LINE
  5
18D
100
AcDbEntity
  8
Calque_1
  6
ByLayer
 62
    7
370
   -1
100
AcDbLine
 10
3.863101609647209
 20
28.54732382249673
 11
3.783043956161257
 21
28.81815029596186
  0
LINE
  5
18E
100
AcDbEntity
  8
Calque_1
  6
ByLayer
 62
    7
370
   -1
100
AcDbLine
 10
3.783043956161257
 20
28.81815029596186
 11
3.717264046759089
 21
29.09295356785606
  0
LINE
  5
18F
100
AcDbEntity
  8
Calque_1
  6
ByLayer
 62
    7
370
   -1
100
AcDbLine
 10
3.717264046759089
 20
29.09295356785606
 11
3.665431336645296
 21
29.3711984446645
  0
LINE
  5
190
100
AcDbEntity
  8
Calque_1
  6
ByLayer
 62
    7
370
   -1
100
AcDbLine
 10
3.665431336645296
 20
29.3711984446645
 11
3.62721528102447
 21
29.65234973287234
  0
LINE
  5
191
100
AcDbEntity
  8
Calque_1
  6
ByLayer
 62
    7
370
   -1
100
AcDbLine
 10
3.62721528102447
 20
29.65234973287234
 11
3.602285335101206
 21
29.93587223896479
  0
LINE
  5
192
100
AcDbEntity
  8
Calque_1
  6
ByLayer
 62
    7
370
   -1
100
AcDbLine
 10
3.602285335101206
 20
29.93587223896479
 11
3.590310954080091
 21
30.22123076942701
  0
LINE
  5
193
100
AcDbEntity
  8
Calque_1
  6
ByLayer
 62
    7
370
   -1
100
AcDbLine
 10
3.590310954080091
 20
30.22123076942701
 11
3.590961593165721
 21
30.50789013074418
  0
LINE
  5
194
100
AcDbEntity
  8
Calque_1
  6
ByLayer
 62
    7
370
   -1
100
AcDbLine
 10
3.590961593165721
 20
30.50789013074418
 11
3.603906707562687
 21
30.79531512940149
  0
LINE
  5
195
100
AcDbEntity
  8
Calque_1
  6
ByLayer
 62
    7
370
   -1
100
AcDbLine
 10
3.603906707562687
 20
30.79531512940149
 11
3.62881575247558
 21
31.08297057188412
  0
LINE
  5
196
100
AcDbEntity
  8
Calque_1
  6
ByLayer
 62
    7
370
   -1
100
AcDbLine
 10
3.62881575247558
 20
31.08297057188412
 11
3.665358183108993
 21
31.37032126467725
  0
LINE
  5
197
100
AcDbEntity
  8
Calque_1
  6
ByLayer
 62
    7
370
   -1
100
AcDbLine
 10
3.665358183108993
 20
31.37032126467725
 11
3.713203454667517
 21
31.65683201426606
  0
LINE
  5
198
100
AcDbEntity
  8
Calque_1
  6
ByLayer
 62
    7
370
   -1
100
AcDbLine
 10
3.713203454667517
 20
31.65683201426606
 11
3.772021022355744
 21
31.94196762713571
  0
LINE
  5
199
100
AcDbEntity
  8
Calque_1
  6
ByLayer
 62
    7
370
   -1
100
AcDbLine
 10
3.772021022355744
 20
31.94196762713571
 11
3.841480341378268
 21
32.22519290977141
  0
LINE
  5
19A
100
AcDbEntity
  8
Calque_1
  6
ByLayer
 62
    7
370
   -1
100
AcDbLine
 10
3.841480341378268
 20
32.22519290977141
 11
3.921250866939679
 21
32.50597266865832
  0
LINE
  5
19B
100
AcDbEntity
  8
Calque_1
  6
ByLayer
 62
    7
370
   -1
100
AcDbLine
 10
3.921250866939679
 20
32.50597266865832
 11
4.011002054244569
 21
32.78377171028163
  0
LINE
  5
19C
100
AcDbEntity
  8
Calque_1
  6
ByLayer
 62
    7
370
   -1
100
AcDbLine
 10
4.011002054244569
 20
32.78377171028163
 11
4.110403358497532
 21
33.05805484112651
  0
LINE
  5
19D
100
AcDbEntity
  8
Calque_1
  6
ByLayer
 62
    7
370
   -1
100
AcDbLine
 10
4.110403358497532
 20
33.05805484112651
 11
4.219124234903157
 21
33.32828686767816
  0
LINE
  5
19E
100
AcDbEntity
  8
Calque_1
  6
ByLayer
 62
    7
370
   -1
100
AcDbLine
 10
4.219124234903157
 20
33.32828686767816
 11
4.336834138666038
 21
33.59393259642174
  0
LINE
  5
19F
100
AcDbEntity
  8
Calque_1
  6
ByLayer
 62
    7
370
   -1
100
AcDbLine
 10
4.336834138666038
 20
33.59393259642174
 11
4.463202524990767
 21
33.85445683384243
  0
LINE
  5
1A0
100
AcDbEntity
  8
Calque_1
  6
ByLayer
 62
    7
370
   -1
100
AcDbLine
 10
4.463202524990767
 20
33.85445683384243
 11
4.597898849081935
 21
34.10932438642543
  0
LINE
  5
1A1
100
AcDbEntity
  8
Calque_1
  6
ByLayer
 62
    7
370
   -1
100
AcDbLine
 10
4.597898849081935
 20
34.10932438642543
 11
4.740592566144135
 21
34.3580000606559
  0
LINE
  5
1A2
100
AcDbEntity
  8
Calque_1
  6
ByLayer
 62
    7
370
   -1
100
AcDbLine
 10
4.740592566144135
 20
34.3580000606559
 11
4.890953131381958
 21
34.59994866301903
  0
LINE
  5
1A3
100
AcDbEntity
  8
Calque_1
  6
ByLayer
 62
    7
370
   -1
100
AcDbLine
 10
4.890953131381958
 20
34.59994866301903
 11
5.04865
 21
34.834635
  0
LINE
  5
1A4
100
AcDbEntity
  8
Calque_1
  6
ByLayer
 62
    7
370
   -1
100
AcDbLine
 10
5.04865
 20
34.834635
 11
5.130533411332281
 21
34.96433018008794
  0
LINE
  5
1A5
100
AcDbEntity
  8
Calque_1
  6
ByLayer
 62
    7
370
   -1
100
AcDbLine
 10
5.130533411332281
 20
34.96433018008794
 11
5.201622406162937
 21
35.09635977264946
  0
LINE
  5
1A6
100
AcDbEntity
  8
Calque_1
  6
ByLayer
 62
    7
370
   -1
100
AcDbLine
 10
5.201622406162937
 20
35.09635977264946
 11
5.262421061226545
 21
35.23058459806653
  0
LINE
  5
1A7
100
AcDbEntity
  8
Calque_1
  6
ByLayer
 62
    7
370
   -1
100
AcDbLine
 10
5.262421061226545
 20
35.23058459806653
 11
5.313433453257696
 21
35.36686547672116
  0
LINE
  5
1A8
100
AcDbEntity
  8
Calque_1
  6
ByLayer
 62
    7
370
   -1
100
AcDbLine
 10
5.313433453257696
 20
35.36686547672116
 11
5.35516365899097
 21
35.50506322899533
  0
LINE
  5
1A9
100
AcDbEntity
  8
Calque_1
  6
ByLayer
 62
    7
370
   -1
100
AcDbLine
 10
5.35516365899097
 20
35.50506322899533
 11
5.388115755160956
 21
35.64503867527106
  0
LINE
  5
1AA
100
AcDbEntity
  8
Calque_1
  6
ByLayer
 62
    7
370
   -1
100
AcDbLine
 10
5.388115755160956
 20
35.64503867527106
 11
5.412793818502232
 21
35.78665263593032
  0
LINE
  5
1AB
100
AcDbEntity
  8
Calque_1
  6
ByLayer
 62
    7
370
   -1
100
AcDbLine
 10
5.412793818502232
 20
35.78665263593032
 11
5.429701925749387
 21
35.92976593135511
  0
LINE
  5
1AC
100
AcDbEntity
  8
Calque_1
  6
ByLayer
 62
    7
370
   -1
100
AcDbLine
 10
5.429701925749387
 20
35.92976593135511
 11
5.439344153637004
 21
36.07423938192743
  0
LINE
  5
1AD
100
AcDbEntity
  8
Calque_1
  6
ByLayer
 62
    7
370
   -1
100
AcDbLine
 10
5.439344153637004
 20
36.07423938192743
 11
5.442224578899667
 21
36.21993380802927
  0
LINE
  5
1AE
100
AcDbEntity
  8
Calque_1
  6
ByLayer
 62
    7
370
   -1
100
AcDbLine
 10
5.442224578899667
 20
36.21993380802927
 11
5.438847278271961
 21
36.36671003004263
  0
LINE
  5
1AF
100
AcDbEntity
  8
Calque_1
  6
ByLayer
 62
    7
370
   -1
100
AcDbLine
 10
5.438847278271961
 20
36.36671003004263
 11
5.42971632848847
 21
36.5144288683495
  0
LINE
  5
1B0
100
AcDbEntity
  8
Calque_1
  6
ByLayer
 62
    7
370
   -1
100
AcDbLine
 10
5.42971632848847
 20
36.5144288683495
 11
5.415335806283777
 21
36.66295114333188
  0
LINE
  5
1B1
100
AcDbEntity
  8
Calque_1
  6
ByLayer
 62
    7
370
   -1
100
AcDbLine
 10
5.415335806283777
 20
36.66295114333188
 11
5.396209788392468
 21
36.81213767537175
  0
LINE
  5
1B2
100
AcDbEntity
  8
Calque_1
  6
ByLayer
 62
    7
370
   -1
100
AcDbLine
 10
5.396209788392468
 20
36.81213767537175
 11
5.372842351549125
 21
36.96184928485113
  0
LINE
  5
1B3
100
AcDbEntity
  8
Calque_1
  6
ByLayer
 62
    7
370
   -1
100
AcDbLine
 10
5.372842351549125
 20
36.96184928485113
 11
5.345737572488336
 21
37.11194679215199
  0
LINE
  5
1B4
100
AcDbEntity
  8
Calque_1
  6
ByLayer
 62
    7
370
   -1
100
AcDbLine
 10
5.345737572488336
 20
37.11194679215199
 11
5.315399527944682
 21
37.26229101765634
  0
LINE
  5
1B5
100
AcDbEntity
  8
Calque_1
  6
ByLayer
 62
    7
370
   -1
100
AcDbLine
 10
5.315399527944682
 20
37.26229101765634
 11
5.282332294652749
 21
37.41274278174617
  0
LINE
  5
1B6
100
AcDbEntity
  8
Calque_1
  6
ByLayer
 62
    7
370
   -1
100
AcDbLine
 10
5.282332294652749
 20
37.41274278174617
 11
5.247039949347119
 21
37.56316290480346
  0
LINE
  5
1B7
100
AcDbEntity
  8
Calque_1
  6
ByLayer
 62
    7
370
   -1
100
AcDbLine
 10
5.247039949347119
 20
37.56316290480346
 11
5.210026568762379
 21
37.71341220721023
  0
LINE
  5
1B8
100
AcDbEntity
  8
Calque_1
  6
ByLayer
 62
    7
370
   -1
100
AcDbLine
 10
5.210026568762379
 20
37.71341220721023
 11
5.171796229633111
 21
37.86335150934846
  0
LINE
  5
1B9
100
AcDbEntity
  8
Calque_1
  6
ByLayer
 62
    7
370
   -1
100
AcDbLine
 10
5.171796229633111
 20
37.86335150934846
 11
5.132853008693901
 21
38.01284163160015
  0
LINE
  5
1BA
100
AcDbEntity
  8
Calque_1
  6
ByLayer
 62
    7
370
   -1
100
AcDbLine
 10
5.132853008693901
 20
38.01284163160015
 11
5.093700982679334
 21
38.16174339434728
  0
LINE
  5
1BB
100
AcDbEntity
  8
Calque_1
  6
ByLayer
 62
    7
370
   -1
100
AcDbLine
 10
5.093700982679334
 20
38.16174339434728
 11
5.054844228323992
 21
38.30991761797186
  0
LINE
  5
1BC
100
AcDbEntity
  8
Calque_1
  6
ByLayer
 62
    7
370
   -1
100
AcDbLine
 10
5.054844228323992
 20
38.30991761797186
 11
5.016786822362459
 21
38.45722512285589
  0
LINE
  5
1BD
100
AcDbEntity
  8
Calque_1
  6
ByLayer
 62
    7
370
   -1
100
AcDbLine
 10
5.016786822362459
 20
38.45722512285589
 11
4.980032841529321
 21
38.60352672938135
  0
LINE
  5
1BE
100
AcDbEntity
  8
Calque_1
  6
ByLayer
 62
    7
370
   -1
100
AcDbLine
 10
4.980032841529321
 20
38.60352672938135
 11
4.945086362559163
 21
38.74868325793025
  0
LINE
  5
1BF
100
AcDbEntity
  8
Calque_1
  6
ByLayer
 62
    7
370
   -1
100
AcDbLine
 10
4.945086362559163
 20
38.74868325793025
 11
4.912451462186567
 21
38.89255552888456
  0
LINE
  5
1C0
100
AcDbEntity
  8
Calque_1
  6
ByLayer
 62
    7
370
   -1
100
AcDbLine
 10
4.912451462186567
 20
38.89255552888456
 11
4.882632217146118
 21
39.03500436262629
  0
LINE
  5
1C1
100
AcDbEntity
  8
Calque_1
  6
ByLayer
 62
    7
370
   -1
100
AcDbLine
 10
4.882632217146118
 20
39.03500436262629
 11
4.856132704172402
 21
39.17589057953744
  0
LINE
  5
1C2
100
AcDbEntity
  8
Calque_1
  6
ByLayer
 62
    7
370
   -1
100
AcDbLine
 10
4.856132704172402
 20
39.17589057953744
 11
4.833457
 21
39.315075
  0
LINE
  5
1C3
100
AcDbEntity
  8
Calque_1
  6
ByLayer
 62
    7
370
   -1
100
AcDbLine
 10
4.833457
 20
39.315075
 11
4.635301830720687
 21
39.99995429676747
  0
LINE
  5
1C4
100
AcDbEntity
  8
Calque_1
  6
ByLayer
 62
    7
370
   -1
100
AcDbLine
 10
4.635301830720687
 20
39.99995429676747
 11
4.475955768554263
 21
40.6894520213823
  0
LINE
  5
1C5
100
AcDbEntity
  8
Calque_1
  6
ByLayer
 62
    7
370
   -1
100
AcDbLine
 10
4.475955768554263
 20
40.6894520213823
 11
4.354603627169279
 21
41.38244050595817
  0
LINE
  5
1C6
100
AcDbEntity
  8
Calque_1
  6
ByLayer
 62
    7
370
   -1
100
AcDbLine
 10
4.354603627169279
 20
41.38244050595817
 11
4.270430220234299
 21
42.07779208260884
  0
LINE
  5
1C7
100
AcDbEntity
  8
Calque_1
  6
ByLayer
 62
    7
370
   -1
100
AcDbLine
 10
4.270430220234299
 20
42.07779208260884
 11
4.222620361417877
 21
42.77437908344802
  0
LINE
  5
1C8
100
AcDbEntity
  8
Calque_1
  6
ByLayer
 62
    7
370
   -1
100
AcDbLine
 10
4.222620361417877
 20
42.77437908344802
 11
4.210358864388574
 21
43.47107384058945
  0
LINE
  5
1C9
100
AcDbEntity
  8
Calque_1
  6
ByLayer
 62
    7
370
   -1
100
AcDbLine
 10
4.210358864388574
 20
43.47107384058945
 11
4.232830542814945
 21
44.16674868614682
  0
LINE
  5
1CA
100
AcDbEntity
  8
Calque_1
  6
ByLayer
 62
    7
370
   -1
100
AcDbLine
 10
4.232830542814945
 20
44.16674868614682
 11
4.289220210365547
 21
44.8602759522339
  0
LINE
  5
1CB
100
AcDbEntity
  8
Calque_1
  6
ByLayer
 62
    7
370
   -1
100
AcDbLine
 10
4.289220210365547
 20
44.8602759522339
 11
4.378712680708938
 21
45.55052797096438
  0
LINE
  5
1CC
100
AcDbEntity
  8
Calque_1
  6
ByLayer
 62
    7
370
   -1
100
AcDbLine
 10
4.378712680708938
 20
45.55052797096438
 11
4.500492767513679
 21
46.23637707445202
  0
LINE
  5
1CD
100
AcDbEntity
  8
Calque_1
  6
ByLayer
 62
    7
370
   -1
100
AcDbLine
 10
4.500492767513679
 20
46.23637707445202
 11
4.653745284448323
 21
46.91669559481051
  0
LINE
  5
1CE
100
AcDbEntity
  8
Calque_1
  6
ByLayer
 62
    7
370
   -1
100
AcDbLine
 10
4.653745284448323
 20
46.91669559481051
 11
4.83765504518143
 21
47.5903558641536
  0
LINE
  5
1CF
100
AcDbEntity
  8
Calque_1
  6
ByLayer
 62
    7
370
   -1
100
AcDbLine
 10
4.83765504518143
 20
47.5903558641536
 11
5.051406863381557
 21
48.25623021459501
  0
LINE
  5
1D0
100
AcDbEntity
  8
Calque_1
  6
ByLayer
 62
    7
370
   -1
100
AcDbLine
 10
5.051406863381557
 20
48.25623021459501
 11
5.294185552717262
 21
48.91319097824846
  0
LINE
  5
1D1
100
AcDbEntity
  8
Calque_1
  6
ByLayer
 62
    7
370
   -1
100
AcDbLine
 10
5.294185552717262
 20
48.91319097824846
 11
5.565175926857103
 21
49.56011048722769
  0
LINE
  5
1D2
100
AcDbEntity
  8
Calque_1
  6
ByLayer
 62
    7
370
   -1
100
AcDbLine
 10
5.565175926857103
 20
49.56011048722769
 11
5.863562799469635
 21
50.1958610736464
  0
LINE
  5
1D3
100
AcDbEntity
  8
Calque_1
  6
ByLayer
 62
    7
370
   -1
100
AcDbLine
 10
5.863562799469635
 20
50.1958610736464
 11
6.188530984223421
 21
50.81931506961833
  0
LINE
  5
1D4
100
AcDbEntity
  8
Calque_1
  6
ByLayer
 62
    7
370
   -1
100
AcDbLine
 10
6.188530984223421
 20
50.81931506961833
 11
6.539265294787013
 21
51.42934480725722
  0
LINE
  5
1D5
100
AcDbEntity
  8
Calque_1
  6
ByLayer
 62
    7
370
   -1
100
AcDbLine
 10
6.539265294787013
 20
51.42934480725722
 11
6.914950544828971
 21
52.02482261867678
  0
LINE
  5
1D6
100
AcDbEntity
  8
Calque_1
  6
ByLayer
 62
    7
370
   -1
100
AcDbLine
 10
6.914950544828971
 20
52.02482261867678
 11
7.314771548017854
 21
52.60462083599073
  0
LINE
  5
1D7
100
AcDbEntity
  8
Calque_1
  6
ByLayer
 62
    7
370
   -1
100
AcDbLine
 10
7.314771548017854
 20
52.60462083599073
 11
7.737913118022217
 21
53.16761179131281
  0
LINE
  5
1D8
100
AcDbEntity
  8
Calque_1
  6
ByLayer
 62
    7
370
   -1
100
AcDbLine
 10
7.737913118022217
 20
53.16761179131281
 11
8.183560068510619
 21
53.71266781675673
  0
LINE
  5
1D9
100
AcDbEntity
  8
Calque_1
  6
ByLayer
 62
    7
370
   -1
100
AcDbLine
 10
8.183560068510619
 20
53.71266781675673
 11
8.650897213151616
 21
54.23866124443623
  0
LINE
  5
1DA
100
AcDbEntity
  8
Calque_1
  6
ByLayer
 62
    7
370
   -1
100
AcDbLine
 10
8.650897213151616
 20
54.23866124443623
 11
9.13910936561377
 21
54.74446440646503
  0
LINE
  5
1DB
100
AcDbEntity
  8
Calque_1
  6
ByLayer
 62
    7
370
   -1
100
AcDbLine
 10
9.13910936561377
 20
54.74446440646503
 11
9.647381339565634
 21
55.22894963495686
  0
LINE
  5
1DC
100
AcDbEntity
  8
Calque_1
  6
ByLayer
 62
    7
370
   -1
100
AcDbLine
 10
9.647381339565634
 20
55.22894963495686
 11
10.17489794867577
 21
55.69098926202543
  0
LINE
  5
1DD
100
AcDbEntity
  8
Calque_1
  6
ByLayer
 62
    7
370
   -1
100
AcDbLine
 10
10.17489794867577
 20
55.69098926202543
 11
10.72084400661273
 21
56.12945561978449
  0
LINE
  5
1DE
100
AcDbEntity
  8
Calque_1
  6
ByLayer
 62
    7
370
   -1
100
AcDbLine
 10
10.72084400661273
 20
56.12945561978449
 11
11.28440432704507
 21
56.54322104034775
  0
LINE
  5
1DF
100
AcDbEntity
  8
Calque_1
  6
ByLayer
 62
    7
370
   -1
100
AcDbLine
 10
11.28440432704507
 20
56.54322104034775
 11
11.86476372364136
 21
56.93115785582893
  0
LINE
  5
1E0
100
AcDbEntity
  8
Calque_1
  6
ByLayer
 62
    7
370
   -1
100
AcDbLine
 10
11.86476372364136
 20
56.93115785582893
 11
12.46110701007014
 21
57.29213839834177
  0
LINE
  5
1E1
100
AcDbEntity
  8
Calque_1
  6
ByLayer
 62
    7
370
   -1
100
AcDbLine
 10
12.46110701007014
 20
57.29213839834177
 11
13.072619
 21
57.625035
  0
LINE
  5
1E2
100
AcDbEntity
  8
Calque_1
  6
ByLayer
 62
    7
370
   -1
100
AcDbLine
 10
13.072619
 20
57.625035
 11
13.35561272998556
 21
57.76058070350105
  0
LINE
  5
1E3
100
AcDbEntity
  8
Calque_1
  6
ByLayer
 62
    7
370
   -1
100
AcDbLine
 10
13.35561272998556
 20
57.76058070350105
 11
13.64086656517069
 21
57.89133087150483
  0
LINE
  5
1E4
100
AcDbEntity
  8
Calque_1
  6
ByLayer
 62
    7
370
   -1
100
AcDbLine
 10
13.64086656517069
 20
57.89133087150483
 11
13.928294473398
 21
58.01726928381054
  0
LINE
  5
1E5
100
AcDbEntity
  8
Calque_1
  6
ByLayer
 62
    7
370
   -1
100
AcDbLine
 10
13.928294473398
 20
58.01726928381054
 11
14.21781042251015
 21
58.13837972021752
  0
LINE
  5
1E6
100
AcDbEntity
  8
Calque_1
  6
ByLayer
 62
    7
370
   -1
100
AcDbLine
 10
14.21781042251015
 20
58.13837972021752
 11
14.50932838034977
 21
58.25464596052498
  0
LINE
  5
1E7
100
AcDbEntity
  8
Calque_1
  6
ByLayer
 62
    7
370
   -1
100
AcDbLine
 10
14.50932838034977
 20
58.25464596052498
 11
14.80276231475949
 21
58.36605178453225
  0
LINE
  5
1E8
100
AcDbEntity
  8
Calque_1
  6
ByLayer
 62
    7
370
   -1
100
AcDbLine
 10
14.80276231475949
 20
58.36605178453225
 11
15.09802619358195
 21
58.47258097203853
  0
LINE
  5
1E9
100
AcDbEntity
  8
Calque_1
  6
ByLayer
 62
    7
370
   -1
100
AcDbLine
 10
15.09802619358195
 20
58.47258097203853
 11
15.3950339846598
 21
58.57421730284314
  0
LINE
  5
1EA
100
AcDbEntity
  8
Calque_1
  6
ByLayer
 62
    7
370
   -1
100
AcDbLine
 10
15.3950339846598
 20
58.57421730284314
 11
15.69369965583565
 21
58.67094455674532
  0
LINE
  5
1EB
100
AcDbEntity
  8
Calque_1
  6
ByLayer
 62
    7
370
   -1
100
AcDbLine
 10
15.69369965583565
 20
58.67094455674532
 11
15.99393717495217
 21
58.76274651354436
  0
LINE
  5
1EC
100
AcDbEntity
  8
Calque_1
  6
ByLayer
 62
    7
370
   -1
100
AcDbLine
 10
15.99393717495217
 20
58.76274651354436
 11
16.29566050985197
 21
58.8496069530395
  0
LINE
  5
1ED
100
AcDbEntity
  8
Calque_1
  6
ByLayer
 62
    7
370
   -1
100
AcDbLine
 10
16.29566050985197
 20
58.8496069530395
 11
16.5987836283777
 21
58.93150965503004
  0
LINE
  5
1EE
100
AcDbEntity
  8
Calque_1
  6
ByLayer
 62
    7
370
   -1
100
AcDbLine
 10
16.5987836283777
 20
58.93150965503004
 11
16.90322049837199
 21
59.00843839931523
  0
LINE
  5
1EF
100
AcDbEntity
  8
Calque_1
  6
ByLayer
 62
    7
370
   -1
100
AcDbLine
 10
16.90322049837199
 20
59.00843839931523
 11
17.20888508767748
 21
59.08037696569433
  0
LINE
  5
1F0
100
AcDbEntity
  8
Calque_1
  6
ByLayer
 62
    7
370
   -1
100
AcDbLine
 10
17.20888508767748
 20
59.08037696569433
 11
17.51569136413682
 21
59.14730913396663
  0
LINE
  5
1F1
100
AcDbEntity
  8
Calque_1
  6
ByLayer
 62
    7
370
   -1
100
AcDbLine
 10
17.51569136413682
 20
59.14730913396663
 11
17.82355329559262
 21
59.20921868393138
  0
LINE
  5
1F2
100
AcDbEntity
  8
Calque_1
  6
ByLayer
 62
    7
370
   -1
100
AcDbLine
 10
17.82355329559262
 20
59.20921868393138
 11
18.13238484988755
 21
59.26608939538787
  0
LINE
  5
1F3
100
AcDbEntity
  8
Calque_1
  6
ByLayer
 62
    7
370
   -1
100
AcDbLine
 10
18.13238484988755
 20
59.26608939538787
 11
18.44209999486422
 21
59.31790504813534
  0
LINE
  5
1F4
100
AcDbEntity
  8
Calque_1
  6
ByLayer
 62
    7
370
   -1
100
AcDbLine
 10
18.44209999486422
 20
59.31790504813534
 11
18.75261269836528
 21
59.36464942197308
  0
LINE
  5
1F5
100
AcDbEntity
  8
Calque_1
  6
ByLayer
 62
    7
370
   -1
100
AcDbLine
 10
18.75261269836528
 20
59.36464942197308
 11
19.06383692823336
 21
59.40630629670034
  0
LINE
  5
1F6
100
AcDbEntity
  8
Calque_1
  6
ByLayer
 62
    7
370
   -1
100
AcDbLine
 10
19.06383692823336
 20
59.40630629670034
 11
19.3756866523111
 21
59.44285945211641
  0
LINE
  5
1F7
100
AcDbEntity
  8
Calque_1
  6
ByLayer
 62
    7
370
   -1
100
AcDbLine
 10
19.3756866523111
 20
59.44285945211641
 11
19.68807583844114
 21
59.47429266802055
  0
LINE
  5
1F8
100
AcDbEntity
  8
Calque_1
  6
ByLayer
 62
    7
370
   -1
100
AcDbLine
 10
19.68807583844114
 20
59.47429266802055
 11
20.00091845446611
 21
59.50058972421201
  0
LINE
  5
1F9
100
AcDbEntity
  8
Calque_1
  6
ByLayer
 62
    7
370
   -1
100
AcDbLine
 10
20.00091845446611
 20
59.50058972421201
 11
20.31412846822866
 21
59.52173440049009
  0
LINE
  5
1FA
100
AcDbEntity
  8
Calque_1
  6
ByLayer
 62
    7
370
   -1
100
AcDbLine
 10
20.31412846822866
 20
59.52173440049009
 11
20.62761984757141
 21
59.53771047665402
  0
LINE
  5
1FB
100
AcDbEntity
  8
Calque_1
  6
ByLayer
 62
    7
370
   -1
100
AcDbLine
 10
20.62761984757141
 20
59.53771047665402
 11
20.941306560337
 21
59.5485017325031
  0
LINE
  5
1FC
100
AcDbEntity
  8
Calque_1
  6
ByLayer
 62
    7
370
   -1
100
AcDbLine
 10
20.941306560337
 20
59.5485017325031
 11
21.2551025743681
 21
59.5540919478366
  0
LINE
  5
1FD
100
AcDbEntity
  8
Calque_1
  6
ByLayer
 62
    7
370
   -1
100
AcDbLine
 10
21.2551025743681
 20
59.5540919478366
 11
21.56892185750729
 21
59.55446490245377
  0
LINE
  5
1FE
100
AcDbEntity
  8
Calque_1
  6
ByLayer
 62
    7
370
   -1
100
AcDbLine
 10
21.56892185750729
 20
59.55446490245377
 11
21.88267837759725
 21
59.54960437615387
  0
LINE
  5
1FF
100
AcDbEntity
  8
Calque_1
  6
ByLayer
 62
    7
370
   -1
100
AcDbLine
 10
21.88267837759725
 20
59.54960437615387
 11
22.19628610248061
 21
59.5394941487362
  0
LINE
  5
200
100
AcDbEntity
  8
Calque_1
  6
ByLayer
 62
    7
370
   -1
100
AcDbLine
 10
22.19628610248061
 20
59.5394941487362
 11
22.509659
 21
59.524118
  0
LWPOLYLINE
  5
201
100
AcDbEntity
  8
0
  6
ByLayer
 62
  256
370
   -1
100
AcDbPolyline
 90
  435
 70
    1
 43
0
 10
22.509661
 20
59.524117
 10
23.04783633600752
 20
59.49774142140243
 10
23.58501708244101
 20
59.45454502678663
 10
24.12067837917492
 20
59.39467387630492
 10
24.65429536608372
 20
59.31827403010977
 10
25.18534318304186
 20
59.22549154835352
 10
25.71329696992381
 20
59.11647249118862
 10
26.23763186660401
 20
58.99136291876741
 10
26.75782301295694
 20
58.85030889124231
 10
27.27334554885703
 20
58.69345646876572
 10
27.78367461417878
 20
58.52095171149005
 10
28.28828534879661
 20
58.33294067956766
 10
28.78665289258501
 20
58.12956943315095
 10
29.27825238541841
 20
57.91098403239234
 10
29.76255896717129
 20
57.6773305374442
 10
30.23904777771811
 20
57.42875500845893
 10
30.7071939569333
 20
57.16540350558894
 10
31.16647264469135
 20
56.8874220889866
 10
31.6163589808667
 20
56.59495681880435
 10
32.05632810533382
 20
56.28815375519453
 10
32.48585515796717
 20
55.96715895830955
 10
32.9044152786412
 20
55.63211848830183
 10
33.31148360723037
 20
55.28317840532375
 10
33.70653528360914
 20
54.92048476952772
 10
34.08904544765197
 20
54.5441836410661
 10
34.45848923923332
 20
54.1544210800913
 10
34.81434179822764
 20
53.75134314675573
 10
35.15607826450942
 20
53.33509590121178
 10
35.48317377795307
 20
52.90582540361184
 10
35.79510347843308
 20
52.46367771410829
 10
36.0913425058239
 20
52.00879889285355
 10
36.371366
 20
51.541335
 10
36.59922773978718
 20
51.18136040978818
 10
36.81618077989997
 20
50.81529203480918
 10
37.02216039985231
 20
50.44344135564432
 10
37.21710187915814
 20
50.06611985287503
 10
37.40094049733141
 20
49.68363900708268
 10
37.57361153388608
 20
49.29631029884865
 10
37.73505026833608
 20
48.90444520875432
 10
37.88519198019537
 20
48.50835521738109
 10
38.02397194897787
 20
48.10835180531032
 10
38.15132545419758
 20
47.70474645312343
 10
38.2671877753684
 20
47.29785064140177
 10
38.37149419200429
 20
46.88797585072673
 10
38.46417998361922
 20
46.47543356167971
 10
38.5451804297271
 20
46.06053525484207
 10
38.61443080984191
 20
45.64359241079521
 10
38.67186640347757
 20
45.22491651012051
 10
38.71742249014803
 20
44.80481903339935
 10
38.75103434936726
 20
44.38361146121312
 10
38.77263726064919
 20
43.9616052741432
 10
38.78216650350777
 20
43.53911195277097
 10
38.77955735745695
 20
43.11644297767783
 10
38.76474510201068
 20
42.69390982944515
 10
38.7376650166829
 20
42.2718239886543
 10
38.69825238098755
 20
41.85049693588668
 10
38.64644247443859
 20
41.43024015172368
 10
38.58217057654996
 20
41.01136511674667
 10
38.50537196683563
 20
40.59418331153705
 10
38.41598192480951
 20
40.17900621667619
 10
38.31393572998557
 20
39.76614531274546
 10
38.19916866187775
 20
39.35591208032628
 10
38.071616
 20
38.948618
 10
38.049231397704
 20
38.8160117557316
 10
38.02352769776107
 20
38.68150797717431
 10
37.995005673492
 20
38.54527145053875
 10
37.96416609821759
 20
38.40746696203551
 10
37.93150974525863
 20
38.26825929787519
 10
37.89753738793596
 20
38.12781324426841
 10
37.86274979957034
 20
37.98629358742574
 10
37.82764775348259
 20
37.84386511355778
 10
37.79273202299352
 20
37.70069260887516
 10
37.75850338142391
 20
37.55694085958847
 10
37.72546260209459
 20
37.4127746519083
 10
37.69411045832634
 20
37.26835877204525
 10
37.66494772343997
 20
37.12385800620993
 10
37.63847517075627
 20
36.97943714061294
 10
37.61519357359606
 20
36.83526096146488
 10
37.59560370528011
 20
36.69149425497633
 10
37.58020633912926
 20
36.54830180735792
 10
37.5695022484643
 20
36.40584840482025
 10
37.56399220660602
 20
36.2642988335739
 10
37.56417698687523
 20
36.12381787982948
 10
37.57055736259272
 20
35.98457032979759
 10
37.58363410707932
 20
35.84672096968883
 10
37.6039079936558
 20
35.71043458571381
 10
37.63187979564298
 20
35.57587596408311
 10
37.66805028636165
 20
35.44320989100736
 10
37.71292023913262
 20
35.31260115269713
 10
37.7669904272767
 20
35.18421453536303
 10
37.83076162411466
 20
35.05821482521567
 10
37.90473460296734
 20
34.93476680846565
 10
37.98941013715552
 20
34.81403527132355
 10
38.085289
 20
34.696185
 10
38.24812922634353
 20
34.44351029354503
 10
38.40173488775135
 20
34.18159371464537
 10
38.54576129649895
 20
33.91121021916015
 10
38.67986376486187
 20
33.63313476294855
 10
38.80369760511564
 20
33.34814230186969
 10
38.91691812953577
 20
33.05700779178276
 10
39.01918065039778
 20
32.76050618854688
 10
39.11014047997718
 20
32.45941244802122
 10
39.18945293054949
 20
32.15450152606492
 10
39.25677331439025
 20
31.84654837853715
 10
39.31175694377497
 20
31.53632796129704
 10
39.35405913097915
 20
31.22461523020375
 10
39.38333518827834
 20
30.91218514111645
 10
39.39924042794804
 20
30.59981264989426
 10
39.40143016226376
 20
30.28827271239636
 10
39.38955970350105
 20
29.97834028448189
 10
39.36328436393542
 20
29.67079032201001
 10
39.32225945584237
 20
29.36639778083986
 10
39.26614029149744
 20
29.06593761683059
 10
39.19458218317612
 20
28.77018478584137
 10
39.10724044315397
 20
28.47991424373133
 10
39.0037703837065
 20
28.19590094635964
 10
38.88382731710919
 20
27.91891984958545
 10
38.74706655563761
 20
27.64974590926791
 10
38.59314341156725
 20
27.38915408126616
 10
38.42171319717364
 20
27.13791932143936
 10
38.23243122473231
 20
26.89681658564668
 10
38.02495280651875
 20
26.66662082974725
 10
37.7989332548085
 20
26.44810700960022
 10
37.55402788187708
 20
26.24205008106475
 10
37.289892
 20
26.049225
 10
37.11489051471921
 20
26.0016997972542
 10
36.94408584303985
 20
25.95106225628545
 10
36.77762291927092
 20
25.89718183283542
 10
36.61564667772146
 20
25.83992798264577
 10
36.45830205270048
 20
25.77917016145816
 10
36.30573397851701
 20
25.71477782501427
 10
36.15808738948004
 20
25.64662042905575
 10
36.01550721989862
 20
25.57456742932429
 10
35.87813840408177
 20
25.49848828156154
 10
35.74612587633849
 20
25.41825244150918
 10
35.61961457097781
 20
25.33372936490887
 10
35.49874942230875
 20
25.24478850750227
 10
35.38367536464033
 20
25.15129932503105
 10
35.27453733228156
 20
25.05313127323689
 10
35.17148025954147
 20
24.95015380786144
 10
35.07464908072907
 20
24.84223638464637
 10
34.9841887301534
 20
24.72924845933336
 10
34.90024414212346
 20
24.61105948766406
 10
34.82296025094827
 20
24.48753892538015
 10
34.75248199093686
 20
24.35855622822329
 10
34.68895429639824
 20
24.22398085193515
 10
34.63252210164144
 20
24.0836822522574
 10
34.58333034097546
 20
23.93752988493169
 10
34.54152394870934
 20
23.78539320569971
 10
34.50724785915209
 20
23.62714167030312
 10
34.48064700661273
 20
23.46264473448357
 10
34.46186632540029
 20
23.29177185398275
 10
34.45105074982377
 20
23.11439248454231
 10
34.4483452141922
 20
22.93037608190394
 10
34.45389465281461
 20
22.73959210180928
 10
34.467844
 20
22.54191
 10
34.44975321096975
 20
22.20362124903495
 10
34.43531825591622
 20
21.86295601309121
 10
34.42381612386291
 20
21.52020517243463
 10
34.41452380383338
 20
21.17565960733107
 10
34.40671828485112
 20
20.82961019804639
 10
34.39967655593972
 20
20.48234782484643
 10
34.39267560612266
 20
20.13416336799704
 10
34.38499242442348
 20
19.78534770776409
 10
34.37590399986573
 20
19.43619172441341
 10
34.36468732147292
 20
19.08698629821087
 10
34.3506193782686
 20
18.73802230942231
 10
34.3329771592763
 20
18.38959063831359
 10
34.31103765351952
 20
18.04198216515055
 10
34.28407785002182
 20
17.69548777019905
 10
34.25137473780672
 20
17.35039833372495
 10
34.21220530589775
 20
17.00700473599409
 10
34.16584654331845
 20
16.66559785727233
 10
34.11157543909235
 20
16.32646857782552
 10
34.04866898224296
 20
15.98990777791951
 10
33.97640416179384
 20
15.65620633782015
 10
33.89405796676849
 20
15.32565513779329
 10
33.80090738619046
 20
14.9985450581048
 10
33.69622940908329
 20
14.67516697902051
 10
33.57930102447048
 20
14.35581178080629
 10
33.44939922137559
 20
14.04077034372798
 10
33.30580098882213
 20
13.73033354805143
 10
33.14778331583365
 20
13.4247922740425
 10
32.97462319143366
 20
13.12443740196704
 10
32.7855976046457
 20
12.82955981209091
 10
32.57998354449331
 20
12.54045038467994
 10
32.357058
 20
12.2574
 10
32.08294077610688
 20
11.925340885838
 10
31.79788568856367
 20
11.60363298472693
 10
31.5022937748649
 20
11.29239729743882
 10
31.19656607250512
 20
10.99175482474573
 10
30.88110361897888
 20
10.70182656741969
 10
30.55630745178074
 20
10.42273352623276
 10
30.22257860840523
 20
10.15459670195697
 10
29.88031812634688
 20
9.897537095364372
 10
29.52992704310027
 20
9.651675707227016
 10
29.17180639615992
 20
9.417133538316943
 10
28.80635722302037
 20
9.194031589406197
 10
28.4339805611762
 20
8.982490861266827
 10
28.05507744812191
 20
8.782632354670875
 10
27.67004892135209
 20
8.594577070390388
 10
27.27929601836125
 20
8.41844600919741
 10
26.88321977664395
 20
8.254360171863986
 10
26.48222123369474
 20
8.102440559162165
 10
26.07670142700816
 20
7.962808171863988
 10
25.66706139407875
 20
7.8355840107415
 10
25.25370217240106
 20
7.72088907656675
 10
24.83702479946964
 20
7.61884437011178
 10
24.41743031277904
 20
7.529570892148637
 10
23.99531974982378
 20
7.453189643449365
 10
23.57109414809842
 20
7.38982162478601
 10
23.14515454509752
 20
7.339587836930617
 10
22.7179019783156
 20
7.302609280655232
 10
22.28973748524723
 20
7.2790069567319
 10
21.86106210338694
 20
7.268901865932664
 10
21.43227687022927
 20
7.272415009029572
 10
21.00378282326878
 20
7.289667386794669
 10
20.575981
 20
7.32078
 10
20.18851264361719
 20
7.334745537007821
 10
19.80136939555571
 20
7.361210010942903
 10
19.41489656809103
 20
7.400003667785573
 10
19.02943947349871
 20
7.450956753516163
 10
18.64534342405424
 20
7.513899514115001
 10
18.26295373203317
 20
7.58866219556242
 10
17.88261570971099
 20
7.675075043838744
 10
17.50467466936323
 20
7.772968304924306
 10
17.12947592326541
 20
7.882172224799435
 10
16.75736478369306
 20
8.002517049444464
 10
16.38868656292169
 20
8.133833024839715
 10
16.02378657322681
 20
8.275950396965525
 10
15.66301012688396
 20
8.428699411802221
 10
15.30670253616864
 20
8.591910315330132
 10
14.95520911335639
 20
8.765413353529588
 10
14.6088751707227
 20
8.949038772380918
 10
14.26804602054312
 20
9.142616817864454
 10
13.93306697509315
 20
9.345977735960524
 10
13.60428334664832
 20
9.558951772649454
 10
13.28204044748414
 20
9.781369173911582
 10
12.96668358987614
 20
10.01306018572723
 10
12.65855808609983
 20
10.25385505407673
 10
12.35800924843074
 20
10.50358402494042
 10
12.06538238914438
 20
10.76207734429861
 10
11.78102282051627
 20
11.02916525813165
 10
11.50527585482193
 20
11.30467801241985
 10
11.23848680433689
 20
11.58844585314356
 10
10.98100098133665
 20
11.8802990262831
 10
10.73316369809674
 20
12.1800677778188
 10
10.49532026689269
 20
12.48758235373099
 10
10.267816
 20
12.802673
 10
10.05326348121916
 20
13.11710679846262
 10
9.858812719680444
 20
13.43657571028163
 10
9.683438230170184
 20
13.76082207461985
 10
9.526114527474739
 20
14.08958823064013
 10
9.385816126380451
 20
14.42261651750529
 10
9.261517541673662
 20
14.75964927437817
 10
9.152193288140714
 20
15.10042884042161
 10
9.056817880567957
 20
15.44469755479843
 10
8.974365833741732
 20
15.79219775667148
 10
8.903811662448389
 20
16.14267178520359
 10
8.84412988147427
 20
16.49586197955758
 10
8.79429500560572
 20
16.85151067889631
 10
8.753281549629081
 20
17.2093602223826
 10
8.720064028330704
 20
17.56915294917928
 10
8.693616956496928
 20
17.93063119844919
 10
8.6729148489141
 20
18.29353730935517
 10
8.656932220368567
 20
18.65761362106005
 10
8.644643585646673
 20
19.02260247272666
 10
8.635023459534759
 20
19.38824620351784
 10
8.627046356819173
 20
19.75428715259642
 10
8.619686792286259
 20
20.12046765912524
 10
8.611919280722367
 20
20.48653006226712
 10
8.602718336913833
 20
20.85221670118491
 10
8.591058475647008
 20
21.21726991504145
 10
8.575914211708234
 20
21.58143204299956
 10
8.556260059883858
 20
21.94444542422207
 10
8.531070534960223
 20
22.30605239787184
 10
8.499320151723676
 20
22.66599530311167
 10
8.459983424960559
 20
23.02401647910442
 10
8.412034869457219
 20
23.37985826501291
 10
8.354449000000001
 20
23.733263
 10
8.360420214057937
 20
23.92667002853211
 10
8.350373305595651
 20
24.1042786476117
 10
8.325190609949313
 20
24.26702444778625
 10
8.285754462455106
 20
24.41584301960324
 10
8.232947198449194
 20
24.55166995361015
 10
8.167651153267768
 20
24.67544084035447
 10
8.090748662246988
 20
24.78809127038367
 10
8.003122060723037
 20
24.89055683424524
 10
7.90565368403209
 20
24.98377312248665
 10
7.799225867510322
 20
25.0686757256554
 10
7.684720946493908
 20
25.14620023429895
 10
7.563021256319024
 20
25.21728223896479
 10
7.435009132321842
 20
25.2828573302004
 10
7.301566909838543
 20
25.34386109855325
 10
7.163576924205298
 20
25.40122913457084
 10
7.021921510758284
 20
25.45589702880064
 10
6.877483004833675
 20
25.50880037179014
 10
6.731143741767649
 20
25.56087475408681
 10
6.58378605689638
 20
25.61305576623813
 10
6.436292285556042
 20
25.66627899879158
 10
6.289544763082812
 20
25.72148004229465
 10
6.144425824812864
 20
25.77959448729482
 10
6.001817806082376
 20
25.84155792433957
 10
5.862603042227521
 20
25.90830594397637
 10
5.727663868584473
 20
25.98077413675271
 10
5.597882620489411
 20
26.05989809321607
 10
5.474141633278509
 20
26.14661340391394
 10
5.357323242287942
 20
26.24185565939378
 10
5.248309782853884
 20
26.34656045020308
 10
5.147983590312513
 20
26.46166336688933
 10
5.057227
 20
26.5881
 10
4.85104778120909
 20
26.80784511949918
 10
4.661790664865229
 20
27.03584858554597
 10
4.489125106173005
 20
27.27157520462556
 10
4.332720560337015
 20
27.51448978322313
 10
4.192246482561847
 20
27.76405712782384
 10
4.067372328052097
 20
28.0197420449129
 10
3.957767552012353
 20
28.28100934097547
 10
3.863101609647209
 20
28.54732382249673
 10
3.783043956161257
 20
28.81815029596186
 10
3.717264046759089
 20
29.09295356785606
 10
3.665431336645296
 20
29.3711984446645
 10
3.62721528102447
 20
29.65234973287234
 10
3.602285335101206
 20
29.93587223896479
 10
3.590310954080091
 20
30.22123076942701
 10
3.590961593165721
 20
30.50789013074418
 10
3.603906707562687
 20
30.79531512940149
 10
3.62881575247558
 20
31.08297057188412
 10
3.665358183108993
 20
31.37032126467725
 10
3.713203454667517
 20
31.65683201426606
 10
3.772021022355744
 20
31.94196762713571
 10
3.841480341378268
 20
32.22519290977141
 10
3.921250866939679
 20
32.50597266865832
 10
4.011002054244569
 20
32.78377171028163
 10
4.110403358497532
 20
33.05805484112651
 10
4.219124234903157
 20
33.32828686767816
 10
4.336834138666038
 20
33.59393259642174
 10
4.463202524990767
 20
33.85445683384243
 10
4.597898849081935
 20
34.10932438642543
 10
4.740592566144135
 20
34.3580000606559
 10
4.890953131381958
 20
34.59994866301903
 10
5.04865
 20
34.834635
 10
5.130533411332281
 20
34.96433018008794
 10
5.201622406162937
 20
35.09635977264946
 10
5.262421061226545
 20
35.23058459806653
 10
5.313433453257696
 20
35.36686547672116
 10
5.35516365899097
 20
35.50506322899533
 10
5.388115755160956
 20
35.64503867527106
 10
5.412793818502232
 20
35.78665263593032
 10
5.429701925749387
 20
35.92976593135511
 10
5.439344153637004
 20
36.07423938192743
 10
5.442224578899667
 20
36.21993380802927
 10
5.438847278271961
 20
36.36671003004263
 10
5.42971632848847
 20
36.5144288683495
 10
5.415335806283777
 20
36.66295114333188
 10
5.396209788392468
 20
36.81213767537175
 10
5.372842351549125
 20
36.96184928485113
 10
5.345737572488336
 20
37.11194679215199
 10
5.315399527944682
 20
37.26229101765634
 10
5.282332294652749
 20
37.41274278174617
 10
5.247039949347119
 20
37.56316290480346
 10
5.210026568762379
 20
37.71341220721023
 10
5.171796229633111
 20
37.86335150934846
 10
5.132853008693901
 20
38.01284163160015
 10
5.093700982679334
 20
38.16174339434728
 10
5.054844228323992
 20
38.30991761797186
 10
5.016786822362459
 20
38.45722512285589
 10
4.980032841529321
 20
38.60352672938135
 10
4.945086362559163
 20
38.74868325793025
 10
4.912451462186567
 20
38.89255552888456
 10
4.882632217146118
 20
39.03500436262629
 10
4.856132704172402
 20
39.17589057953744
 10
4.833457
 20
39.315075
 10
4.635301830720687
 20
39.99995429676747
 10
4.475955768554263
 20
40.6894520213823
 10
4.354603627169279
 20
41.38244050595817
 10
4.270430220234299
 20
42.07779208260884
 10
4.222620361417877
 20
42.77437908344802
 10
4.210358864388574
 20
43.47107384058945
 10
4.232830542814945
 20
44.16674868614682
 10
4.289220210365547
 20
44.8602759522339
 10
4.378712680708938
 20
45.55052797096438
 10
4.500492767513679
 20
46.23637707445202
 10
4.653745284448323
 20
46.91669559481051
 10
4.83765504518143
 20
47.5903558641536
 10
5.051406863381557
 20
48.25623021459501
 10
5.294185552717262
 20
48.91319097824846
 10
5.565175926857103
 20
49.56011048722769
 10
5.863562799469635
 20
50.1958610736464
 10
6.188530984223421
 20
50.81931506961833
 10
6.539265294787013
 20
51.42934480725722
 10
6.914950544828971
 20
52.02482261867678
 10
7.314771548017854
 20
52.60462083599073
 10
7.737913118022217
 20
53.16761179131281
 10
8.183560068510619
 20
53.71266781675673
 10
8.650897213151616
 20
54.23866124443623
 10
9.13910936561377
 20
54.74446440646503
 10
9.647381339565634
 20
55.22894963495686
 10
10.17489794867577
 20
55.69098926202543
 10
10.72084400661273
 20
56.12945561978449
 10
11.28440432704507
 20
56.54322104034775
 10
11.86476372364136
 20
56.93115785582893
 10
12.46110701007014
 20
57.29213839834177
 10
13.072619
 20
57.625035
 10
13.35561272998556
 20
57.76058070350105
 10
13.64086656517069
 20
57.89133087150483
 10
13.928294473398
 20
58.01726928381054
 10
14.21781042251015
 20
58.13837972021752
 10
14.50932838034977
 20
58.25464596052498
 10
14.80276231475949
 20
58.36605178453225
 10
15.09802619358195
 20
58.47258097203853
 10
15.3950339846598
 20
58.57421730284314
 10
15.69369965583565
 20
58.67094455674532
 10
15.99393717495217
 20
58.76274651354436
 10
16.29566050985197
 20
58.8496069530395
 10
16.5987836283777
 20
58.93150965503004
 10
16.90322049837199
 20
59.00843839931523
 10
17.20888508767748
 20
59.08037696569433
 10
17.51569136413682
 20
59.14730913396663
 10
17.82355329559262
 20
59.20921868393138
 10
18.13238484988755
 20
59.26608939538787
 10
18.44209999486422
 20
59.31790504813534
 10
18.75261269836528
 20
59.36464942197308
 10
19.06383692823336
 20
59.40630629670034
 10
19.3756866523111
 20
59.44285945211641
 10
19.68807583844114
 20
59.47429266802055
 10
20.00091845446611
 20
59.50058972421201
 10
20.31412846822866
 20
59.52173440049009
 10
20.62761984757141
 20
59.53771047665402
 10
20.941306560337
 20
59.5485017325031
 10
21.2551025743681
 20
59.5540919478366
 10
21.56892185750729
 20
59.55446490245377
 10
21.88267837759725
 20
59.54960437615387
 10
22.19628610248061
 20
59.5394941487362
 10
22.509659
 20
59.524118
  0
ENDSEC
  0
SECTION
  2
OBJECTS
  0
DICTIONARY
  5
C
330
0
100
AcDbDictionary
281
    1
  3
ACAD_GROUP
350
D
  0
DICTIONARY
  5
D
330
C
100
AcDbDictionary
281
    1
  0
ENDSEC
  0
EOF
