  0
SECTION
  2
HEADER
  9
$ACADVER
  1
AC1014
  9
$HANDSEED
  5
FFFF
  9
$MEASUREMENT
 70
     1
  0
ENDSEC
  0
SECTION
  2
TABLES
  0
TABLE
  2
VPORT
  5
8
330
0
100
AcDbSymbolTable
 70
     4
  0
VPORT
  5
2E
330
8
100
AcDbSymbolTableRecord
100
AcDbViewportTableRecord
  2
*ACTIVE
 70
     0
 10
0.0
 20
0.0
 11
1.0
 21
1.0
 12
210.0
 22
148.5
 13
0.0
 23
0.0
 14
10.0
 24
10.0
 15
10.0
 25
10.0
 16
0.0
 26
0.0
 36
1.0
 17
0.0
 27
0.0
 37
0.0
 40
341.0
 41
1.24
 42
50.0
 43
0.0
 44
0.0
 50
0.0
 51
0.0
 71
     0
 72
   100
 73
     1
 74
     3
 75
     0
 76
     0
 77
     0
 78
     0
  0
ENDTAB
  0
TABLE
  2
LTYPE
  5
5
330
0
100
AcDbSymbolTable
 70
     1
  0
LTYPE
  5
14
330
5
100
AcDbSymbolTableRecord
100
AcDbLinetypeTableRecord
  2
BYBLOCK
 70
     0
  3

 72
    65
 73
     0
 40
0.0
  0
LTYPE
  5
15
330
5
100
AcDbSymbolTableRecord
100
AcDbLinetypeTableRecord
  2
BYLAYER
 70
     0
  3

 72
    65
 73
     0
 40
0.0
  0
LTYPE
  5
16
330
5
100
AcDbSymbolTableRecord
100
AcDbLinetypeTableRecord
  2
CONTINUOUS
 70
     0
  3
Solid line
 72
    65
 73
     0
 40
0.0
  0
ENDTAB
  0
TABLE
  2
LAYER
  5
2
100
AcDbSymbolTable
 70
1
  0
LAYER
  5
50
100
AcDbSymbolTableRecord
100
AcDbLayerTableRecord
  2
0
 70
0
  6
CONTINUOUS
  0
ENDTAB
  0
TABLE
  2
STYLE
  5
3
330
0
100
AcDbSymbolTable
 70
     1
  0
STYLE
  5
11
330
3
100
AcDbSymbolTableRecord
100
AcDbTextStyleTableRecord
  2
STANDARD
 70
     0
 40
0.0
 41
1.0
 50
0.0
 71
     0
 42
2.5
  3
txt
  4

  0
ENDTAB
  0
TABLE
  2
VIEW
  5
6
330
0
100
AcDbSymbolTable
 70
     0
  0
ENDTAB
  0
TABLE
  2
UCS
  5
7
330
0
100
AcDbSymbolTable
 70
     0
  0
ENDTAB
  0
TABLE
  2
APPID
  5
9
330
0
100
AcDbSymbolTable
 70
     2
  0
APPID
  5
12
330
9
100
AcDbSymbolTableRecord
100
AcDbRegAppTableRecord
  2
ACAD
 70
     0
  0
ENDTAB
  0
TABLE
  2
DIMSTYLE
  5
A
330
0
100
AcDbSymbolTable
 70
     1
  0
DIMSTYLE
105
27
330
A
100
AcDbSymbolTableRecord
100
AcDbDimStyleTableRecord
  2
ISO-25
 70
     0
  3

  4

  5

  6

  7

 40
1.0
 41
2.5
 42
0.625
 43
3.75
 44
1.25
 45
0.0
 46
0.0
 47
0.0
 48
0.0
140
2.5
141
2.5
142
0.0
143
0.03937007874016
144
1.0
145
0.0
146
1.0
147
0.625
 71
     0
 72
     0
 73
     0
 74
     0
 75
     0
 76
     0
 77
     1
 78
     8
170
     0
171
     3
172
     1
173
     0
174
     0
175
     0
176
     0
177
     0
178
     0
270
     2
271
     2
272
     2
273
     2
274
     3
340
11
275
     0
280
     0
281
     0
282
     0
283
     0
284
     8
285
     0
286
     0
287
     3
288
     0
  0
ENDTAB
  0
TABLE
  2
BLOCK_RECORD
  5
1
330
0
100
AcDbSymbolTable
 70
     1
  0
BLOCK_RECORD
  5
1F
330
1
100
AcDbSymbolTableRecord
100
AcDbBlockTableRecord
  2
*MODEL_SPACE
  0
BLOCK_RECORD
  5
1B
330
1
100
AcDbSymbolTableRecord
100
AcDbBlockTableRecord
  2
*PAPER_SPACE
  0
ENDTAB
  0
ENDSEC
  0
SECTION
  2
BLOCKS
  0
BLOCK
  5
20
330
1F
100
AcDbEntity
  8
0
100
AcDbBlockBegin
  2
*MODEL_SPACE
 70
     0
 10
0.0
 20
0.0
 30
0.0
  3
*MODEL_SPACE
  1

  0
ENDBLK
  5
21
330
1F
100
AcDbEntity
  8
0
100
AcDbBlockEnd
  0
BLOCK
  5
1C
330
1B
100
AcDbEntity
 67
     1
  8
0
100
AcDbBlockBegin
  2
*PAPER_SPACE
  1

  0
ENDBLK
  5
1D
330
1B
100
AcDbEntity
 67
     1
  8
0
100
AcDbBlockEnd
  0
ENDSEC
  0
SECTION
  2
ENTITIES
  0
LINE
  5
100
100
AcDbEntity
  8
0
 62
7
100
AcDbLine
 10
26.341219
 20
69.198445
 30
0.0
 11
21.579306
 21
69.258722
 31
0.0
  0
LINE
  5
101
100
AcDbEntity
  8
0
 62
7
100
AcDbLine
 10
21.579306
 20
69.258722
 30
0.0
 11
18.143493
 21
68.595671
 31
0.0
  0
LINE
  5
102
100
AcDbEntity
  8
0
 62
7
100
AcDbLine
 10
18.143493
 20
68.595671
 30
0.0
 11
15.310457
 21
67.751788
 31
0.0
  0
LINE
  5
103
100
AcDbEntity
  8
0
 62
7
100
AcDbLine
 10
15.310457
 20
67.751788
 30
0.0
 11
12.718530
 21
66.606517
 31
0.0
  0
LINE
  5
104
100
AcDbEntity
  8
0
 62
7
100
AcDbLine
 10
12.718530
 20
66.606517
 30
0.0
 11
10.066325
 21
65.099582
 31
0.0
  0
LINE
  5
105
100
AcDbEntity
  8
0
 62
7
100
AcDbLine
 10
10.066325
 20
65.099582
 30
0.0
 11
8.016892
 21
63.170706
 31
0.0
  0
LINE
  5
106
100
AcDbEntity
  8
0
 62
7
100
AcDbLine
 10
8.016892
 20
63.170706
 30
0.0
 11
6.421380
 21
61.490971
 31
0.0
  0
LINE
  5
107
100
AcDbEntity
  8
0
 62
7
100
AcDbLine
 10
6.421380
 20
61.490971
 30
0.0
 11
4.588609
 21
59.104109
 31
0.0
  0
LINE
  5
108
100
AcDbEntity
  8
0
 62
7
100
AcDbLine
 10
4.588609
 20
59.104109
 30
0.0
 11
3.352555
 21
56.972981
 31
0.0
  0
LINE
  5
109
100
AcDbEntity
  8
0
 62
7
100
AcDbLine
 10
3.352555
 20
56.972981
 30
0.0
 11
2.329615
 21
54.671363
 31
0.0
  0
LINE
  5
10a
100
AcDbEntity
  8
0
 62
7
100
AcDbLine
 10
2.329615
 20
54.671363
 30
0.0
 11
1.562408
 21
52.199255
 31
0.0
  0
LINE
  5
10b
100
AcDbEntity
  8
0
 62
7
100
AcDbLine
 10
1.562408
 20
52.199255
 30
0.0
 11
1.178807
 21
50.281240
 31
0.0
  0
LINE
  5
10c
100
AcDbEntity
  8
0
 62
7
100
AcDbLine
 10
1.178807
 20
50.281240
 30
0.0
 11
1.008315
 21
47.723887
 31
0.0
  0
LINE
  5
10d
100
AcDbEntity
  8
0
 62
7
100
AcDbLine
 10
1.008315
 20
47.723887
 30
0.0
 11
1.306672
 21
44.740309
 31
0.0
  0
LINE
  5
10e
100
AcDbEntity
  8
0
 62
7
100
AcDbLine
 10
1.306672
 20
44.740309
 30
0.0
 11
1.860765
 21
42.097711
 31
0.0
  0
LINE
  5
10f
100
AcDbEntity
  8
0
 62
7
100
AcDbLine
 10
1.860765
 20
42.097711
 30
0.0
 11
2.457483
 21
39.966583
 31
0.0
  0
LINE
  5
110
100
AcDbEntity
  8
0
 62
7
100
AcDbLine
 10
2.457483
 20
39.966583
 30
0.0
 11
2.627972
 21
38.560039
 31
0.0
  0
LINE
  5
111
100
AcDbEntity
  8
0
 62
7
100
AcDbLine
 10
2.627972
 20
38.560039
 30
0.0
 11
2.713218
 21
37.025628
 31
0.0
  0
LINE
  5
112
100
AcDbEntity
  8
0
 62
7
100
AcDbLine
 10
2.713218
 20
37.025628
 30
0.0
 11
1.946011
 21
35.917442
 31
0.0
  0
LINE
  5
113
100
AcDbEntity
  8
0
 62
7
100
AcDbLine
 10
1.946011
 20
35.917442
 30
0.0
 11
1.264050
 21
34.468274
 31
0.0
  0
LINE
  5
114
100
AcDbEntity
  8
0
 62
7
100
AcDbLine
 10
1.264050
 20
34.468274
 30
0.0
 11
0.582090
 21
32.976484
 31
0.0
  0
LINE
  5
115
100
AcDbEntity
  8
0
 62
7
100
AcDbLine
 10
0.582090
 20
32.976484
 30
0.0
 11
0.241110
 21
31.442073
 31
0.0
  0
LINE
  5
116
100
AcDbEntity
  8
0
 62
7
100
AcDbLine
 10
0.241110
 20
31.442073
 30
0.0
 11
0.241110
 21
29.611270
 31
0.0
  0
LINE
  5
117
100
AcDbEntity
  8
0
 62
7
100
AcDbLine
 10
0.241110
 20
29.611270
 30
0.0
 11
0.391804
 21
28.646832
 31
0.0
  0
LINE
  5
118
100
AcDbEntity
  8
0
 62
7
100
AcDbLine
 10
0.391804
 20
28.646832
 30
0.0
 11
0.753468
 21
27.411146
 31
0.0
  0
LINE
  5
119
100
AcDbEntity
  8
0
 62
7
100
AcDbLine
 10
0.753468
 20
27.411146
 30
0.0
 11
1.341171
 21
26.250805
 31
0.0
  0
LINE
  5
11a
100
AcDbEntity
  8
0
 62
7
100
AcDbLine
 10
1.341171
 20
26.250805
 30
0.0
 11
1.943945
 21
25.527476
 31
0.0
  0
LINE
  5
11b
100
AcDbEntity
  8
0
 62
7
100
AcDbLine
 10
1.943945
 20
25.527476
 30
0.0
 11
2.546719
 21
24.909632
 31
0.0
  0
LINE
  5
11c
100
AcDbEntity
  8
0
 62
7
100
AcDbLine
 10
2.546719
 20
24.909632
 30
0.0
 11
3.270047
 21
24.352067
 31
0.0
  0
LINE
  5
11d
100
AcDbEntity
  8
0
 62
7
100
AcDbLine
 10
3.270047
 20
24.352067
 30
0.0
 11
4.098862
 21
23.930126
 31
0.0
  0
LINE
  5
11e
100
AcDbEntity
  8
0
 62
7
100
AcDbLine
 10
4.098862
 20
23.930126
 30
0.0
 11
4.957816
 21
23.538323
 31
0.0
  0
LINE
  5
11f
100
AcDbEntity
  8
0
 62
7
100
AcDbLine
 10
4.957816
 20
23.538323
 30
0.0
 11
6.042809
 21
23.176659
 31
0.0
  0
LINE
  5
120
100
AcDbEntity
  8
0
 62
7
100
AcDbLine
 10
6.042809
 20
23.176659
 30
0.0
 11
6.133225
 21
23.041033
 31
0.0
  0
LINE
  5
121
100
AcDbEntity
  8
0
 62
7
100
AcDbLine
 10
6.133225
 20
23.041033
 30
0.0
 11
6.434612
 21
22.091666
 31
0.0
  0
LINE
  5
122
100
AcDbEntity
  8
0
 62
7
100
AcDbLine
 10
6.434612
 20
22.091666
 30
0.0
 11
6.660651
 21
21.187505
 31
0.0
  0
LINE
  5
123
100
AcDbEntity
  8
0
 62
7
100
AcDbLine
 10
6.660651
 20
21.187505
 30
0.0
 11
6.826415
 21
20.192926
 31
0.0
  0
LINE
  5
124
100
AcDbEntity
  8
0
 62
7
100
AcDbLine
 10
6.826415
 20
20.192926
 30
0.0
 11
6.962038
 21
17.962663
 31
0.0
  0
LINE
  5
125
100
AcDbEntity
  8
0
 62
7
100
AcDbLine
 10
6.962038
 20
17.962663
 30
0.0
 11
6.992176
 21
15.657052
 31
0.0
  0
LINE
  5
126
100
AcDbEntity
  8
0
 62
7
100
AcDbLine
 10
6.992176
 20
15.657052
 30
0.0
 11
7.022315
 21
13.999424
 31
0.0
  0
LINE
  5
127
100
AcDbEntity
  8
0
 62
7
100
AcDbLine
 10
7.022315
 20
13.999424
 30
0.0
 11
7.067524
 21
13.276096
 31
0.0
  0
LINE
  5
128
100
AcDbEntity
  8
0
 62
7
100
AcDbLine
 10
7.067524
 20
13.276096
 30
0.0
 11
7.142870
 21
12.356867
 31
0.0
  0
LINE
  5
129
100
AcDbEntity
  8
0
 62
7
100
AcDbLine
 10
7.142870
 20
12.356867
 30
0.0
 11
7.353841
 21
11.226665
 31
0.0
  0
LINE
  5
12a
100
AcDbEntity
  8
0
 62
7
100
AcDbLine
 10
7.353841
 20
11.226665
 30
0.0
 11
7.534673
 21
10.247156
 31
0.0
  0
LINE
  5
12b
100
AcDbEntity
  8
0
 62
7
100
AcDbLine
 10
7.534673
 20
10.247156
 30
0.0
 11
7.911408
 21
9.297789
 31
0.0
  0
LINE
  5
12c
100
AcDbEntity
  8
0
 62
7
100
AcDbLine
 10
7.911408
 20
9.297789
 30
0.0
 11
8.318279
 21
8.333351
 31
0.0
  0
LINE
  5
12d
100
AcDbEntity
  8
0
 62
7
100
AcDbLine
 10
8.318279
 20
8.333351
 30
0.0
 11
8.770359
 21
7.519607
 31
0.0
  0
LINE
  5
12e
100
AcDbEntity
  8
0
 62
7
100
AcDbLine
 10
8.770359
 20
7.519607
 30
0.0
 11
9.237510
 21
6.720930
 31
0.0
  0
LINE
  5
12f
100
AcDbEntity
  8
0
 62
7
100
AcDbLine
 10
9.237510
 20
6.720930
 30
0.0
 11
9.885493
 21
5.846908
 31
0.0
  0
LINE
  5
130
100
AcDbEntity
  8
0
 62
7
100
AcDbLine
 10
9.885493
 20
5.846908
 30
0.0
 11
10.699238
 21
4.927677
 31
0.0
  0
LINE
  5
131
100
AcDbEntity
  8
0
 62
7
100
AcDbLine
 10
10.699238
 20
4.927677
 30
0.0
 11
11.497911
 21
4.159142
 31
0.0
  0
LINE
  5
132
100
AcDbEntity
  8
0
 62
7
100
AcDbLine
 10
11.497911
 20
4.159142
 30
0.0
 11
12.356865
 21
3.405674
 31
0.0
  0
LINE
  5
133
100
AcDbEntity
  8
0
 62
7
100
AcDbLine
 10
12.356865
 20
3.405674
 30
0.0
 11
13.396649
 21
2.667275
 31
0.0
  0
LINE
  5
134
100
AcDbEntity
  8
0
 62
7
100
AcDbLine
 10
13.396649
 20
2.667275
 30
0.0
 11
14.240532
 21
2.139849
 31
0.0
  0
LINE
  5
135
100
AcDbEntity
  8
0
 62
7
100
AcDbLine
 10
14.240532
 20
2.139849
 30
0.0
 11
15.325527
 21
1.522005
 31
0.0
  0
LINE
  5
136
100
AcDbEntity
  8
0
 62
7
100
AcDbLine
 10
15.325527
 20
1.522005
 30
0.0
 11
16.500936
 21
0.964441
 31
0.0
  0
LINE
  5
137
100
AcDbEntity
  8
0
 62
7
100
AcDbLine
 10
16.500936
 20
0.964441
 30
0.0
 11
17.842106
 21
0.437012
 31
0.0
  0
LINE
  5
138
100
AcDbEntity
  8
0
 62
7
100
AcDbLine
 10
17.842106
 20
0.437012
 30
0.0
 11
18.640783
 21
0.165764
 31
0.0
  0
LINE
  5
139
100
AcDbEntity
  8
0
 62
7
100
AcDbLine
 10
18.640783
 20
0.165764
 30
0.0
 11
19.921679
 21
-0.195900
 31
0.0
  0
LINE
  5
13a
100
AcDbEntity
  8
0
 62
7
100
AcDbLine
 10
19.921679
 20
-0.195900
 30
0.0
 11
20.931323
 21
-0.346594
 31
0.0
  0
LINE
  5
13b
100
AcDbEntity
  8
0
 62
7
100
AcDbLine
 10
20.931323
 20
-0.346594
 30
0.0
 11
22.016316
 21
-0.482219
 31
0.0
  0
LINE
  5
13c
100
AcDbEntity
  8
0
 62
7
100
AcDbLine
 10
22.016316
 20
-0.482219
 30
0.0
 11
26.175458
 21
-0.482219
 31
0.0
  0
LINE
  5
13d
100
AcDbEntity
  8
0
 62
7
100
AcDbLine
 10
26.175458
 20
-0.482219
 30
0.0
 11
27.185104
 21
-0.376732
 31
0.0
  0
LINE
  5
13e
100
AcDbEntity
  8
0
 62
7
100
AcDbLine
 10
27.185104
 20
-0.376732
 30
0.0
 11
28.300235
 21
-0.165761
 31
0.0
  0
LINE
  5
13f
100
AcDbEntity
  8
0
 62
7
100
AcDbLine
 10
28.300235
 20
-0.165761
 30
0.0
 11
29.611267
 21
0.180835
 31
0.0
  0
LINE
  5
140
100
AcDbEntity
  8
0
 62
7
100
AcDbLine
 10
29.611267
 20
0.180835
 30
0.0
 11
30.771608
 21
0.557567
 31
0.0
  0
LINE
  5
141
100
AcDbEntity
  8
0
 62
7
100
AcDbLine
 10
30.771608
 20
0.557567
 30
0.0
 11
31.886739
 21
1.009647
 31
0.0
  0
LINE
  5
142
100
AcDbEntity
  8
0
 62
7
100
AcDbLine
 10
31.886739
 20
1.009647
 30
0.0
 11
32.941593
 21
1.506937
 31
0.0
  0
LINE
  5
143
100
AcDbEntity
  8
0
 62
7
100
AcDbLine
 10
32.941593
 20
1.506937
 30
0.0
 11
33.725199
 21
1.898740
 31
0.0
  0
LINE
  5
144
100
AcDbEntity
  8
0
 62
7
100
AcDbLine
 10
33.725199
 20
1.898740
 30
0.0
 11
34.704708
 21
2.516582
 31
0.0
  0
LINE
  5
145
100
AcDbEntity
  8
0
 62
7
100
AcDbLine
 10
34.704708
 20
2.516582
 30
0.0
 11
35.925323
 21
3.390604
 31
0.0
  0
LINE
  5
146
100
AcDbEntity
  8
0
 62
7
100
AcDbLine
 10
35.925323
 20
3.390604
 30
0.0
 11
37.070594
 21
4.370112
 31
0.0
  0
LINE
  5
147
100
AcDbEntity
  8
0
 62
7
100
AcDbLine
 10
37.070594
 20
4.370112
 30
0.0
 11
37.929547
 21
5.229066
 31
0.0
  0
LINE
  5
148
100
AcDbEntity
  8
0
 62
7
100
AcDbLine
 10
37.929547
 20
5.229066
 30
0.0
 11
38.698085
 21
6.178434
 31
0.0
  0
LINE
  5
149
100
AcDbEntity
  8
0
 62
7
100
AcDbLine
 10
38.698085
 20
6.178434
 30
0.0
 11
39.300859
 21
7.022317
 31
0.0
  0
LINE
  5
14a
100
AcDbEntity
  8
0
 62
7
100
AcDbLine
 10
39.300859
 20
7.022317
 30
0.0
 11
39.948840
 21
8.197726
 31
0.0
  0
LINE
  5
14b
100
AcDbEntity
  8
0
 62
7
100
AcDbLine
 10
39.948840
 20
8.197726
 30
0.0
 11
40.370781
 21
9.207373
 31
0.0
  0
LINE
  5
14c
100
AcDbEntity
  8
0
 62
7
100
AcDbLine
 10
40.370781
 20
9.207373
 30
0.0
 11
40.792723
 21
10.503337
 31
0.0
  0
LINE
  5
14d
100
AcDbEntity
  8
0
 62
7
100
AcDbLine
 10
40.792723
 20
10.503337
 30
0.0
 11
41.063971
 21
11.784232
 31
0.0
  0
LINE
  5
14e
100
AcDbEntity
  8
0
 62
7
100
AcDbLine
 10
41.063971
 20
11.784232
 30
0.0
 11
41.259874
 21
13.019918
 31
0.0
  0
LINE
  5
14f
100
AcDbEntity
  8
0
 62
7
100
AcDbLine
 10
41.259874
 20
13.019918
 30
0.0
 11
41.290012
 21
14.014495
 31
0.0
  0
LINE
  5
150
100
AcDbEntity
  8
0
 62
7
100
AcDbLine
 10
41.290012
 20
14.014495
 30
0.0
 11
41.335219
 21
15.415943
 31
0.0
  0
LINE
  5
151
100
AcDbEntity
  8
0
 62
7
100
AcDbLine
 10
41.335219
 20
15.415943
 30
0.0
 11
41.350300
 21
16.696838
 31
0.0
  0
LINE
  5
152
100
AcDbEntity
  8
0
 62
7
100
AcDbLine
 10
41.350300
 20
16.696838
 30
0.0
 11
41.380439
 21
18.128427
 31
0.0
  0
LINE
  5
153
100
AcDbEntity
  8
0
 62
7
100
AcDbLine
 10
41.380439
 20
18.128427
 30
0.0
 11
41.410578
 21
19.198349
 31
0.0
  0
LINE
  5
154
100
AcDbEntity
  8
0
 62
7
100
AcDbLine
 10
41.410578
 20
19.198349
 30
0.0
 11
41.485923
 21
20.177858
 31
0.0
  0
LINE
  5
155
100
AcDbEntity
  8
0
 62
7
100
AcDbLine
 10
41.485923
 20
20.177858
 30
0.0
 11
41.621549
 21
20.991602
 31
0.0
  0
LINE
  5
156
100
AcDbEntity
  8
0
 62
7
100
AcDbLine
 10
41.621549
 20
20.991602
 30
0.0
 11
41.877726
 21
22.031389
 31
0.0
  0
LINE
  5
157
100
AcDbEntity
  8
0
 62
7
100
AcDbLine
 10
41.877726
 20
22.031389
 30
0.0
 11
42.103768
 21
22.739646
 31
0.0
  0
LINE
  5
158
100
AcDbEntity
  8
0
 62
7
100
AcDbLine
 10
42.103768
 20
22.739646
 30
0.0
 11
42.224322
 21
23.221865
 31
0.0
  0
LINE
  5
159
100
AcDbEntity
  8
0
 62
7
100
AcDbLine
 10
42.224322
 20
23.221865
 30
0.0
 11
43.414802
 21
23.553391
 31
0.0
  0
LINE
  5
15a
100
AcDbEntity
  8
0
 62
7
100
AcDbLine
 10
43.414802
 20
23.553391
 30
0.0
 11
44.318962
 21
23.930126
 31
0.0
  0
LINE
  5
15b
100
AcDbEntity
  8
0
 62
7
100
AcDbLine
 10
44.318962
 20
23.930126
 30
0.0
 11
44.846388
 21
24.231513
 31
0.0
  0
LINE
  5
15c
100
AcDbEntity
  8
0
 62
7
100
AcDbLine
 10
44.846388
 20
24.231513
 30
0.0
 11
45.449162
 21
24.638384
 31
0.0
  0
LINE
  5
15d
100
AcDbEntity
  8
0
 62
7
100
AcDbLine
 10
45.449162
 20
24.638384
 30
0.0
 11
45.931381
 21
25.045257
 31
0.0
  0
LINE
  5
15e
100
AcDbEntity
  8
0
 62
7
100
AcDbLine
 10
45.931381
 20
25.045257
 30
0.0
 11
46.413600
 21
25.527476
 31
0.0
  0
LINE
  5
15f
100
AcDbEntity
  8
0
 62
7
100
AcDbLine
 10
46.413600
 20
25.527476
 30
0.0
 11
46.790335
 21
26.039834
 31
0.0
  0
LINE
  5
160
100
AcDbEntity
  8
0
 62
7
100
AcDbLine
 10
46.790335
 20
26.039834
 30
0.0
 11
47.182138
 21
26.642608
 31
0.0
  0
LINE
  5
161
100
AcDbEntity
  8
0
 62
7
100
AcDbLine
 10
47.182138
 20
26.642608
 30
0.0
 11
47.423247
 21
27.139897
 31
0.0
  0
LINE
  5
162
100
AcDbEntity
  8
0
 62
7
100
AcDbLine
 10
47.423247
 20
27.139897
 30
0.0
 11
47.634218
 21
27.712532
 31
0.0
  0
LINE
  5
163
100
AcDbEntity
  8
0
 62
7
100
AcDbLine
 10
47.634218
 20
27.712532
 30
0.0
 11
47.830118
 21
28.315306
 31
0.0
  0
LINE
  5
164
100
AcDbEntity
  8
0
 62
7
100
AcDbLine
 10
47.830118
 20
28.315306
 30
0.0
 11
47.950676
 21
28.978357
 31
0.0
  0
LINE
  5
165
100
AcDbEntity
  8
0
 62
7
100
AcDbLine
 10
47.950676
 20
28.978357
 30
0.0
 11
48.048624
 21
29.792102
 31
0.0
  0
LINE
  5
166
100
AcDbEntity
  8
0
 62
7
100
AcDbLine
 10
48.048624
 20
29.792102
 30
0.0
 11
48.048624
 21
30.733937
 31
0.0
  0
LINE
  5
167
100
AcDbEntity
  8
0
 62
7
100
AcDbLine
 10
48.048624
 20
30.733937
 30
0.0
 11
48.003418
 21
31.359314
 31
0.0
  0
LINE
  5
168
100
AcDbEntity
  8
0
 62
7
100
AcDbLine
 10
48.003418
 20
31.359314
 30
0.0
 11
47.754773
 21
32.640209
 31
0.0
  0
LINE
  5
169
100
AcDbEntity
  8
0
 62
7
100
AcDbLine
 10
47.754773
 20
32.640209
 30
0.0
 11
47.498593
 21
33.529299
 31
0.0
  0
LINE
  5
16a
100
AcDbEntity
  8
0
 62
7
100
AcDbLine
 10
47.498593
 20
33.529299
 30
0.0
 11
47.076651
 21
34.599224
 31
0.0
  0
LINE
  5
16b
100
AcDbEntity
  8
0
 62
7
100
AcDbLine
 10
47.076651
 20
34.599224
 30
0.0
 11
46.639641
 21
35.428036
 31
0.0
  0
LINE
  5
16c
100
AcDbEntity
  8
0
 62
7
100
AcDbLine
 10
46.639641
 20
35.428036
 30
0.0
 11
46.097145
 21
36.407545
 31
0.0
  0
LINE
  5
16d
100
AcDbEntity
  8
0
 62
7
100
AcDbLine
 10
46.097145
 20
36.407545
 30
0.0
 11
45.599855
 21
37.176083
 31
0.0
  0
LINE
  5
16e
100
AcDbEntity
  8
0
 62
7
100
AcDbLine
 10
45.599855
 20
37.176083
 30
0.0
 11
45.629994
 21
37.854202
 31
0.0
  0
LINE
  5
16f
100
AcDbEntity
  8
0
 62
7
100
AcDbLine
 10
45.629994
 20
37.854202
 30
0.0
 11
45.645075
 21
38.502185
 31
0.0
  0
LINE
  5
170
100
AcDbEntity
  8
0
 62
7
100
AcDbLine
 10
45.645075
 20
38.502185
 30
0.0
 11
45.735491
 21
39.180304
 31
0.0
  0
LINE
  5
171
100
AcDbEntity
  8
0
 62
7
100
AcDbLine
 10
45.735491
 20
39.180304
 30
0.0
 11
45.886185
 21
40.039258
 31
0.0
  0
LINE
  5
172
100
AcDbEntity
  8
0
 62
7
100
AcDbLine
 10
45.886185
 20
40.039258
 30
0.0
 11
46.097156
 21
40.988626
 31
0.0
  0
LINE
  5
173
100
AcDbEntity
  8
0
 62
7
100
AcDbLine
 10
46.097156
 20
40.988626
 30
0.0
 11
46.353333
 21
42.028412
 31
0.0
  0
LINE
  5
174
100
AcDbEntity
  8
0
 62
7
100
AcDbLine
 10
46.353333
 20
42.028412
 30
0.0
 11
46.639652
 21
43.113404
 31
0.0
  0
LINE
  5
175
100
AcDbEntity
  8
0
 62
7
100
AcDbLine
 10
46.639652
 20
43.113404
 30
0.0
 11
46.805413
 21
44.002496
 31
0.0
  0
LINE
  5
176
100
AcDbEntity
  8
0
 62
7
100
AcDbLine
 10
46.805413
 20
44.002496
 30
0.0
 11
46.986246
 21
44.891587
 31
0.0
  0
LINE
  5
177
100
AcDbEntity
  8
0
 62
7
100
AcDbLine
 10
46.986246
 20
44.891587
 30
0.0
 11
47.121871
 21
45.871095
 31
0.0
  0
LINE
  5
178
100
AcDbEntity
  8
0
 62
7
100
AcDbLine
 10
47.121871
 20
45.871095
 30
0.0
 11
47.197216
 21
46.835533
 31
0.0
  0
LINE
  5
179
100
AcDbEntity
  8
0
 62
7
100
AcDbLine
 10
47.197216
 20
46.835533
 30
0.0
 11
47.242426
 21
47.769833
 31
0.0
  0
LINE
  5
17a
100
AcDbEntity
  8
0
 62
7
100
AcDbLine
 10
47.242426
 20
47.769833
 30
0.0
 11
47.182148
 21
48.809618
 31
0.0
  0
LINE
  5
17b
100
AcDbEntity
  8
0
 62
7
100
AcDbLine
 10
47.182148
 20
48.809618
 30
0.0
 11
47.091732
 21
50.000096
 31
0.0
  0
LINE
  5
17c
100
AcDbEntity
  8
0
 62
7
100
AcDbLine
 10
47.091732
 20
50.000096
 30
0.0
 11
46.925968
 21
51.130297
 31
0.0
  0
LINE
  5
17d
100
AcDbEntity
  8
0
 62
7
100
AcDbLine
 10
46.925968
 20
51.130297
 30
0.0
 11
46.745136
 21
52.064597
 31
0.0
  0
LINE
  5
17e
100
AcDbEntity
  8
0
 62
7
100
AcDbLine
 10
46.745136
 20
52.064597
 30
0.0
 11
46.488959
 21
52.998896
 31
0.0
  0
LINE
  5
17f
100
AcDbEntity
  8
0
 62
7
100
AcDbLine
 10
46.488959
 20
52.998896
 30
0.0
 11
46.202640
 21
53.933196
 31
0.0
  0
LINE
  5
180
100
AcDbEntity
  8
0
 62
7
100
AcDbLine
 10
46.202640
 20
53.933196
 30
0.0
 11
45.856046
 21
54.867495
 31
0.0
  0
LINE
  5
181
100
AcDbEntity
  8
0
 62
7
100
AcDbLine
 10
45.856046
 20
54.867495
 30
0.0
 11
45.419034
 21
55.892211
 31
0.0
  0
LINE
  5
182
100
AcDbEntity
  8
0
 62
7
100
AcDbLine
 10
45.419034
 20
55.892211
 30
0.0
 11
44.921747
 21
56.871719
 31
0.0
  0
LINE
  5
183
100
AcDbEntity
  8
0
 62
7
100
AcDbLine
 10
44.921747
 20
56.871719
 30
0.0
 11
44.303902
 21
57.986850
 31
0.0
  0
LINE
  5
184
100
AcDbEntity
  8
0
 62
7
100
AcDbLine
 10
44.303902
 20
57.986850
 30
0.0
 11
43.655922
 21
59.101982
 31
0.0
  0
LINE
  5
185
100
AcDbEntity
  8
0
 62
7
100
AcDbLine
 10
43.655922
 20
59.101982
 30
0.0
 11
43.098355
 21
59.885588
 31
0.0
  0
LINE
  5
186
100
AcDbEntity
  8
0
 62
7
100
AcDbLine
 10
43.098355
 20
59.885588
 30
0.0
 11
42.420233
 21
60.804818
 31
0.0
  0
LINE
  5
187
100
AcDbEntity
  8
0
 62
7
100
AcDbLine
 10
42.420233
 20
60.804818
 30
0.0
 11
41.621559
 21
61.769256
 31
0.0
  0
LINE
  5
188
100
AcDbEntity
  8
0
 62
7
100
AcDbLine
 10
41.621559
 20
61.769256
 30
0.0
 11
40.747537
 21
62.718625
 31
0.0
  0
LINE
  5
189
100
AcDbEntity
  8
0
 62
7
100
AcDbLine
 10
40.747537
 20
62.718625
 30
0.0
 11
40.009138
 21
63.426885
 31
0.0
  0
LINE
  5
18a
100
AcDbEntity
  8
0
 62
7
100
AcDbLine
 10
40.009138
 20
63.426885
 30
0.0
 11
39.029632
 21
64.255699
 31
0.0
  0
LINE
  5
18b
100
AcDbEntity
  8
0
 62
7
100
AcDbLine
 10
39.029632
 20
64.255699
 30
0.0
 11
37.869291
 21
65.144791
 31
0.0
  0
LINE
  5
18c
100
AcDbEntity
  8
0
 62
7
100
AcDbLine
 10
37.869291
 20
65.144791
 30
0.0
 11
36.724021
 21
65.883189
 31
0.0
  0
LINE
  5
18d
100
AcDbEntity
  8
0
 62
7
100
AcDbLine
 10
36.724021
 20
65.883189
 30
0.0
 11
35.443126
 21
66.621587
 31
0.0
  0
LINE
  5
18e
100
AcDbEntity
  8
0
 62
7
100
AcDbLine
 10
35.443126
 20
66.621587
 30
0.0
 11
34.523897
 21
67.058598
 31
0.0
  0
LINE
  5
18f
100
AcDbEntity
  8
0
 62
7
100
AcDbLine
 10
34.523897
 20
67.058598
 30
0.0
 11
33.484111
 21
67.480539
 31
0.0
  0
LINE
  5
190
100
AcDbEntity
  8
0
 62
7
100
AcDbLine
 10
33.484111
 20
67.480539
 30
0.0
 11
31.977177
 21
68.023036
 31
0.0
  0
LINE
  5
191
100
AcDbEntity
  8
0
 62
7
100
AcDbLine
 10
31.977177
 20
68.023036
 30
0.0
 11
30.726420
 21
68.384700
 31
0.0
  0
LINE
  5
192
100
AcDbEntity
  8
0
 62
7
100
AcDbLine
 10
30.726420
 20
68.384700
 30
0.0
 11
29.490733
 21
68.686087
 31
0.0
  0
LINE
  5
193
100
AcDbEntity
  8
0
 62
7
100
AcDbLine
 10
29.490733
 20
68.686087
 30
0.0
 11
28.330395
 21
68.912127
 31
0.0
  0
LINE
  5
194
100
AcDbEntity
  8
0
 62
7
100
AcDbLine
 10
28.330395
 20
68.912127
 30
0.0
 11
27.350887
 21
69.062821
 31
0.0
  0
LINE
  5
195
100
AcDbEntity
  8
0
 62
7
100
AcDbLine
 10
27.350887
 20
69.062821
 30
0.0
 11
26.341219
 21
69.198445
 31
0.0
  0
ENDSEC
  0
SECTION
  2
OBJECTS
  0
DICTIONARY
  5
C
330
0
100
AcDbDictionary
  3
ACAD_GROUP
350
D
  3
ACAD_MLINESTYLE
350
17
  0
DICTIONARY
  5
D
330
C
100
AcDbDictionary
  0
DICTIONARY
  5
1A
330
C
100
AcDbDictionary
  0
DICTIONARY
  5
17
330
C
100
AcDbDictionary
  3
STANDARD
350
18
  0
DICTIONARY
  5
19
330
C
100
AcDbDictionary
  0
ENDSEC
  0
EOF
